<svg width="66" height="65" viewBox="0 0 66 65" fill="none" xmlns="http://www.w3.org/2000/svg">
<rect x="1.75" y="1.75" width="62" height="61" rx="14.5" stroke="white" stroke-width="3"/>
<path d="M44.3267 10.5771C42.1857 10.3529 40.0339 10.2438 37.8809 10.2503C30.7431 10.2503 26.3071 14.738 26.3071 21.962V26.8667H20.3112C20.0298 26.8667 19.7598 26.9771 19.5608 27.1735C19.3618 27.37 19.25 27.6364 19.25 27.9143V35.9805C19.25 36.2583 19.3618 36.5248 19.5608 36.7212C19.7598 36.9177 20.0298 37.0281 20.3112 37.0281H26.3071V53.2024C26.3071 53.4803 26.4189 53.7467 26.618 53.9432C26.817 54.1396 27.0869 54.25 27.3684 54.25H35.8115C36.0929 54.25 36.3629 54.1396 36.5619 53.9432C36.7609 53.7467 36.8727 53.4803 36.8727 53.2024V37.0281H42.8495C43.1072 37.0282 43.3561 36.9358 43.5498 36.7681C43.7435 36.6004 43.8688 36.3689 43.9022 36.1167L44.9571 28.0505C44.9767 27.9026 44.9642 27.7523 44.9203 27.6097C44.8763 27.467 44.8021 27.3352 44.7024 27.2232C44.6027 27.1111 44.48 27.0213 44.3424 26.9599C44.2048 26.8984 44.0554 26.8666 43.9044 26.8667H36.8727V22.7624C36.8727 20.7301 37.2866 19.8816 39.8611 19.8816H44.1888C44.4702 19.8816 44.7402 19.7712 44.9392 19.5747C45.1382 19.3783 45.25 19.1118 45.25 18.834V11.6163C45.2501 11.362 45.1565 11.1163 44.9866 10.9251C44.8167 10.7338 44.5822 10.6102 44.3267 10.5771ZM43.1276 17.7843L39.859 17.7864C35.2809 17.7864 34.7502 20.6274 34.7502 22.7624V27.9164C34.7502 28.1938 34.8618 28.46 35.0603 28.6564C35.2589 28.8528 35.5283 28.9634 35.8093 28.9639H42.6988L41.9156 34.935H35.8115C35.53 34.935 35.2601 35.0454 35.0611 35.2419C34.8621 35.4383 34.7502 35.7048 34.7502 35.9826V52.1528H28.4296V35.9826C28.4296 35.7048 28.3178 35.4383 28.1188 35.2419C27.9197 35.0454 27.6498 34.935 27.3684 34.935H21.3746V28.9639H27.3684C27.6498 28.9639 27.9197 28.8536 28.1188 28.6571C28.3178 28.4607 28.4296 28.1942 28.4296 27.9164V21.962C28.4296 15.9406 31.9635 12.3454 37.8809 12.3454C40.0224 12.3454 41.956 12.4606 43.1276 12.5612V17.7843Z" fill="white"/>
</svg>
