<svg width="65" height="65" viewBox="0 0 65 65" fill="none" xmlns="http://www.w3.org/2000/svg">
<path d="M32.25 17.4688C29.3265 17.4688 26.4687 18.3357 24.038 19.9598C21.6072 21.584 19.7127 23.8925 18.5939 26.5935C17.4751 29.2944 17.1824 32.2664 17.7528 35.1337C18.3231 38.001 19.7309 40.6347 21.7981 42.7019C23.8653 44.7691 26.499 46.1769 29.3663 46.7472C32.2336 47.3176 35.2056 47.0249 37.9065 45.9061C40.6075 44.7873 42.916 42.8928 44.5402 40.462C46.1643 38.0313 47.0312 35.1735 47.0312 32.25C47.0312 28.3298 45.4739 24.5701 42.7019 21.7981C39.9299 19.0261 36.1702 17.4688 32.25 17.4688ZM32.25 44.3438C29.8581 44.3438 27.5199 43.6345 25.5311 42.3056C23.5423 40.9767 21.9922 39.0879 21.0768 36.8781C20.1615 34.6682 19.922 32.2366 20.3886 29.8906C20.8553 27.5447 22.0071 25.3898 23.6984 23.6984C25.3898 22.0071 27.5447 20.8553 29.8906 20.3886C32.2366 19.922 34.6682 20.1615 36.8781 21.0768C39.0879 21.9922 40.9767 23.5423 42.3056 25.5311C43.6345 27.5199 44.3438 29.8581 44.3438 32.25C44.3438 35.4575 43.0696 38.5336 40.8016 40.8016C38.5336 43.0696 35.4575 44.3438 32.25 44.3438ZM47.0312 0H17.4688C12.8357 0 8.3925 1.84045 5.11648 5.11648C1.84045 8.3925 0 12.8357 0 17.4688V47.0312C0 49.3253 0.451842 51.5968 1.32973 53.7163C2.20762 55.8357 3.49435 57.7614 5.11648 59.3835C8.3925 62.6595 12.8357 64.5 17.4688 64.5H47.0312C49.3253 64.5 51.5968 64.0482 53.7163 63.1703C55.8357 62.2924 57.7614 61.0056 59.3835 59.3835C61.0056 57.7614 62.2924 55.8357 63.1703 53.7163C64.0482 51.5968 64.5 49.3253 64.5 47.0312V17.4688C64.5 15.1747 64.0482 12.9032 63.1703 10.7837C62.2924 8.66434 61.0056 6.7386 59.3835 5.11648C57.7614 3.49435 55.8357 2.20762 53.7163 1.32973C51.5968 0.451842 49.3253 0 47.0312 0ZM61.8125 47.0312C61.8125 50.9515 60.2552 54.7112 57.4832 57.4832C54.7112 60.2552 50.9515 61.8125 47.0312 61.8125H17.4688C13.5485 61.8125 9.78885 60.2552 7.01683 57.4832C4.24481 54.7112 2.6875 50.9515 2.6875 47.0312V17.4688C2.6875 13.5485 4.24481 9.78885 7.01683 7.01683C9.78885 4.24481 13.5485 2.6875 17.4688 2.6875H47.0312C50.9515 2.6875 54.7112 4.24481 57.4832 7.01683C60.2552 9.78885 61.8125 13.5485 61.8125 17.4688V47.0312ZM52.4062 14.7812C52.4062 15.3128 52.2486 15.8324 51.9533 16.2743C51.658 16.7163 51.2383 17.0608 50.7472 17.2642C50.2561 17.4676 49.7158 17.5208 49.1944 17.4171C48.6731 17.3134 48.1943 17.0575 47.8184 16.6816C47.4425 16.3057 47.1866 15.8269 47.0829 15.3056C46.9792 14.7842 47.0324 14.2439 47.2358 13.7528C47.4392 13.2617 47.7837 12.842 48.2257 12.5467C48.6676 12.2514 49.1872 12.0938 49.7188 12.0938C50.4315 12.0938 51.1151 12.3769 51.6191 12.8809C52.1231 13.3849 52.4062 14.0685 52.4062 14.7812Z" fill="white"/>
</svg>
