<svg width="306" height="108" viewBox="0 0 306 108" fill="none" xmlns="http://www.w3.org/2000/svg">
<path d="M14.7232 65.1684C14.5714 65.8593 15.1786 65.8593 15.3303 66.5501C15.0268 66.7804 14.7232 66.7804 14.5714 67.0107C13.8125 66.3198 13.5089 65.1684 13.2053 64.0171C13.0536 64.2473 12.75 64.7079 12.4464 65.1684C12.1428 64.0171 12.1428 63.3262 11.9911 62.1748C11.2321 62.1748 10.4732 62.1748 9.86606 62.1748C9.56249 62.6354 9.10713 63.3262 8.65178 64.0171C8.49999 63.5565 8.49999 63.3262 8.34821 62.8657C8.04463 62.1748 7.74106 61.7143 7.43749 61.0235C7.13392 61.7143 6.98213 62.4051 6.83035 63.0959C6.52678 63.0959 6.37499 63.0959 6.07142 63.0959C5.91963 62.6354 5.76785 61.9446 5.61606 61.2537C5.16071 61.2537 4.70535 61.2537 4.40178 61.0235C3.49106 59.8721 2.73213 58.7207 1.97321 57.7996C1.97321 57.339 1.97321 57.1087 1.97321 56.6482C2.88392 56.1876 3.79463 56.4179 4.70535 56.4179C4.85713 56.6482 5.16071 57.1087 5.46428 57.5693C5.61606 56.6482 5.61606 55.7271 5.76785 54.806C6.22321 54.1151 6.83035 54.5757 7.28571 54.5757C7.58928 54.3454 7.74106 53.8849 7.89285 53.6546C8.19642 53.8849 8.34821 54.1151 8.65178 54.5757C8.80356 53.4243 8.80356 52.5032 8.95535 51.8124C10.0178 52.2729 10.3214 54.3454 11.3839 54.5757C11.8393 55.2665 11.8393 55.2665 12.5982 55.2665C12.5982 55.0362 12.75 55.0362 12.75 54.806C12.75 53.194 12.75 51.5821 12.75 50.2004C12.4464 49.7399 12.2946 49.5096 12.1428 49.049C12.1428 48.3582 12.1428 47.6674 12.75 47.6674C13.3571 47.6674 14.1161 49.2793 14.875 51.3518C15.1786 51.3518 15.4821 51.5821 15.7857 51.8124C15.9375 51.8124 15.9375 52.0426 15.9375 52.0426C15.9375 52.5032 15.9375 52.7335 15.9375 52.9638C16.2411 53.4243 16.5446 53.8849 16.8482 54.3454C17.6071 53.8849 17.7589 52.5032 18.2143 51.5821C18.6696 50.4307 19.5804 50.4307 20.1875 49.9701C20.3393 50.2004 20.4911 50.4307 20.6429 50.661C21.25 50.4307 21.0982 49.7399 20.9464 49.2793C20.6429 48.5885 20.1875 48.1279 20.4911 47.2068C21.0982 46.516 21.8571 46.9765 22.6161 46.9765C22.9196 46.7463 23.0714 46.2857 23.2232 46.0554C23.8304 45.5949 24.1339 46.7463 24.5893 46.9765C24.8929 46.7463 25.0446 46.2857 25.3482 46.0554C25.6518 46.2857 25.9554 46.7463 26.4107 46.9765C26.5625 46.7463 26.8661 46.2857 27.1696 45.8252C27.1696 45.5949 27.0179 45.3646 27.0179 45.1343C26.1071 43.9829 24.8929 43.2921 23.6786 43.0618C23.2232 42.1407 23.5268 40.9893 23.375 39.838C22.9196 39.6077 22.4643 39.1471 22.1607 38.9168C22.1607 38.4563 22.1607 38.226 22.1607 37.9957C23.0714 36.1535 24.7411 36.1535 25.8036 34.5416C27.0179 34.5416 28.3839 34.5416 29.5982 34.5416C29.75 34.3113 29.9018 34.081 30.2054 33.6205C31.7232 33.6205 33.2411 33.6205 34.7589 33.6205C35.0625 33.1599 35.2143 32.9296 35.3661 32.6994C36.2768 32.2388 37.4911 32.9296 38.4018 32.0085C37.3393 31.3177 36.4286 31.7782 35.5179 31.548C34.6071 31.548 33.5446 31.548 32.6339 31.548C31.7232 31.548 30.6607 31.548 29.75 31.548C28.8393 31.548 27.9286 31.548 27.0179 31.548C26.7143 31.0874 26.5625 30.8571 26.4107 30.6269C22.6161 30.6269 18.6696 30.6269 14.875 30.6269C14.5714 30.3966 14.4196 29.936 14.1161 29.7058C12.4464 29.7058 10.7768 29.7058 8.95535 29.7058C8.80356 29.4755 8.65178 29.2452 8.34821 28.7846C7.74106 28.7846 6.98213 28.7846 6.37499 28.7846C6.07142 28.3241 5.91963 28.0938 5.76785 27.8635C5.31249 27.8635 4.85713 27.6333 4.24999 27.6333C4.24999 27.1727 4.09821 26.7122 3.94642 26.0213C3.64285 25.791 3.18749 25.1002 2.73213 24.6397C2.88392 22.7974 3.94642 22.3369 4.40178 21.1855C4.85713 21.1855 5.31249 21.1855 5.61606 21.1855C6.37499 20.7249 6.52678 20.4947 6.67856 20.2644C7.43749 20.2644 8.04463 20.2644 8.65178 20.2644C8.95535 20.7249 9.10713 20.9552 9.41071 21.1855C9.56249 20.4947 9.56249 20.0341 9.56249 19.5736C10.1696 18.6525 10.9286 19.3433 11.6875 19.113C11.9911 19.5736 12.1428 19.8038 12.4464 20.2644C12.75 19.5736 13.0536 18.6525 13.3571 17.7313C12.75 16.8102 12.1428 15.8891 11.5357 14.968C12.1428 13.8166 12.9018 12.8955 13.5089 11.9744C14.1161 11.5139 14.875 11.7441 15.6339 11.5139C15.7857 11.2836 16.0893 11.0533 16.3928 10.5928C17.1518 10.5928 18.0625 10.5928 18.8214 10.5928C19.125 10.1322 19.2768 9.90192 19.4286 9.67164C21.25 9.67164 23.375 9.67164 25.1964 9.67164C25.6518 9.21109 25.8036 9.21109 25.9554 8.75053C28.0804 8.75053 30.2054 8.75053 32.3304 8.75053C32.6339 8.52026 32.7857 8.0597 33.0893 7.82942C36.125 7.82942 39.0089 7.82942 42.0446 7.82942C42.1964 7.59915 42.5 7.13859 42.6518 6.90832C42.9554 7.13859 43.1071 7.59915 43.4107 8.0597C43.7143 7.82942 44.0179 7.59915 44.625 7.13859C44.7768 7.13859 44.9286 7.36887 45.2321 7.82942C45.3839 7.59915 45.5357 7.13859 45.8393 6.90832C45.9911 7.13859 46.2946 7.36887 46.4464 7.82942C46.5982 7.59915 46.75 7.36887 46.9018 7.13859C47.0536 7.13859 47.0536 6.90832 47.2054 6.90832C51.4554 6.90832 55.7054 6.90832 59.9554 6.90832C60.1071 6.67804 60.2589 6.44776 60.4107 6.21748C60.5625 6.21748 60.5625 5.98721 60.7143 5.98721C66.6339 5.98721 72.7054 5.98721 78.625 5.98721C78.7768 5.75693 78.9286 5.52665 79.2321 5.0661C82.4196 5.0661 85.7589 5.0661 88.9464 5.0661C89.0982 4.60554 89.0982 4.37527 89.25 4.14499C90.9196 4.14499 92.5893 3.91471 94.2589 3.91471L94.4107 3.68443C91.9821 3.22388 91.0714 3.22388 89.25 4.37527C88.9464 4.37527 88.6429 4.37527 88.3393 4.37527C88.0357 4.14499 87.8839 3.68443 87.7321 3.45416C86.9732 2.9936 86.8214 4.14499 86.2143 4.37527C85.9107 4.14499 85.6071 3.91471 85 3.45416C82.875 3.45416 80.4464 3.45416 78.0179 3.45416C77.8661 3.68443 77.7143 3.91471 77.4107 4.37527C71.9464 4.37527 66.1786 4.37527 60.7143 4.37527C60.4107 4.83582 60.2589 5.0661 60.1071 5.29638C59.3482 5.29638 58.5893 5.52665 57.8304 5.0661C57.8304 4.60554 57.8304 4.14499 57.8304 3.91471C57.9821 3.68443 57.9821 3.45416 58.1339 3.45416C61.625 3.45416 64.9643 3.45416 68.3036 3.45416C68.6071 3.22388 68.7589 2.76333 69.0625 2.53305C69.2143 2.76333 69.5179 3.22388 69.6696 3.45416C69.8214 2.76333 69.9732 2.53305 70.125 2.30277C70.2768 2.53305 70.5804 2.76333 70.8839 2.9936C71.3393 2.9936 72.0982 2.9936 72.8571 2.9936C73.1607 2.9936 73.3125 1.84222 74.0714 2.07249C74.2232 2.30277 74.5268 2.53305 74.6786 2.9936C74.8304 2.76333 75.1339 2.30277 75.2857 2.07249C82.7232 2.07249 90.3125 2.07249 97.75 2.07249C98.0536 1.84222 98.2054 1.38166 98.3571 1.15139C98.5089 1.38166 98.6607 1.61194 98.9643 2.07249C99.1161 1.84222 99.4196 1.61194 99.7232 1.38166C100.482 1.38166 101.393 1.38166 102.304 1.38166C102.455 1.61194 102.607 1.84222 102.911 2.07249C103.062 1.84222 103.366 1.61194 103.518 1.15139C103.67 1.38166 103.973 1.61194 104.125 2.07249C104.277 1.84222 104.429 1.61194 104.58 1.38166C104.732 1.38166 104.884 1.15139 105.188 1.15139C112.321 1.15139 119.455 1.15139 126.589 1.15139C126.893 0.921109 127.045 0.460554 127.196 0.230277C127.5 0.460554 127.652 0.921109 127.804 1.15139C128.562 1.61194 128.714 0.460554 129.473 0.230277C129.625 0.460554 130.08 0.690832 130.384 1.15139C130.536 0.921109 130.688 0.690832 130.991 0.460554C153.911 0.460554 176.982 0.460554 199.75 0.460554C199.902 0.690832 200.054 0.921109 200.357 1.38166C200.509 1.15139 200.812 0.690832 200.964 0.460554C201.571 0.460554 202.179 0.460554 202.938 0.460554C203.241 0.690832 203.393 1.15139 203.545 1.38166C204 1.38166 204.455 1.38166 204.759 1.38166C205.062 1.15139 205.214 0.690832 205.366 0.460554C206.884 0.460554 208.402 0.460554 209.92 0.460554C210.071 0.690832 210.223 0.921109 210.375 1.15139C210.679 0.921109 210.982 0.690832 211.438 0.230277C211.741 0.460554 212.045 0.921109 212.348 1.15139C212.5 0.921109 212.804 0.690832 212.955 0.230277C213.411 0.230277 213.714 0.230277 214.17 0.230277C214.321 0.460554 214.625 0.921109 214.777 1.15139C215.08 0.921109 215.232 0.460554 215.536 0C215.839 0.230277 216.143 0.460554 216.75 0.921109C216.902 0.690832 217.205 0.460554 217.661 0C217.964 0.230277 218.268 0.690832 218.571 0.921109C218.875 0.690832 219.179 0.230277 219.482 0C219.786 0.460554 220.089 0.690832 220.393 1.15139C220.696 0.921109 220.848 0.460554 221.152 0C221.455 0.230277 221.759 0.460554 222.518 1.15139C224.795 1.15139 227.375 1.15139 229.955 1.15139C230.107 1.61194 230.107 1.84222 230.259 2.07249C229.652 2.07249 229.196 2.07249 228.741 2.07249C228.438 2.30277 228.286 2.76333 228.134 2.9936C227.982 2.76333 227.83 2.53305 227.679 2.30277C222.973 1.84222 215.384 1.84222 213.107 2.53305L213.259 2.76333C213.411 2.76333 213.714 2.9936 213.866 2.9936C217.661 2.9936 221.304 2.9936 224.946 2.9936C225.098 3.22388 225.25 3.45416 225.554 3.91471C227.679 3.91471 229.804 3.91471 231.929 3.91471C232.232 4.37527 232.384 4.60554 232.536 4.83582C235.268 4.83582 238.152 4.83582 240.884 4.83582C241.188 5.29637 241.339 5.52665 241.491 5.75693C244.679 5.75693 248.018 5.75693 251.054 5.75693C251.357 6.21748 251.509 6.44776 251.661 6.67804C252.875 6.67804 254.241 6.67804 255.455 6.67804C255.759 6.90832 255.911 7.36887 256.214 7.59915C257.125 7.59915 257.884 7.59915 258.795 7.59915C259.098 7.82942 259.25 8.28998 259.554 8.52026C261.071 8.52026 262.589 8.52026 263.955 8.52026C264.107 8.75053 264.259 8.98081 264.563 9.44136C265.625 9.67164 266.688 9.44136 267.902 9.67164C268.054 9.90192 268.205 10.1322 268.509 10.5928C270.027 10.5928 271.545 10.5928 273.062 10.5928C273.366 11.0533 273.518 11.2836 273.67 11.5139C273.821 11.2836 274.125 11.0533 274.277 10.5928C274.429 10.823 274.732 11.0533 274.884 11.5139C275.946 11.5139 277.009 11.5139 278.071 11.5139C278.375 11.9744 278.527 12.435 278.83 12.8955C278.83 12.8955 278.679 13.3561 278.527 13.3561C277.313 13.3561 275.946 13.3561 274.732 13.3561C274.58 13.3561 274.58 13.5864 274.58 13.5864C274.732 14.2772 275.188 14.0469 275.491 14.2772C275.795 14.7377 276.25 15.4286 276.705 16.1194C276.857 15.8891 277.161 15.6588 277.464 15.1983C278.527 15.1983 279.589 15.1983 280.652 15.1983C280.804 15.4286 281.107 15.8891 281.259 16.1194C281.866 16.1194 282.473 16.1194 283.08 16.1194C283.384 16.3497 283.536 16.8102 283.839 17.0405C284.295 17.0405 284.75 17.0405 285.054 17.0405C285.357 17.2708 285.509 17.7313 285.813 17.9616C286.42 17.9616 287.027 17.9616 287.634 17.9616C287.938 18.8827 288.241 19.5736 288.545 20.4947C288.393 20.7249 288.241 20.9552 287.938 21.4158C288.393 22.1066 289 21.6461 289.455 21.8763C289.911 21.1855 290.366 20.4947 290.821 20.0341C291.277 20.0341 291.732 20.0341 292.036 20.0341C292.795 20.9552 292.188 21.6461 291.732 22.5672C292.491 23.258 293.402 23.0277 294.009 22.7974C294.312 22.5672 294.464 22.3369 294.768 21.8763C294.768 22.5672 294.92 23.0277 294.92 23.4883C294.464 23.7185 294.161 23.9488 293.705 24.1791C293.857 24.6397 294.009 25.1002 294.161 25.5608C293.705 26.2516 293.098 25.5608 292.643 26.0213C292.339 25.5608 292.188 25.3305 291.884 24.8699C291.732 25.3305 291.732 25.791 291.58 26.2516C292.339 26.9424 293.098 27.1727 293.554 28.3241C293.098 28.5544 292.795 28.5544 292.491 29.0149C292.188 29.4755 291.884 29.936 291.429 29.7058C290.67 29.0149 291.277 28.0938 290.973 27.1727C290.67 26.7122 290.214 26.9424 289.759 26.9424C289.759 26.2516 289.759 25.3305 289.759 24.4094C289.455 24.1791 289.304 24.1791 289 23.9488C288.241 24.4094 288.089 25.791 287.179 25.791C286.42 26.0213 286.116 26.7122 285.813 27.403C285.813 29.0149 287.027 29.0149 287.027 30.3966C286.723 30.3966 286.42 30.3966 285.964 30.3966C285.812 30.8571 285.812 31.3177 285.661 31.548C285.509 32.0085 285.357 32.4691 285.054 32.9296C285.357 33.3902 285.661 33.8507 285.964 34.081C286.268 33.6205 286.571 33.1599 286.875 32.6994C286.875 31.7782 286.875 31.0874 286.875 30.3966C287.027 30.3966 287.179 30.6269 287.482 30.8571C287.482 31.7782 287.482 32.6994 287.482 33.8507C287.482 34.3113 286.571 34.5416 287.027 35.9232C287.027 35.9232 287.33 36.3838 287.634 36.8443C288.241 36.6141 288.393 35.4627 289.304 35.2324C289.304 35.2324 289.759 35.2324 290.214 35.2324C290.518 35.0021 290.67 34.5416 290.973 34.3113C291.277 35.0021 291.58 35.4627 291.884 36.1535C292.188 37.0746 292.339 37.9957 292.795 38.9168C293.098 39.6077 293.705 40.2985 294.161 40.9893C294.768 40.9893 295.375 40.9893 296.134 40.9893C296.438 41.6802 296.893 42.371 297.196 42.8316C297.652 42.8316 297.804 42.8316 298.107 42.8316C298.259 43.2921 298.259 43.5224 298.411 44.2132C297.955 44.6738 297.348 45.3646 297.045 45.8252C297.045 46.7463 297.045 47.4371 297.045 48.1279C296.893 48.5885 296.589 48.8188 296.438 49.049C296.589 49.5096 296.893 49.7399 297.045 49.9701C297.196 50.8913 296.893 51.5821 297.348 52.2729C297.5 51.5821 297.804 50.8913 297.955 50.2004C298.259 51.1215 298.562 51.8124 298.866 52.7335C298.714 52.9637 298.563 53.194 298.411 53.6546C298.563 53.8849 298.866 54.3454 299.018 54.5757C299.018 55.2665 299.018 55.9574 299.018 56.4179C298.866 56.6482 298.714 56.8785 298.563 56.8785C295.982 56.8785 293.402 56.8785 291.125 56.8785C290.821 57.339 290.67 57.5693 290.366 57.7996C289.607 57.7996 288.545 57.7996 287.634 57.7996C287.786 58.951 288.393 59.1812 288.696 60.1023C288.545 60.3326 288.545 60.5629 288.393 60.5629C286.723 60.5629 285.054 60.5629 283.232 60.5629C283.08 61.2537 282.777 61.9446 282.473 62.6354C281.563 61.9446 280.804 61.484 280.045 60.7932C279.286 61.484 278.375 61.9446 277.464 62.6354C277.161 61.7143 277.009 61.0235 276.857 60.5629C276.554 60.5629 276.402 60.5629 276.25 60.5629C275.643 61.2537 276.098 61.9446 275.946 62.8657C275.795 63.3262 275.491 63.7868 275.188 64.2473C274.732 64.2473 274.277 64.4776 273.67 64.4776C273.518 64.7079 273.366 64.7079 273.366 64.9382C273.366 66.0896 273.366 67.4712 273.366 68.6226C273.214 69.0832 272.911 69.3134 272.759 69.5437C273.062 70.0043 273.366 70.4648 273.67 70.9254C273.821 70.6951 274.125 70.2345 274.277 70.0043C274.732 70.0043 275.339 70.0043 275.795 70.0043C275.946 70.4648 276.098 70.9254 276.402 70.9254C276.857 70.9254 277.464 71.1556 277.768 70.4648C277.313 69.5437 276.554 70.0043 275.795 70.0043C276.098 69.3134 276.402 68.3923 276.705 67.4712C276.857 67.4712 277.312 67.2409 277.616 67.0107C277.616 66.3198 277.768 65.629 277.768 64.7079C278.223 64.0171 278.83 64.4776 279.286 64.2473C279.589 64.4776 279.741 64.9382 280.045 65.1684C280.5 65.1684 280.955 65.1684 281.411 65.1684C281.562 65.629 281.563 65.8593 281.714 66.5501C280.955 67.4712 280.196 68.3923 279.741 69.0832C279.741 69.774 279.741 70.2345 279.741 70.4648C280.196 71.1556 280.804 70.9254 281.259 70.9254C281.714 70.9254 282.17 70.9254 282.473 70.9254C282.929 70.9254 283.536 70.9254 283.991 70.9254C284.143 69.5437 283.536 70.2345 282.929 69.0832C283.08 69.5437 282.929 68.8529 282.777 68.3923C282.777 68.162 282.473 68.162 282.321 67.9318C282.321 66.7804 282.321 65.629 282.321 64.7079C282.17 64.4776 281.866 64.0171 281.563 63.5565C282.018 63.3262 282.321 63.3262 282.777 63.3262C282.929 64.0171 282.929 64.4776 282.929 64.9382C283.384 65.629 283.991 66.3198 284.446 67.2409C284.75 67.2409 285.054 67.4712 285.509 67.4712C285.509 68.6226 285.509 69.774 285.509 70.4648C285.964 71.1556 286.268 71.6162 286.42 72.0768C286.875 72.0768 287.33 72.0768 287.786 72.0768C288.545 71.1556 287.786 69.774 288.241 68.6226C288.393 68.6226 288.545 68.3923 288.848 68.3923C288.848 69.0832 288.848 70.0043 288.848 70.6951C289 70.9254 289.304 71.3859 289.455 71.8465C289 72.5373 288.545 72.9979 287.938 73.6887C288.089 74.1493 288.393 74.6098 288.545 75.3006C288.696 75.7612 288.848 76.452 289 76.9126C289.607 77.1429 289.759 77.1429 290.063 76.2217C290.214 76.2217 290.518 75.9915 290.518 75.9915C290.67 75.5309 290.366 75.3006 290.063 75.3006C290.063 74.3795 290.821 74.1493 290.973 73.2281C291.429 73.919 291.884 74.6098 292.339 75.3006C292.795 75.3006 293.25 75.3006 293.705 75.3006C293.705 75.7612 293.857 76.452 293.857 76.9126C292.036 77.3731 290.67 78.2942 289.607 80.1365C288.848 79.6759 288.393 79.2153 287.938 78.9851C286.875 80.1365 288.089 81.9787 287.179 82.8998C286.875 82.4392 286.571 81.9787 286.268 81.5181C286.571 80.8273 287.179 80.597 286.723 79.2154C285.964 78.7548 285.054 79.2153 283.991 78.9851C283.688 79.4456 283.384 79.9062 283.08 80.1365C282.929 81.9787 283.991 82.209 284.143 83.3603C283.991 83.5906 283.688 84.0512 283.536 84.5117C282.321 85.6631 281.411 83.1301 279.893 84.0512C279.893 84.0512 279.589 84.2814 279.134 84.742C278.83 84.2814 278.527 84.0512 278.071 83.5906C277.464 83.5906 276.857 83.5906 276.25 83.5906C275.946 84.0512 275.643 84.2814 275.491 84.5117C274.58 84.5117 274.429 82.8998 273.518 83.8209C273.518 84.0512 273.366 84.5117 273.366 84.9723C273.67 85.4328 273.973 85.8934 274.429 86.3539C275.339 87.0448 275.946 85.6631 276.857 85.4328C277.161 85.8934 277.312 86.1237 277.616 86.3539C277.768 86.1237 278.071 85.6631 278.223 85.4328C279.134 85.2026 279.589 87.2751 280.955 86.1237C280.804 86.1237 281.107 85.8934 281.411 85.6631C281.714 85.8934 282.018 86.1237 282.473 86.5842C282.777 86.3539 283.08 85.8934 283.536 85.4328C283.688 85.8934 283.991 86.3539 284.295 86.8145C283.991 87.0448 283.688 87.2751 283.232 87.5053C283.384 88.1962 283.839 87.9659 284.143 88.1962C284.446 88.4264 284.598 88.6567 284.75 88.887C284.902 88.6567 285.054 88.4264 285.357 87.9659C285.509 88.1962 285.813 88.4264 286.116 88.887C286.875 88.887 287.786 88.887 289.152 88.887C288.696 89.1173 286.42 90.0384 286.268 90.0384C286.723 90.4989 287.179 90.7292 287.634 90.9595C287.179 92.1109 286.268 90.9595 285.661 92.1109C286.723 92.5714 287.786 92.3411 288.848 92.3411C289.759 92.3411 290.67 92.1109 291.884 92.8017C290.518 93.4925 289.607 93.032 288.696 93.2623C288.241 93.7228 287.938 94.1834 287.482 94.6439C288.696 95.7953 289.759 94.6439 290.821 95.565C290.67 96.0256 290.518 96.2559 290.214 96.7164C290.67 96.9467 291.125 97.4072 291.429 97.6375C291.429 98.0981 291.429 98.3284 291.429 98.5586C290.973 99.0192 290.366 99.2495 289.607 99.9403C289.304 99.9403 288.545 99.9403 287.938 99.9403C287.634 100.171 287.482 100.631 287.179 100.861C285.054 100.861 282.929 100.861 280.804 100.861C280.5 101.092 280.348 101.552 280.045 101.783C275.491 101.783 271.089 101.783 266.536 101.783C266.384 102.013 266.232 102.243 265.929 102.704C264.107 102.934 262.134 102.704 260.009 102.704C259.857 102.934 259.705 103.164 259.402 103.625C255 103.625 250.446 103.625 245.893 103.625C245.589 104.085 245.438 104.316 245.286 104.546C237.545 104.546 229.804 104.546 222.214 104.546C221.911 105.006 221.759 105.237 221.607 105.467C198.384 105.467 174.857 105.467 151.634 105.467C151.33 105.927 151.179 106.158 151.027 106.388C144.196 106.388 137.366 106.388 130.536 106.388C130.384 106.158 130.08 105.927 129.929 105.467C129.625 105.697 129.321 106.158 129.018 106.618C128.562 106.158 128.259 105.927 127.955 105.467C107.464 105.467 86.9732 105.467 66.3304 105.467C66.1786 105.237 66.0268 105.006 65.7232 104.546C62.3839 104.546 58.8929 104.546 55.4018 104.546C55.0982 104.085 54.9464 103.855 54.7946 103.625C53.5804 103.625 52.2143 103.625 51 103.625C50.6964 103.164 50.5446 102.934 50.3929 102.704C48.875 102.704 47.5089 102.704 45.8393 102.704C45.3839 101.783 44.7768 100.631 44.1696 99.71C43.1071 99.71 42.1964 99.71 41.2857 99.71C40.5268 98.5586 41.1339 98.0981 41.5893 97.4072C41.5893 96.7164 41.5893 96.2559 41.5893 95.565C42.3482 94.6439 42.8036 92.8017 44.0179 93.032C43.8661 92.1109 43.4107 91.42 43.1071 91.1898C42.5 90.9595 42.1964 90.7292 42.1964 89.8081C42.1964 89.1173 41.5893 88.6567 41.2857 88.1962C40.0714 87.9659 40.5268 89.3475 39.9196 90.0384C39.7679 89.8081 39.4643 89.5778 39.1607 89.1173C38.5536 89.1173 37.9464 89.1173 37.3393 89.1173C37.0357 89.3475 36.8839 90.2687 36.2768 90.0384C36.2768 89.8081 36.125 89.3475 36.125 89.3475C35.6696 89.1173 35.6696 89.5778 35.6696 90.0384C35.2143 90.0384 35.0625 90.2687 35.0625 90.7292C35.0625 91.42 35.0625 91.8806 35.6696 91.8806C35.6696 92.1109 35.8214 92.5714 35.8214 92.5714C36.7321 92.5714 37.3393 94.4136 38.7054 93.4925C38.7054 93.4925 39.1607 92.8017 39.4643 92.3411C39.1607 91.8806 39.0089 91.42 38.7054 90.9595C39.1607 90.7292 39.4643 90.7292 39.6161 90.7292C40.375 91.6503 39.6161 92.8017 39.9196 93.9531C40.0714 94.4136 40.375 94.8742 40.5268 95.565C39.9196 95.565 39.3125 95.565 39.0089 95.565C37.7946 97.177 39.6161 97.6375 39.1607 99.0192C38.4018 99.71 38.4018 99.71 37.6429 98.7889C37.3393 99.0192 37.0357 99.2495 36.5804 99.71C36.2768 99.4797 35.8214 99.0192 35.2143 98.5586C34.9107 98.7889 34.6071 99.2495 34.1518 99.4797C34 99.2495 33.8482 98.7889 33.8482 98.5586C34 97.6375 34.4554 96.9467 35.0625 96.7164C35.2143 97.4072 35.0625 98.0981 35.6696 97.4072C35.5179 97.177 35.3661 96.9467 35.0625 96.7164C35.3661 95.3348 34.4554 94.4137 34.1518 93.032C34 92.5714 33.8482 91.8806 33.5446 91.1898C33.3929 91.1898 32.9375 90.9595 32.6339 90.7292C32.3304 90.2687 32.0268 90.0384 31.5714 90.0384C30.9643 89.1173 30.3571 88.1962 29.75 87.2751C29.5982 87.5053 29.2946 87.7356 29.1429 87.9659C28.5357 88.1962 27.7768 88.4264 27.1696 87.2751C26.5625 87.2751 25.9554 87.2751 25.1964 87.2751C25.0446 87.5053 24.7411 87.7356 24.4375 88.1962C24.1339 87.7356 23.9821 87.275 23.5268 86.5842C23.5268 86.3539 23.5268 85.6631 23.5268 84.742C23.0714 84.2814 22.6161 83.8209 22.1607 83.3603C22.1607 82.4392 22.1607 81.7484 22.1607 80.8273C21.5536 80.1365 20.7946 79.2153 20.1875 78.2942C20.3393 77.6034 20.4911 77.1429 20.4911 76.6823C20.7946 77.1429 20.9464 77.3731 21.25 77.6034C21.4018 77.3731 21.7053 76.9126 21.8571 76.6823C22.1607 77.1429 22.4643 77.6034 22.7679 78.064C22.7679 78.2942 22.7679 78.7548 22.7679 78.9851C23.2232 79.6759 23.8304 80.597 24.2857 81.2878C24.5893 81.0576 24.7411 80.1365 25.1964 80.3667C25.1964 81.2878 25.8036 81.5181 26.1071 82.209C26.2589 82.4392 26.7143 82.209 26.8661 82.209C27.3214 80.8273 26.8661 79.9062 26.5625 78.7548C27.0179 78.064 27.625 78.5245 28.0804 78.5245C28.5357 77.3731 28.6875 75.7612 30.0536 75.3006C29.2946 74.8401 28.9911 74.8401 28.5357 74.6098C28.3839 74.1493 28.2321 73.4584 28.0804 72.9979C27.9286 73.2281 27.625 73.4584 27.625 73.4584C27.625 74.1493 27.625 74.6098 27.625 75.3006C27.1696 76.2217 26.5625 75.5309 26.1071 75.7612C25.9554 75.5309 25.6518 75.0704 25.3482 74.8401C24.4375 74.8401 23.6786 74.8401 22.7679 74.8401C22.4643 74.6098 22.3125 74.1492 22.1607 73.919C21.8571 74.1492 21.7054 74.6098 21.5536 74.8401C21.0982 74.1493 20.7946 73.2281 20.3393 73.2281C22.1607 74.6098 21.8571 73.6887 21.25 73.6887C20.9464 73.6887 20.6429 73.6887 20.1875 73.6887C20.0357 73.919 19.7321 74.3795 19.4286 74.6098C19.2768 74.6098 18.9732 74.6098 18.8214 74.6098C18.6696 74.6098 18.3661 74.6098 18.2143 74.6098C18.0625 74.6098 18.0625 74.8401 17.9107 74.8401C17.3036 75.3006 16.6964 75.7612 16.0893 76.452C15.9375 76.2217 15.7857 75.9915 15.6339 75.7612C15.0268 75.7612 14.4196 75.7612 13.9643 75.7612C13.2053 75.0704 12.5982 74.6098 11.9911 74.1493C12.5982 73.2281 13.5089 72.5373 13.8125 71.3859C14.1161 70.2345 14.4196 69.5437 15.0268 68.8529C15.7857 68.6226 15.9375 69.3134 15.9375 70.2345C16.2411 70.6951 16.5446 71.1556 16.8482 71.6162C17.4554 71.6162 18.2143 71.6162 18.9732 71.6162C19.125 70.9254 19.2768 70.4648 19.4286 69.774C19.7321 70.2345 19.8839 70.4648 20.1875 70.6951C20.7946 70.6951 21.4018 70.6951 22.1607 70.6951C22.4643 70.2345 22.7679 69.774 23.0714 69.3134C22.6161 69.0832 22.3125 68.6226 21.8571 68.3923C22.0089 67.7015 22.6161 67.7015 22.4643 66.7804C23.5268 67.0107 24.1339 65.8593 24.8929 65.629C24.7411 64.9382 24.4375 64.0171 24.2857 63.3262C24.2857 63.0959 23.9821 63.0959 23.8304 63.0959C23.6786 62.4051 23.8304 61.7143 23.2232 62.4051C23.375 62.6354 23.5268 62.8657 23.8304 63.0959C23.8304 63.3262 23.8304 63.7868 23.8304 64.4776C23.375 64.9382 22.9196 65.629 22.6161 66.3198C22.6161 66.3198 22.6161 66.5501 22.6161 66.7804C22.1607 66.7804 21.5536 66.7804 20.9464 66.7804C20.7946 67.2409 20.6429 67.9318 20.6429 68.3923C20.0357 68.8529 19.4286 68.8529 18.8214 68.3923C18.9732 68.162 19.125 67.7015 19.4286 67.4712C19.2768 66.7804 18.6696 66.5501 18.8214 65.629C18.9732 65.3987 19.2768 64.9382 19.4286 64.7079C19.4286 64.0171 19.4286 63.0959 19.4286 62.4051C19.5804 62.4051 19.8839 62.4051 20.0357 62.1748C20.1875 62.8657 20.0357 63.5565 20.6429 62.8657C20.4911 62.6354 20.3393 62.4051 20.0357 62.1748C20.3393 61.7143 20.4911 61.2537 20.6429 60.7932C19.8839 59.6418 19.125 58.7207 18.3661 57.339C17.9107 58.4904 18.2143 59.8721 17.9107 60.7932C17.7589 61.2537 17.4553 61.7143 17.4553 62.4051C17.4553 62.8657 17.6071 63.3262 18.0625 63.0959C17.9107 64.0171 18.2143 64.9382 17.7589 65.8593C17.6071 65.629 17.3036 65.3987 17 64.9382C16.8482 65.1684 16.5446 65.3987 16.3928 65.8593C16.2411 65.1684 15.9375 64.7079 15.7857 64.0171C15.3303 64.4776 15.0268 64.7079 14.7232 65.1684C14.5714 64.4776 14.7232 63.7868 14.1161 64.4776C14.2678 64.7079 14.4196 64.9382 14.7232 65.1684ZM271.393 69.774C271.848 69.5437 272.455 69.5437 272 68.8529C271.848 69.0832 271.696 69.3134 271.848 69.5437C271.393 69.774 270.786 69.774 271.241 70.4648C271.241 70.4648 271.393 70.2345 271.393 69.774ZM31.2679 48.5885C31.4196 49.2793 31.4196 49.9701 31.875 49.5096C31.7232 49.2793 31.5714 49.049 31.4196 49.2793C31.2679 48.5885 31.2679 47.8977 30.8125 48.3582C30.9643 48.3582 31.1161 48.5885 31.2679 48.5885ZM275.339 31.548C275.795 31.3177 276.402 32.0085 276.554 31.0874C275.795 30.6269 275.795 30.6269 275.339 31.548C275.491 31.7782 275.339 31.548 275.339 31.548C275.036 31.7782 274.884 31.7782 274.732 32.0085L274.884 32.2388C275.188 32.2388 275.339 32.0085 275.339 31.548ZM27.0179 49.9701C26.8661 49.2793 26.8661 48.5885 26.4107 49.049C26.5625 49.2793 26.7143 49.5096 27.0179 49.5096C27.0179 50.2004 27.0179 51.1215 27.0179 51.8124C27.625 52.2729 28.2321 52.7335 28.8393 53.194C28.8393 52.2729 28.8393 51.5821 28.8393 50.661C28.5357 50.2004 28.2321 49.7399 27.9286 49.2793C27.4732 49.7399 27.1696 49.7399 27.0179 49.9701ZM32.0268 83.1301C33.0893 82.8998 32.3304 84.742 33.0893 84.9723C33.5446 84.742 34.1518 85.2026 34.6071 84.5117C34.6071 84.2814 34.6071 83.8209 34.7589 83.5906C34.3036 82.209 33.2411 81.9787 32.3304 81.0576C32.0268 81.9787 32.0268 82.4392 32.0268 83.1301C31.4196 83.5906 31.4196 83.5906 31.7232 84.9723C32.3304 84.5117 31.875 83.8209 32.0268 83.1301ZM38.8571 46.0554C39.4643 45.5949 40.0714 44.9041 40.5268 45.1343C41.2857 45.1343 41.5893 44.4435 42.0446 44.2132C42.1964 44.4435 42.3482 44.6738 42.5 44.904C44.9286 44.904 47.3571 44.904 49.7857 44.904C50.0893 44.4435 50.3929 43.9829 50.6964 43.5224C50.5446 43.0618 50.5446 42.6013 50.3929 42.371C50.0893 42.371 49.9375 42.371 49.6339 42.371C49.4821 42.6013 49.1786 43.0618 48.875 43.2921C45.6875 43.2921 42.5 43.2921 39.3125 43.2921C39.0089 43.9829 38.4018 44.2132 38.25 45.1343C38.5536 45.3646 38.7054 45.5949 38.8571 46.0554ZM33.6964 46.9765C34.4554 45.1343 35.5179 46.2857 36.4286 45.5949C36.8839 45.1343 37.4911 44.904 37.9464 44.4435C37.7946 43.9829 37.7946 43.5224 37.6429 43.0618C37.1875 43.5224 36.7321 43.7527 36.4286 44.2132C36.125 43.7527 35.8214 43.5224 35.6696 43.0618C35.0625 43.0618 34.4554 43.0618 33.8482 43.0618C33.5446 43.2921 33.3929 43.7527 33.2411 43.9829C32.9375 43.7527 32.7857 43.5224 32.6339 43.2921C32.1786 43.7527 31.875 43.9829 31.5714 44.2132C31.2679 43.7527 30.9643 43.5224 30.8125 43.2921C30.5089 43.5224 30.2054 43.9829 29.9018 43.9829C29.4464 44.2132 29.1429 44.2132 28.6875 44.2132C28.6875 44.2132 28.6875 44.4435 28.5357 44.4435C28.8393 44.904 29.1429 45.3646 29.4464 45.8252C29.9018 45.8252 30.3571 45.8252 30.6607 45.8252C30.9643 46.0554 31.1161 46.516 31.2679 46.7463C31.5714 46.516 31.7232 46.0554 32.0268 45.8252C32.4821 46.0554 33.0893 45.5949 33.6964 46.9765ZM39.6161 77.6034C39.0089 78.064 38.7054 78.2942 38.25 78.5245C37.6429 78.9851 37.1875 77.8337 36.5804 77.6034C36.5804 78.064 36.4286 78.5245 36.4286 78.7548C36.8839 79.4456 37.3393 79.9062 37.6429 80.597C37.7946 81.0576 37.9464 81.7484 38.0982 82.4392C38.7054 82.4392 39.1607 82.4392 39.6161 82.4392C39.7679 83.1301 39.9196 83.5906 39.9196 84.0512C40.375 83.5906 40.8304 83.3603 41.1339 82.8998C41.1339 81.7484 41.1339 81.2878 40.9821 80.8273C40.375 79.6759 39.6161 78.9851 39.6161 77.6034ZM279.589 40.2985C279.134 40.5288 278.527 40.0682 277.92 40.7591C278.223 41.4499 277.616 42.371 278.223 43.0618C278.83 43.0618 279.438 43.0618 280.045 43.0618C280.348 42.8316 280.5 42.371 280.652 42.1407C280.955 42.371 281.107 42.8316 281.411 43.0618C281.866 43.0618 282.321 43.0618 282.625 42.8316C282.777 42.8316 282.777 42.6013 282.929 42.371C282.17 41.4499 281.866 40.0682 280.804 39.838C280.5 40.2985 280.348 40.5288 280.045 40.7591C280.045 40.7591 279.741 40.5288 279.589 40.2985ZM42.6518 81.2878C43.4107 81.0576 44.1696 81.5181 44.7768 81.0576C44.625 80.597 44.3214 80.1365 44.1696 79.6759C44.0179 78.9851 44.3214 78.064 43.8661 77.6034C43.1071 77.8337 42.5 77.3731 41.7411 77.8337C41.7411 78.5245 41.7411 79.2154 41.7411 79.9062C42.0446 80.3667 42.3482 80.8273 42.6518 81.2878ZM273.366 65.629C273.366 64.2473 272.455 65.629 272.304 64.7079C272.152 64.2473 272 63.5565 272 63.0959C271.393 63.3262 270.938 62.8657 270.33 63.5565C270.33 64.2473 270.33 64.9382 270.482 65.629C270.482 65.8593 270.634 65.8593 270.634 65.8593C271.545 65.8593 272.304 65.8593 273.214 65.8593C273.214 65.8593 273.214 65.8593 273.366 65.629ZM292.795 46.516C292.946 46.9765 292.491 47.6674 292.643 47.6674C293.705 46.7463 294.313 46.0554 294.92 45.5949C294.768 44.6738 295.071 43.7527 294.464 43.0618C294.009 43.2921 293.402 42.8316 292.946 43.5224C292.643 44.4435 293.098 44.904 293.554 45.5949C293.098 45.8252 292.946 46.0554 292.795 46.516ZM273.821 25.1002C274.125 24.6397 274.58 24.1791 274.732 23.4883C274.277 23.258 274.125 22.1066 273.518 22.3369C272 23.9488 272 24.4094 272.607 25.1002C272.911 25.1002 273.366 25.1002 273.821 25.1002ZM284.75 43.0618C285.205 43.0618 285.661 43.0618 286.116 43.0618C286.268 42.8316 286.42 42.371 286.723 42.1407C287.027 41.9104 287.482 42.371 287.634 41.2196C286.571 41.2196 285.357 41.2196 284.295 41.2196C284.143 41.2196 284.143 41.6802 283.991 41.6802C284.143 42.1407 284.446 42.6013 284.75 43.0618ZM266.688 65.8593C267.143 65.629 267.75 66.0896 268.205 65.629C268.205 64.7079 267.598 65.1684 267.295 64.9382C266.688 64.0171 266.08 63.0959 265.473 62.1748H265.321C265.17 63.5565 265.17 63.5565 266.688 65.8593ZM289.607 42.6013C289.607 42.1407 289.455 41.6802 289.304 40.5288C288.848 41.4499 288.545 41.9104 288.241 42.371C288.393 42.6013 290.67 44.6738 290.821 44.6738C290.973 44.6738 291.125 44.4435 291.429 44.2132C291.125 43.2921 290.063 43.2921 289.607 42.6013ZM29.9018 69.774C28.2321 69.774 28.2321 69.774 27.4732 70.4648C27.9286 70.4648 28.2321 70.6951 28.3839 70.6951C29.1429 70.6951 29.9018 70.9254 30.5089 70.4648C30.6607 69.5437 30.8125 68.6226 30.2054 67.7015C30.2054 68.3923 30.2054 68.8529 29.9018 69.774ZM23.6786 69.3134C23.9821 69.774 24.2857 70.4648 24.8929 70.6951C24.8929 69.5437 24.8929 68.6226 24.8929 67.4712C24.8929 67.2409 24.5893 67.2409 24.4375 67.0107C24.2857 67.7015 23.6786 67.9318 23.6786 69.3134ZM276.098 62.6354C275.795 62.1748 275.491 61.7143 275.188 61.2537C274.58 61.2537 273.973 60.7932 273.518 61.7143C273.973 61.9446 274.277 61.9446 274.58 62.1748C274.884 62.4051 275.188 63.0959 275.643 62.8657C275.643 62.8657 275.946 62.8657 276.098 62.6354ZM278.679 25.3305C278.982 25.791 279.134 26.4819 279.741 26.7122C280.045 26.2516 280.348 25.791 280.5 25.5608C280.196 25.1002 279.893 24.6397 279.589 24.1791C279.286 24.4094 278.982 24.8699 278.679 25.3305ZM34.7589 79.2154C34.6071 78.2942 34.6071 78.064 34.4554 77.3731C34 77.6034 33.6964 77.6034 33.2411 77.6034C33.3929 78.2942 33.3929 78.7548 33.3929 79.2154C33.8482 79.2154 34.1518 79.2154 34.7589 79.2154ZM94.7143 3.68443C96.2321 4.14499 96.2321 4.14499 96.6875 3.45416C96.2321 2.9936 95.625 2.9936 94.7143 3.68443ZM282.625 30.8571C282.929 30.1663 283.536 29.7058 283.536 29.0149C283.232 28.5544 282.777 28.5544 282.321 29.2452C282.473 29.7058 282.625 30.1663 282.625 30.8571ZM272.759 61.0235C271.393 60.1023 271.393 60.3326 270.938 61.0235C271.241 61.0235 271.545 61.2537 271.848 61.2537C272.152 61.2537 272.455 61.0235 272.759 61.0235ZM277.312 82.6695C276.705 81.9787 275.946 81.9787 275.339 82.6695C276.098 83.3603 276.705 83.3603 277.312 82.6695ZM38.7054 87.0448C39.1607 86.3539 39.1607 85.6631 38.8571 84.9723C38.5536 84.9723 38.25 85.2026 38.0982 85.2026C38.25 85.6631 38.5536 86.3539 38.7054 87.0448ZM263.955 23.0277C264.107 23.0277 264.259 23.0277 264.411 23.0277C264.411 22.5672 264.563 22.1066 264.563 21.6461L264.411 21.4158C264.259 21.4158 263.955 21.6461 263.955 21.6461C263.804 22.1066 263.955 22.5672 263.955 23.0277ZM267.143 22.5672C266.536 21.8763 266.08 21.6461 265.929 22.7974C266.232 23.258 266.536 23.258 267.143 22.5672ZM284.446 27.1727C284.446 27.403 284.446 27.6333 284.446 27.8635C284.75 27.8635 285.054 28.0938 285.357 28.0938L285.509 27.8635C285.509 27.6333 285.357 27.1727 285.205 27.1727C285.054 26.9424 284.75 26.9424 284.446 27.1727ZM286.268 30.1663C285.813 29.4755 285.357 29.4755 285.054 30.1663C285.509 30.8571 285.813 30.8571 286.268 30.1663ZM288.393 45.1343C288.393 45.3646 288.393 45.5949 288.393 45.8252C288.696 45.8252 289 46.0554 289.304 46.0554L289.455 45.8252C289.455 45.5949 289.304 45.1343 289.152 45.1343C288.848 44.9041 288.545 45.1343 288.393 45.1343ZM38.8571 98.3284C39.3125 97.4072 39.4643 96.9467 38.7054 96.4861C38.4018 97.177 38.4018 97.6375 38.8571 98.3284ZM47.8125 79.2154C47.3571 79.9062 47.3571 80.597 47.8125 81.0576C48.2679 80.597 48.2679 79.9062 47.8125 79.2154ZM271.545 58.7207C272 59.4115 272.455 59.4115 272.759 58.7207C272.455 58.0299 272 58.0299 271.545 58.7207ZM287.027 57.5693C287.027 57.7996 287.027 58.0298 287.027 58.2601C287.33 58.2601 287.634 58.4904 287.938 58.4904L288.089 58.2601C288.089 58.0298 287.938 57.5693 287.786 57.5693C287.634 57.339 287.33 57.5693 287.027 57.5693ZM261.982 21.8763C262.134 22.1066 262.134 22.1066 262.286 22.1066C262.286 21.8763 262.438 21.6461 262.438 21.4158L262.286 21.1855C262.134 21.4158 262.134 21.6461 261.982 21.8763ZM287.938 21.4158C287.786 21.4158 287.634 21.6461 287.482 21.6461L287.634 21.8763C287.786 21.8763 287.938 21.6461 288.089 21.6461C288.241 21.6461 288.089 21.4158 287.938 21.4158ZM271.393 23.9488C271.545 23.7185 271.545 23.7185 271.696 23.7185C271.545 23.7185 271.393 23.4883 271.241 23.4883L271.089 23.7185C271.089 23.7185 271.241 23.7185 271.393 23.9488ZM150.116 24.6397C150.116 24.4094 149.964 24.1791 149.812 23.9488L149.661 24.1791C149.661 24.4094 149.812 24.6397 149.812 24.8699C149.964 24.8699 149.964 24.8699 150.116 24.6397ZM277.616 24.8699C277.768 24.8699 277.92 24.6397 278.071 24.6397L277.92 24.4094C277.768 24.4094 277.616 24.6397 277.464 24.6397C277.464 24.6397 277.464 24.6397 277.616 24.8699ZM277.92 31.3177C277.92 31.0874 277.768 30.8571 277.616 30.6269L277.464 30.8571C277.464 31.0874 277.616 31.3177 277.616 31.548C277.768 31.548 277.768 31.548 277.92 31.3177ZM82.7232 37.0746C82.7232 36.8443 82.5714 36.6141 82.4196 36.3838L82.2679 36.6141C82.2679 36.8443 82.4196 37.0746 82.4196 37.3049C82.5714 37.3049 82.5714 37.0746 82.7232 37.0746ZM70.2768 39.3774C70.125 39.3774 69.9732 39.6077 69.8214 39.6077L69.9732 39.838C70.125 39.838 70.2768 39.6077 70.4286 39.6077C70.4286 39.6077 70.4286 39.6077 70.2768 39.3774ZM56.0089 43.0618C56.1607 43.0618 56.3125 42.8316 56.4643 42.8316L56.3125 42.6013C56.1607 42.6013 56.0089 42.8316 55.8571 42.8316C55.8571 42.8316 56.0089 42.8316 56.0089 43.0618ZM22.9196 49.5096C22.9196 49.2793 22.7678 49.049 22.6161 48.8188L22.4643 49.049C22.4643 49.2793 22.6161 49.5096 22.6161 49.7399C22.7678 49.7399 22.9196 49.5096 22.9196 49.5096ZM42.0446 49.7399L41.8929 49.9701C41.8929 50.2004 42.0446 50.4307 42.0446 50.661L42.1964 50.4307C42.1964 50.2004 42.0446 49.9701 42.0446 49.7399ZM32.9375 50.8913C32.7857 51.1215 32.7857 51.1215 32.6339 51.1215C32.7857 51.1215 32.9375 51.3518 33.0893 51.3518L33.2411 51.1215C33.2411 51.1215 33.0893 50.8913 32.9375 50.8913ZM23.8304 54.1151C23.9821 54.3454 23.9821 54.3454 24.1339 54.3454C24.1339 54.1151 24.2857 53.8849 24.2857 53.6546L24.1339 53.4243C23.9821 53.8849 23.8304 53.8849 23.8304 54.1151ZM21.25 56.1876C21.4018 56.4179 21.4018 56.4179 21.5536 56.4179C21.5536 56.1876 21.7054 55.9574 21.7054 55.7271L21.5536 55.4968C21.4018 55.7271 21.25 55.9574 21.25 56.1876ZM270.179 58.0299C270.179 57.7996 270.027 57.5693 269.875 57.339L269.723 57.5693C269.723 57.7996 269.875 58.0298 269.875 58.2601C270.027 58.2601 270.027 58.0299 270.179 58.0299ZM268.357 63.5565C268.357 63.7868 268.509 64.0171 268.661 64.2473L268.813 64.0171C268.813 63.7868 268.661 63.5565 268.661 63.3262C268.661 63.3262 268.509 63.3262 268.357 63.5565ZM31.5714 68.162C31.5714 68.3923 31.7232 68.6226 31.875 68.8529L32.0268 68.6226C32.0268 68.3923 31.875 68.162 31.875 67.9318C31.7232 67.9318 31.5714 68.162 31.5714 68.162ZM279.286 69.5437C279.438 69.774 279.438 69.774 279.589 69.774C279.589 69.5437 279.741 69.3134 279.741 69.0832L279.589 68.8529C279.438 69.0832 279.438 69.3134 279.286 69.5437ZM46.75 77.8337C46.5982 77.6034 46.5982 77.6034 46.4464 77.6034C46.4464 77.8337 46.2946 78.064 46.2946 78.2942L46.4464 78.5245C46.5982 78.064 46.5982 77.8337 46.75 77.8337ZM35.6696 79.2154C35.8214 78.9851 35.8214 78.9851 35.9732 78.9851C35.8214 78.9851 35.6696 78.7548 35.5179 78.7548L35.3661 78.9851C35.3661 78.9851 35.5179 78.9851 35.6696 79.2154ZM281.107 79.6759C280.955 79.4456 280.955 79.4456 280.804 79.4456C280.804 79.6759 280.652 79.9062 280.652 80.1365L280.804 80.3667C280.955 80.1365 280.955 79.9062 281.107 79.6759ZM34.6071 80.8273L34.4554 80.597C34.3036 80.597 34.1518 80.8273 34 80.8273L34.1518 81.0576C34.3036 81.0576 34.4554 80.8273 34.6071 80.8273ZM43.1071 86.5842C43.2589 86.8145 43.2589 86.8145 43.4107 86.8145C43.4107 86.5842 43.5625 86.3539 43.5625 86.1237L43.4107 85.8934C43.2589 86.1237 43.1071 86.3539 43.1071 86.5842Z" fill="#0077FF" fill-opacity="0.29"/>
<path d="M303.571 29.7058C303.571 29.2452 303.571 28.7846 303.571 28.3241C303.875 28.0938 304.027 28.0938 304.482 27.8635C304.938 28.7846 305.393 29.4755 305.848 30.6269C305.848 30.6269 305.696 30.8571 305.545 31.3177C305.545 32.0085 305.393 32.6994 305.393 33.6205C305.089 33.6205 304.634 33.8507 304.482 33.6205C303.723 32.6994 303.116 31.7783 302.357 30.6269C301.902 31.0874 301.598 31.3177 301.143 31.7783C300.839 31.0874 300.536 30.3966 300.232 29.936C299.777 29.936 299.473 29.936 299.17 29.936C299.17 29.4755 299.018 29.0149 299.018 28.3241C299.473 28.0938 299.929 27.8635 300.232 27.6333C299.929 26.9424 299.777 26.4819 299.473 25.791C299.777 25.5608 300.08 25.3305 300.536 24.8699C300.839 25.5608 300.991 26.2516 301.295 26.9424C301.295 26.9424 301.143 27.1727 300.839 27.6333C301.295 28.0938 301.75 28.3241 302.205 28.5544C302.813 28.7846 303.116 29.7058 303.571 29.7058C303.723 30.1663 303.571 31.0874 304.179 30.3966C304.027 30.1663 303.875 29.936 303.571 29.7058Z" fill="#0077FF" fill-opacity="0.29"/>
<path d="M49.0268 5.0661C48.7232 5.29638 48.5714 5.75693 48.4196 5.98721C48.2679 5.75693 48.1161 5.52666 47.8125 5.0661C46.5982 5.0661 45.2321 5.0661 43.8661 5.0661C43.7143 5.29638 43.5625 5.52666 43.4107 5.75693C43.1072 5.52666 42.8036 5.29638 42.3482 4.83582C42.0447 5.0661 41.7411 5.52666 41.2857 5.98721C40.9822 5.98721 40.5268 5.98721 40.0714 5.98721C39.6161 5.29638 39.6161 4.83582 40.0714 4.14499C40.2232 4.37527 40.5268 4.83582 40.6786 5.0661C40.8304 4.60555 40.9822 4.37527 41.2857 4.14499C45.3839 4.14499 49.4822 4.14499 53.4286 4.14499C53.8839 3.68444 54.0357 3.45416 54.3393 2.99361C54.7946 3.45416 55.25 3.68444 55.7054 4.14499C56.0089 3.91472 56.3125 3.45416 56.6161 3.22388C57.0714 3.45416 56.9196 4.14499 56.7679 4.60555C56.6161 4.83582 56.6161 5.0661 56.4643 5.0661C54.1875 5.0661 51.6071 5.0661 49.0268 5.0661Z" fill="#0077FF" fill-opacity="0.29"/>
<path d="M33.3929 5.98721C33.3929 6.21749 33.2411 6.44776 33.0893 6.90832C30.5089 6.90832 27.9286 6.90832 25.3482 6.90832C25.1964 7.1386 25.0446 7.36887 24.7411 7.82943C23.9821 8.28998 23.2232 7.82943 22.3125 8.0597C22.3125 7.82943 22.4643 7.36887 22.6161 7.36887C23.0714 7.1386 23.5268 6.90832 24.2857 6.21749C24.8929 6.21749 25.9554 6.21749 27.0179 6.21749C27.3214 5.75693 27.7768 5.52666 28.0804 5.0661C28.5357 5.52666 28.9911 5.75693 29.4464 6.21749C29.75 5.98721 30.0536 5.52666 30.3571 5.29638C30.5089 5.52666 30.8125 5.75693 30.9643 6.21749C31.875 5.98721 32.6339 5.98721 33.3929 5.98721Z" fill="#0077FF" fill-opacity="0.29"/>
<path d="M298.714 26.4819C298.107 27.1727 297.652 27.6333 297.045 28.3241C297.348 29.2452 297.652 29.7058 297.955 30.6269C297.955 31.0874 297.955 31.7782 297.955 32.2388C297.348 32.9296 296.893 33.8507 296.438 34.5416C296.134 33.8507 295.375 33.6205 295.527 32.2388C295.83 32.0085 296.286 31.548 296.741 31.3177C297.045 30.1663 296.286 29.7058 295.982 29.2452C296.893 27.1727 297.348 26.2516 298.107 26.0213C298.107 26.0213 298.259 26.2516 298.714 26.4819Z" fill="#0077FF" fill-opacity="0.29"/>
<path d="M235.571 2.9936C235.875 2.9936 236.179 2.9936 236.482 2.9936C236.786 2.76333 236.937 2.30277 237.089 2.07249C237.241 2.30277 237.393 2.53305 237.696 2.9936C239.821 2.9936 241.946 2.9936 244.071 2.9936C244.527 3.68443 244.527 4.14499 244.223 4.83582C243.768 4.83582 243.312 4.83582 242.705 4.83582C242.554 4.60554 242.402 4.37527 242.098 3.91471C239.973 3.91471 237.848 3.91471 235.571 3.91471C235.723 3.68444 235.723 3.45416 235.571 2.9936Z" fill="#0077FF" fill-opacity="0.29"/>
<path d="M301.143 46.9765C301.902 46.9765 302.661 46.9765 303.42 46.9765C303.723 47.4371 303.875 47.8977 304.33 48.5885C303.875 49.049 303.42 49.5096 303.268 49.7399C302.964 50.8913 303.268 51.5821 302.661 51.8124C302.509 51.3518 302.357 50.661 302.205 50.2004C301.75 50.2004 301.295 49.9702 300.687 49.9702C300.384 49.5096 300.384 49.5096 301.143 48.5885C301.143 47.8977 301.143 47.4371 301.143 46.9765Z" fill="#0077FF" fill-opacity="0.29"/>
<path d="M249.08 4.60554C249.08 4.14498 249.232 3.45415 249.232 2.76332C249.536 3.22388 249.839 3.68443 249.991 3.91471C250.143 3.68443 250.446 3.22388 250.598 2.9936C250.75 3.22388 250.902 3.45415 251.205 3.91471C252.268 4.37526 253.482 3.68443 254.848 4.37526C253.786 5.06609 253.33 5.29637 249.08 4.60554Z" fill="#0077FF" fill-opacity="0.29"/>
<path d="M231.17 2.07249C232.536 2.07249 233.902 2.07249 235.116 2.07249C235.42 2.07249 235.723 2.53305 235.571 2.9936C235.268 2.9936 234.964 2.9936 234.661 2.9936C234.509 3.22388 234.205 3.68444 234.054 3.91471C233.902 3.68444 233.598 3.45416 233.295 2.9936C232.687 2.9936 232.08 2.9936 231.321 2.9936C231.17 2.53305 231.17 2.30277 231.17 2.07249Z" fill="#0077FF" fill-opacity="0.29"/>
<path d="M9.25891 50.4307C8.49998 50.661 8.3482 50.661 7.89284 50.8913C7.74105 51.3518 7.58927 52.0426 7.2857 52.7335C6.98213 52.7335 6.83034 52.7335 6.67855 52.7335C6.07141 51.8124 6.98213 51.8124 6.98213 51.1215C6.98213 50.4307 6.98213 49.9701 6.98213 49.5096C7.13391 49.2793 7.2857 49.2793 7.2857 49.049C7.58927 49.7399 8.3482 49.7399 9.25891 50.4307Z" fill="#0077FF" fill-opacity="0.29"/>
<path d="M39.1607 5.29638C38.8571 5.75693 38.7053 5.75693 38.7053 5.75693C37.6428 5.75693 36.5803 5.75693 35.5178 5.75693L35.3661 5.52666C36.125 4.83583 36.125 4.83583 39.1607 5.29638Z" fill="#0077FF" fill-opacity="0.29"/>
<path d="M15.9375 8.75053C15.3303 9.67164 14.2678 10.5928 13.5089 10.3625C13.5089 9.44137 14.1161 9.21109 14.2678 8.75053C14.875 8.75053 15.4821 8.75053 15.9375 8.75053Z" fill="#0077FF" fill-opacity="0.29"/>
<path d="M21.0982 36.3838C21.0982 37.3049 21.0982 37.7655 21.0982 38.226C20.7947 38.226 20.4911 38.4563 20.0357 38.4563C20.0357 37.7655 19.8839 37.3049 19.8839 36.6141C20.1875 36.6141 20.4911 36.3838 21.0982 36.3838Z" fill="#0077FF" fill-opacity="0.29"/>
<path d="M282.473 12.435C282.473 13.3561 282.473 13.8166 282.473 14.2772C282.17 14.2772 281.866 14.5075 281.411 14.5075C281.411 13.8166 281.259 13.3561 281.259 12.6652C281.563 12.6652 281.866 12.6652 282.473 12.435Z" fill="#0077FF" fill-opacity="0.29"/>
<path d="M15.9375 8.52025C16.6964 7.36887 17.6071 7.82942 18.5179 8.0597C17.7589 9.21108 16.8482 8.52025 15.9375 8.52025Z" fill="#0077FF" fill-opacity="0.29"/>
<path d="M11.0803 49.049C11.6875 49.049 11.3839 49.9701 11.5357 50.4307C11.6875 50.8913 11.9911 51.1215 12.4464 51.5821C11.8393 51.8124 11.3839 51.8124 11.0803 51.8124C10.7768 50.661 10.7768 49.7399 11.0803 49.049Z" fill="#0077FF" fill-opacity="0.29"/>
<path d="M297.045 21.8763C297.804 22.1066 298.107 22.1066 298.562 22.3369C298.107 23.0277 297.804 23.7185 297.196 23.7185C297.348 23.4883 297.196 23.0277 297.045 21.8763Z" fill="#0077FF" fill-opacity="0.29"/>
<path d="M290.821 26.9424C290.821 27.403 290.821 28.0938 290.67 28.5544C289.911 28.7846 289.911 27.6333 289.455 27.6333C289.759 26.4819 290.366 27.1727 290.821 26.9424Z" fill="#0077FF" fill-opacity="0.29"/>
<path d="M290.821 33.6205C290.973 32.6994 290.973 32.2388 290.973 31.548C291.277 32.0085 291.58 32.2388 291.732 32.6994C291.884 32.9296 291.884 33.1599 292.036 33.3902C291.884 33.3902 291.732 33.6205 291.58 33.6205C291.429 33.6205 291.277 33.6205 290.821 33.6205Z" fill="#0077FF" fill-opacity="0.29"/>
<path d="M3.79462 54.5757C3.79462 54.1151 3.79462 53.6546 3.79462 53.194C4.09819 52.2729 4.55355 52.7335 5.16069 52.5032C4.70533 53.6546 4.40176 54.3454 3.79462 54.5757Z" fill="#0077FF" fill-opacity="0.29"/>
<path d="M34.6071 99.2495C34.3036 99.2495 34 99.2495 33.6964 99.2495C33.0893 98.7889 33.2411 98.0981 33.5446 97.4072C34 97.8678 34.4554 98.3284 34.6071 99.2495Z" fill="#0077FF" fill-opacity="0.29"/>
<path d="M245.741 3.45416C246.196 2.76333 246.652 2.76333 246.955 3.22389C246.804 4.37527 246.348 4.145 245.741 3.45416Z" fill="#0077FF" fill-opacity="0.29"/>
<path d="M33.2411 5.9872C33.6964 4.83581 33.6964 4.83581 34.4553 5.29637C34.3036 6.44776 33.6964 5.75692 33.2411 5.9872Z" fill="#0077FF" fill-opacity="0.29"/>
<path d="M22.4643 7.82942C22.0089 8.75053 22.0089 8.75053 21.25 8.28998C21.4018 7.36887 22.0089 8.0597 22.4643 7.82942Z" fill="#0077FF" fill-opacity="0.29"/>
<path d="M285.509 15.1983C285.205 15.1983 284.902 15.4286 284.598 15.4286C284.446 15.4286 284.446 14.968 284.295 14.7377L284.446 14.5075C284.75 14.5075 285.054 14.5075 285.357 14.7377C285.509 14.968 285.509 14.968 285.509 15.1983Z" fill="#0077FF" fill-opacity="0.29"/>
<path d="M293.402 31.3177C293.857 30.6269 294.313 30.8571 294.616 31.0874C294.313 32.0085 293.857 31.7783 293.402 31.3177Z" fill="#0077FF" fill-opacity="0.29"/>
<path d="M19.5803 40.2985C20.0357 40.9893 20.0357 41.6802 19.5803 42.1407C19.125 41.4499 19.125 40.7591 19.5803 40.2985Z" fill="#0077FF" fill-opacity="0.29"/>
<path d="M17.6071 42.1407C18.0625 42.8316 18.0625 43.5224 17.7589 43.9829C17 43.5224 17.1518 42.8316 17.6071 42.1407Z" fill="#0077FF" fill-opacity="0.29"/>
<path d="M34.6071 96.0256C34.1518 96.7164 33.6964 96.7164 33.3929 96.0256C33.6964 95.3348 34.1518 95.3348 34.6071 96.0256Z" fill="#0077FF" fill-opacity="0.29"/>
<path d="M37.7946 91.6503C37.7946 92.1109 37.9464 92.5714 37.7946 93.032C37.6429 93.2623 37.3393 93.4925 37.1875 93.7228C37.1875 93.032 37.1875 92.3411 37.1875 91.8806C37.3393 91.6503 37.6429 91.6503 37.7946 91.6503Z" fill="#0077FF" fill-opacity="0.29"/>
<path d="M27.625 82.209C27.625 81.5181 27.625 80.8273 27.625 80.3667C28.2321 80.3667 28.2321 80.8273 28.2321 81.5181C28.0804 81.9787 27.9286 82.209 27.625 82.209Z" fill="#0077FF" fill-opacity="0.29"/>
<path d="M27.625 80.3667C27.0179 79.9062 27.0179 79.9062 27.3214 78.5245C27.9286 78.7548 27.4732 79.6759 27.625 80.3667Z" fill="#0077FF" fill-opacity="0.29"/>
<path d="M11.2321 72.5373C11.6875 73.2281 11.6875 73.919 11.2321 74.3795C10.7768 73.919 10.7768 73.2281 11.2321 72.5373Z" fill="#0077FF" fill-opacity="0.29"/>
<path d="M12.1429 71.1556C11.6875 71.8465 11.2322 71.8465 10.9286 71.1556C11.2322 70.4648 11.6875 70.4648 12.1429 71.1556Z" fill="#0077FF" fill-opacity="0.29"/>
<path d="M17.9107 68.3923C17.4553 69.0832 17 69.0832 16.6964 68.3923C17 67.7015 17.4553 67.7015 17.9107 68.3923Z" fill="#0077FF" fill-opacity="0.29"/>
<path d="M11.5357 54.5757C11.6875 53.8849 11.2322 53.194 11.8393 52.7335C12.1429 53.8849 12.1429 53.8849 11.5357 54.5757Z" fill="#0077FF" fill-opacity="0.29"/>
<path d="M248.17 3.22388C248.321 3.45415 248.321 3.45415 248.473 3.45415C248.321 3.45415 248.17 3.68443 248.018 3.68443L247.866 3.45415C247.866 3.45415 248.018 3.22388 248.17 3.22388Z" fill="#0077FF" fill-opacity="0.29"/>
<path d="M256.062 4.60555C255.911 4.83583 255.911 4.83583 255.759 4.83583C255.759 4.60555 255.607 4.37527 255.607 4.145L255.759 3.91472C255.911 4.145 255.911 4.37527 256.062 4.60555Z" fill="#0077FF" fill-opacity="0.29"/>
<path d="M19.7322 7.13859C19.7322 7.36886 19.5804 7.59914 19.4286 7.82942L19.2768 7.59914C19.2768 7.36886 19.4286 7.13859 19.4286 6.90831C19.5804 6.90831 19.7322 7.13859 19.7322 7.13859Z" fill="#0077FF" fill-opacity="0.29"/>
<path d="M4.85712 19.3433C5.16069 18.8827 5.31247 18.6525 5.46426 18.4222C5.91962 19.3433 5.46426 19.113 4.85712 19.3433Z" fill="#0077FF" fill-opacity="0.29"/>
<path d="M5.31251 19.113C5.00894 19.5736 4.85716 19.8038 4.70537 20.0341C4.25001 19.3433 4.70537 19.3433 5.31251 19.113Z" fill="#0077FF" fill-opacity="0.29"/>
<path d="M296.589 27.1727C296.286 26.7122 296.134 26.4819 295.982 26.2516C296.589 25.791 296.589 26.4819 296.589 27.1727Z" fill="#0077FF" fill-opacity="0.29"/>
<path d="M11.2322 38.226C11.0804 38.226 10.9286 37.9957 10.7768 37.9957L10.9286 37.7655C11.0804 37.7655 11.2322 37.9957 11.3839 37.9957C11.3839 37.9957 11.3839 37.9957 11.2322 38.226Z" fill="#0077FF" fill-opacity="0.29"/>
<path d="M15.4821 42.371C15.1786 41.9104 15.0268 41.6802 14.875 41.4499C15.3304 40.9893 15.3304 41.6802 15.4821 42.371Z" fill="#0077FF" fill-opacity="0.29"/>
<path d="M15.9375 43.0618C15.4822 43.0618 15.3304 42.8316 15.3304 42.1407C15.7857 42.1407 15.9375 42.371 15.9375 43.0618Z" fill="#0077FF" fill-opacity="0.29"/>
<path d="M15.9375 42.8316C16.2411 43.2921 16.3929 43.5224 16.5446 43.7527C16.0893 44.2132 16.0893 43.5224 15.9375 42.8316Z" fill="#0077FF" fill-opacity="0.29"/>
<path d="M300.687 43.9829C300.536 43.7527 300.536 43.7527 300.384 43.7527C300.536 43.7527 300.687 43.5224 300.839 43.5224L300.991 43.7527C300.991 43.7527 300.839 43.7527 300.687 43.9829Z" fill="#0077FF" fill-opacity="0.29"/>
<path d="M301.143 47.2068C300.839 46.7463 300.687 46.516 300.536 46.2857C300.991 45.5949 300.991 46.516 301.143 47.2068Z" fill="#0077FF" fill-opacity="0.29"/>
<path d="M15.4821 48.3582C15.4821 48.1279 15.6339 47.8977 15.7857 47.6674L15.9375 47.8976C15.9375 48.1279 15.7857 48.3582 15.7857 48.5885C15.6339 48.8188 15.4821 48.5885 15.4821 48.3582Z" fill="#0077FF" fill-opacity="0.29"/>
<path d="M17 51.5821C17 51.8124 17.1518 52.0426 17.1518 52.2729L17 52.5032C17 52.2729 16.8482 52.0426 16.8482 51.8124C16.6964 51.8124 16.8482 51.8124 17 51.5821Z" fill="#0077FF" fill-opacity="0.29"/>
<path d="M0.607143 55.7271C0.303571 55.2665 0.151786 55.0362 0 54.806C0.607143 54.3454 0.455357 55.0362 0.607143 55.7271Z" fill="#0077FF" fill-opacity="0.29"/>
<path d="M3.9464 54.3454C3.64283 54.806 3.49105 55.0362 3.33926 55.2665C3.03569 54.5757 3.49105 54.5757 3.9464 54.3454Z" fill="#0077FF" fill-opacity="0.29"/>
<path d="M0.455383 55.2665C0.758955 55.7271 0.91074 55.9574 1.06253 56.1876C0.607169 56.6482 0.607169 55.9574 0.455383 55.2665Z" fill="#0077FF" fill-opacity="0.29"/>
<path d="M19.2768 62.1748C19.125 62.1748 18.8214 62.1748 18.6696 62.1748C18.6696 61.9446 18.8214 61.484 18.8214 61.484C19.125 61.2537 19.2768 61.7143 19.2768 62.1748Z" fill="#0077FF" fill-opacity="0.29"/>
<path d="M18.5178 62.1748C18.5178 62.8657 18.3661 63.0959 17.9107 63.0959C17.9107 62.4051 18.0625 62.1748 18.5178 62.1748Z" fill="#0077FF" fill-opacity="0.29"/>
<path d="M11.3839 64.7079C11.2322 64.9382 11.2322 64.9382 11.0804 64.9382C11.0804 64.7079 10.9286 64.4776 10.9286 64.2473L11.0804 64.0171C11.2322 64.2473 11.3839 64.4776 11.3839 64.7079Z" fill="#0077FF" fill-opacity="0.29"/>
<path d="M290.062 68.8529C290.366 68.3923 290.518 68.162 290.67 67.9318C290.973 68.8529 290.518 68.6226 290.062 68.8529Z" fill="#0077FF" fill-opacity="0.29"/>
<path d="M276.402 69.5437C276.25 69.5437 276.098 69.3134 275.946 69.3134L276.098 69.0832C276.25 69.0832 276.402 69.3134 276.554 69.3134C276.554 69.3134 276.554 69.5437 276.402 69.5437Z" fill="#0077FF" fill-opacity="0.29"/>
<path d="M283.991 68.6226C283.688 69.0832 283.536 69.3134 283.384 69.5437C282.929 68.8529 283.384 68.8529 283.991 68.6226Z" fill="#0077FF" fill-opacity="0.29"/>
<path d="M291.429 76.452C291.125 76.452 290.821 76.452 290.973 75.7612C290.973 75.5309 291.277 75.5309 291.429 75.5309C291.429 75.7612 291.429 76.2218 291.429 76.452Z" fill="#0077FF" fill-opacity="0.29"/>
<path d="M287.33 87.0448C287.33 87.2751 287.482 87.5053 287.482 87.7356L287.33 87.9659C287.33 87.7356 287.179 87.5053 287.179 87.2751C287.027 87.2751 287.179 87.0448 287.33 87.0448Z" fill="#0077FF" fill-opacity="0.29"/>
<path d="M34.6071 99.0192C34.9107 99.4797 35.0625 99.71 35.2143 99.9403C34.6071 100.631 34.6071 99.71 34.6071 99.0192Z" fill="#0077FF" fill-opacity="0.29"/>
<path d="M42.5 78.5245C42.6518 78.5245 42.8036 78.7548 42.9553 78.7548L42.8036 78.9851C42.6518 78.9851 42.5 78.7548 42.3482 78.7548L42.5 78.5245Z" fill="#0077FF" fill-opacity="0.29"/>
</svg>
