<svg width="320" height="469" viewBox="0 0 320 469" fill="none" xmlns="http://www.w3.org/2000/svg">
<g opacity="0.4">
<path d="M13.3454 208.191C12.6255 209.342 11.9056 210.494 11.3297 211.358C3.9869 221.58 -4.50773 230.795 -14.2982 240.729C-15.594 242.025 -16.8897 243.465 -18.3295 244.761C-26.3922 252.823 -34.5989 261.174 -39.6381 271.108C-41.5098 274.996 -42.0857 277.875 -41.3658 279.747C-40.9339 280.611 -40.358 281.187 -39.4941 281.331C-39.0622 281.475 -38.7742 281.475 -38.3423 281.475C-36.6146 281.475 -34.167 280.611 -31.5754 279.027C-26.2482 275.86 -21.2091 271.828 -16.3138 267.941C-12.2825 264.773 -8.10716 261.462 -3.93183 258.726C13.3454 247.352 24.7196 239.722 30.0467 218.413C31.1985 213.95 31.7744 203.871 28.319 199.552C27.1672 198.112 25.5834 197.392 23.7117 197.392C19.6804 197.68 16.081 203.727 13.3454 208.191ZM24.4316 197.968C26.0154 197.968 27.3112 198.688 28.319 199.984C31.6305 204.303 31.0546 214.094 29.9027 218.413C24.5756 239.578 13.3454 247.064 -3.93183 258.438C-8.25113 261.318 -12.4265 264.486 -16.3138 267.653C-21.2091 271.54 -26.2482 275.428 -31.5754 278.739C-34.7429 280.755 -37.6224 281.475 -39.2062 281.043C-39.9261 280.755 -40.502 280.323 -40.7899 279.603C-41.5098 277.875 -40.9339 274.996 -39.0622 271.252C-34.167 261.462 -25.8163 253.111 -17.8976 245.049C-16.6018 243.609 -15.162 242.313 -13.8662 241.017C-4.21978 231.083 4.41883 221.868 11.7617 211.646C12.3376 210.782 13.0574 209.63 13.7773 208.479C16.3689 204.159 19.9683 198.256 24.1437 198.112C24.2876 197.968 24.2877 197.968 24.4316 197.968Z" fill="#C4C4C4"/>
<path d="M22.1278 184.147C15.7929 185.73 10.3217 194.513 5.85846 201.424C4.27472 203.872 2.83495 206.175 1.53915 207.903C-5.65969 217.117 -13.7224 225.468 -21.4972 233.531C-23.5128 235.69 -26.1044 237.994 -28.84 240.442C-36.9027 247.928 -46.8371 257.143 -49.8606 265.638C-52.4522 272.836 -50.8684 279.603 -49.4287 286.082C-48.2769 291.409 -46.9811 297.025 -47.9889 302.928C-48.5648 306.527 -50.7245 310.126 -53.0281 313.87C-55.7637 318.333 -58.6432 322.94 -58.7872 327.98C-58.7872 329.707 -58.6432 331.291 -58.0673 333.019C-56.1956 338.346 -54.1799 340.794 -51.8763 340.794C-49.5726 340.794 -46.9811 338.346 -43.2377 332.443C-39.6382 326.828 -38.1985 320.205 -36.9027 313.87C-35.4629 307.535 -34.1671 300.912 -30.4237 295.153C-23.5128 284.211 -11.2748 276.292 -0.620499 269.093C0.243362 268.517 1.2512 267.941 2.11506 267.365C19.9682 255.559 34.0779 246.201 40.2689 221.005C41.9967 214.382 41.5647 197.393 34.6538 188.754C31.4864 184.435 27.167 182.995 22.1278 184.147ZM34.2219 189.186C40.2689 196.961 41.5647 213.374 39.693 220.861C33.502 245.769 19.5363 254.983 1.8271 266.789C0.963242 267.365 0.0993767 267.941 -0.908459 268.517C-11.7067 275.572 -23.9448 283.635 -30.9996 294.721C-34.743 300.48 -36.1828 307.247 -37.4786 313.726C-38.7744 320.061 -40.2141 326.54 -43.8136 332.155C-46.2612 336.186 -49.2847 340.218 -51.8763 340.218C-53.892 340.218 -55.6197 337.77 -57.4914 332.875C-58.0673 331.291 -58.3552 329.851 -58.2113 328.124C-58.0673 323.372 -55.1877 318.765 -52.5962 314.302C-50.2925 310.558 -47.9889 306.959 -47.413 303.216C-46.4052 297.313 -47.7009 291.697 -48.8528 286.226C-50.2925 279.459 -51.7323 273.124 -49.2847 266.07C-46.2612 257.719 -36.3268 248.504 -28.408 241.162C-25.6725 238.714 -23.0809 236.266 -21.0652 234.107C-13.2905 226.044 -5.22777 217.693 1.97108 208.479C3.26687 206.751 4.70664 204.447 6.29038 202C10.6097 195.089 16.0808 186.45 22.1278 185.011C23.2797 184.723 24.2875 184.579 25.2953 184.579C28.8948 184.435 31.7743 186.018 34.2219 189.186Z" fill="#C4C4C4"/>
<path d="M28.7509 152.903C25.2954 148.008 22.2719 147.288 19.2484 146.712C17.0887 146.281 14.7851 145.705 12.1935 143.833L12.0495 143.545C4.70671 135.338 -19.9133 108.559 -28.264 108.559C-29.2718 108.559 -29.9917 108.847 -30.5676 109.566C-31.7194 111.006 -31.5755 113.886 -30.4237 118.493C-29.7038 121.229 -22.6489 124.972 -15.3061 128.859C-9.11507 132.171 -2.78008 135.626 -0.62043 138.074C1.25127 140.377 3.84286 143.545 3.69888 144.697C3.69888 144.985 3.26694 145.129 2.69103 145.417C1.39524 145.993 -0.476456 147 0.53138 151.608C1.25127 154.775 3.12297 157.799 5.13865 160.822C6.86637 163.702 8.59409 166.293 9.16999 168.885C11.0417 175.94 -0.62043 188.898 -8.25121 197.536C-10.8428 200.416 -13.0024 202.863 -14.2982 204.735C-19.9133 212.222 -26.8242 218.989 -33.5911 225.612C-46.693 238.57 -60.2269 251.96 -64.9781 270.389C-72.4649 298.032 -73.9047 322.364 -69.5854 342.809C-67.2817 353.751 -59.363 368.869 -51.5883 368.869C-46.837 368.869 -43.2376 363.11 -41.2219 351.736C-33.1592 307.967 -11.1307 293.425 10.0339 279.315C28.8948 266.789 46.748 254.983 54.3787 224.46C57.2583 212.942 52.795 195.089 47.0359 185.298C44.4443 180.979 41.2769 178.387 38.1094 176.084C35.3738 173.924 32.7822 172.052 30.7665 168.885C29.3268 166.581 29.6147 163.99 29.9027 161.254C30.1906 158.375 30.4786 155.495 28.7509 152.903ZM29.9027 169.317C32.0623 172.628 34.6539 174.644 37.5335 176.804C40.557 179.107 43.7245 181.555 46.1721 185.73C51.7872 195.377 56.2505 212.798 53.3709 224.172C45.7401 254.407 28.1749 266.069 9.45795 278.451C-11.9946 292.705 -34.167 307.391 -42.2298 351.592C-44.2454 362.246 -47.4129 367.861 -51.5883 367.861C-58.0672 367.861 -66.1299 354.183 -68.5775 342.521C-72.8968 322.22 -71.4571 298.032 -64.4022 270.677C-59.651 252.535 -46.2611 239.29 -33.3032 226.332C-26.5363 219.709 -19.4814 212.798 -13.8663 205.311C-12.5705 203.439 -10.2669 200.992 -7.81927 198.256C0.531387 188.898 11.7616 176.228 9.88988 168.597C9.16999 165.861 7.44228 163.126 5.71455 160.246C3.84286 157.367 1.97115 154.199 1.25127 151.32C0.387405 147.576 1.6832 146.856 2.979 146.281C3.69888 145.993 4.27479 145.561 4.41876 144.841C4.70672 143.833 3.98683 142.105 -0.0445175 137.354C-2.34815 134.618 -8.82711 131.163 -15.0181 127.852C-21.4971 124.396 -28.9839 120.365 -29.5598 118.061C-30.9995 112.878 -30.5676 110.862 -29.8477 109.998C-29.5598 109.566 -28.9839 109.422 -28.408 109.422C-22.073 109.422 -3.78793 127.276 11.1857 144.121C11.3297 144.265 11.4736 144.409 11.4736 144.409C14.3532 146.569 16.8008 147 18.9604 147.576C21.9839 148.296 24.7195 148.872 27.887 153.479C29.4707 155.639 29.1828 158.375 28.8948 161.11C28.6069 163.99 28.3189 166.869 29.9027 169.317Z" fill="#C4C4C4"/>
<path d="M16.9447 221.725C14.785 221.725 12.7694 224.316 11.1856 226.188C10.8977 226.62 10.6097 226.908 10.3218 227.196C8.88198 228.779 7.58619 230.507 6.14642 232.235C5.28256 233.243 4.41871 234.395 3.55484 235.402L3.41086 235.546C0.531322 239.002 -0.620493 241.161 -0.188563 242.313C-0.0445857 242.601 0.243372 243.033 0.963257 243.177C1.10723 243.177 1.25121 243.177 1.25121 243.177C7.01028 243.033 11.6175 237.85 13.9212 234.682C16.0808 231.659 17.6646 228.492 18.0965 225.9C18.2405 225.324 18.5284 223.164 17.8085 222.157C17.8085 221.869 17.3766 221.725 16.9447 221.725ZM17.8085 225.9C17.2326 228.348 15.7929 231.515 13.6332 234.395C11.4736 237.418 7.01029 242.457 1.53917 242.601V243.033V242.745C1.39519 242.745 1.39518 242.745 1.25121 242.745C0.675298 242.745 0.675307 242.457 0.675307 242.457C0.53133 242.025 0.531322 240.73 4.13074 236.41L4.27473 236.266C5.13859 235.258 6.00244 234.107 6.8663 233.099C8.1621 231.515 9.60187 229.787 11.0416 228.06C11.3296 227.772 11.6175 227.34 11.9055 226.908C13.2013 225.18 15.217 222.732 17.0887 222.732C17.3766 222.732 17.6646 222.876 17.8085 223.02C18.0965 223.308 17.9525 224.748 17.8085 225.9Z" fill="#C4C4C4"/>
<path d="M168.84 367.573C187.989 365.413 208.434 343.241 208.722 324.524C209.154 295.728 192.597 272.836 176.615 250.664C173.88 246.92 171.144 243.033 168.408 239.146L166.825 236.842C159.338 226.044 150.843 213.662 147.964 200.416C145.66 189.186 142.061 162.982 145.948 153.911C148.828 147.288 156.89 143.545 164.809 139.801C170.28 137.21 175.463 134.906 179.063 131.595L179.207 131.451C191.589 120.221 191.589 120.221 199.939 119.933C202.531 119.789 205.698 119.789 210.162 119.357C216.209 118.781 219.664 117.917 222.256 117.341C223.84 116.909 225.135 116.621 226.143 116.621C228.735 116.621 230.894 118.493 238.093 124.54C259.402 142.537 258.97 173.78 258.538 204.015C258.106 242.025 257.53 281.475 300.579 293.857C306.77 295.584 312.817 296.592 318.576 296.592C334.702 296.592 348.524 289.393 358.458 275.716C373 255.703 376.887 224.316 368.104 197.68C347.804 136.346 299.427 101.36 247.308 67.957C199.939 37.5779 154.875 29.2272 116.433 23.7561C113.697 23.3242 110.962 23.1802 108.514 23.1802C92.8205 23.1802 85.4777 31.0989 76.1192 41.1773C72.5198 45.0647 68.7764 48.952 64.1691 53.1274C58.842 57.7346 52.0751 60.9021 45.5961 64.0696C34.9418 69.1088 25.0074 73.86 20.8321 84.3703C12.0495 106.687 33.646 124.252 52.651 139.657C61.4336 146.712 69.7842 153.479 74.6794 160.246C94.1163 186.882 88.2133 231.947 70.6481 257.143C65.177 265.061 54.6666 274.852 43.5804 285.074C25.1514 302.207 4.27472 321.5 0.531322 337.914C-1.1964 345.544 -0.76447 350.872 1.97109 354.327C4.13074 357.063 8.01812 358.502 13.4892 358.502C22.5598 358.502 35.5177 354.759 49.1955 350.872C66.0408 345.976 85.0458 340.505 101.171 340.505C108.946 340.505 115.281 341.657 120.752 344.249C126.943 347.128 132.27 351.16 137.453 355.191C145.948 361.814 153.867 368.005 165.097 368.005C166.393 367.717 167.545 367.717 168.84 367.573ZM121.04 343.385C115.569 340.937 108.946 339.641 101.171 339.641C84.9018 339.641 65.7529 345.113 48.9076 350.008C35.2298 353.895 22.2718 357.639 13.3453 357.639C8.01812 357.639 4.56268 356.343 2.40303 353.751C-0.188558 350.584 -0.476514 345.401 1.10723 338.058C4.70665 321.932 25.5833 302.639 43.8684 285.65C54.9546 275.284 65.6089 265.493 71.08 257.575C88.7892 232.091 94.5483 186.738 75.1114 159.814C70.2162 153.047 61.8655 146.28 52.9389 139.082C34.0779 123.82 12.6254 106.543 21.264 84.6583C25.2954 74.436 35.2298 69.6847 45.7401 64.7895C52.363 61.622 59.1299 58.4545 64.4571 53.7033C69.0643 49.6719 72.8077 45.6406 76.4072 41.7532C85.6217 31.8188 92.9645 24.044 108.37 24.044C110.818 24.044 113.409 24.188 116.145 24.6199C154.587 30.0911 199.651 38.4417 246.732 68.6769C298.708 101.936 346.94 136.922 367.097 198.112C375.735 224.46 371.992 255.559 357.594 275.428C347.804 288.962 334.27 296.016 318.288 296.016C312.673 296.016 306.626 295.153 300.579 293.281C281.43 287.81 269.48 276.436 263.721 258.582C258.538 242.601 258.826 223.02 259.114 204.015C259.546 173.636 259.834 142.105 238.381 123.964C228.159 115.325 227.871 115.181 221.968 116.621C219.376 117.197 215.921 118.061 209.874 118.637C205.41 119.069 202.243 119.213 199.795 119.213C191.157 119.501 191.157 119.501 178.487 130.875L178.343 131.019C174.743 134.186 169.704 136.634 164.377 139.082C156.314 142.825 148.108 146.712 145.084 153.479C141.053 162.694 144.652 189.042 147.1 200.416C149.835 213.806 158.474 226.188 165.961 236.986L167.545 239.29C170.136 243.177 173.016 247.064 175.751 250.808C191.733 272.98 208.146 295.728 207.714 324.236C207.426 342.665 187.269 364.405 168.552 366.565C167.401 366.709 166.105 366.709 164.953 366.709C153.867 366.709 146.092 360.518 137.741 354.039C132.702 350.44 127.375 346.264 121.04 343.385Z" fill="#C4C4C4"/>
<path d="M157.61 446.616C154.011 452.087 149.403 458.998 150.987 463.606C151.563 465.477 153.291 466.917 155.738 467.925C156.17 468.069 156.746 468.213 157.322 468.213C162.937 468.213 171.72 459.574 179.495 452.087C184.39 447.336 189.141 442.729 191.877 441.433C205.266 435.386 223.839 432.507 240.109 429.915C246.588 428.907 252.635 427.899 258.25 426.892C271.064 424.444 283.446 423.148 294.964 423.148C332.83 423.148 364.793 436.826 389.557 463.75C392.292 466.773 396.468 468.357 401.651 468.357C417.92 468.357 445.708 452.519 465.433 423.292C477.239 405.727 494.228 369.877 476.519 326.828C469.464 309.55 458.81 301.488 443.26 301.488C431.454 301.488 417.92 305.807 402.227 310.846C382.934 317.037 361.193 324.092 337.725 324.092C319.44 324.092 302.739 319.917 286.469 311.278C236.365 284.498 234.926 235.834 239.245 196.385C240.973 180.979 238.237 168.885 231.326 161.254C226.431 155.927 219.952 153.047 212.321 153.047C197.924 153.047 179.783 164.278 173.304 185.73C167.113 205.887 181.654 224.316 198.5 245.481C217.504 269.381 238.957 296.592 234.782 332.875C232.766 350.872 226.143 368.149 217.217 378.947C210.45 387.154 204.403 388.018 198.212 388.738C193.316 389.314 188.421 389.889 182.518 393.633C178.055 396.512 176.615 401.264 175.175 406.447C174.167 409.902 173.16 413.646 171 416.669C169.848 418.253 167.832 418.685 165.529 418.973C162.649 419.405 159.482 419.981 157.754 423.724C156.602 426.316 158.186 429.339 159.626 432.219C160.922 434.666 162.217 437.258 161.785 439.274C161.354 440.713 159.626 443.449 157.61 446.616ZM160.202 431.643C158.762 428.763 157.322 426.028 158.33 423.868C159.914 420.557 162.793 420.125 165.529 419.549C167.832 419.117 170.136 418.829 171.432 416.813C173.736 413.646 174.743 410.046 175.751 406.447C177.191 401.552 178.487 396.8 182.806 394.065C188.565 390.465 193.46 389.889 198.212 389.314C204.691 388.45 210.882 387.73 217.792 379.235C226.863 368.149 233.486 350.872 235.502 332.731C239.677 296.161 218.08 268.805 199.075 244.761C182.374 223.74 167.976 205.455 174.023 185.73C180.358 164.71 198.068 153.623 212.177 153.623C219.52 153.623 225.999 156.359 230.606 161.542C237.229 169.029 239.965 180.979 238.237 196.097C233.918 235.834 235.358 284.93 285.894 311.854C302.307 320.637 319.152 324.812 337.581 324.812C361.193 324.812 383.078 317.757 402.371 311.566C417.92 306.527 431.454 302.208 443.116 302.208C458.522 302.208 468.456 309.838 475.511 326.972C493.076 369.589 476.231 405.151 464.569 422.572C445.852 450.648 417.776 467.349 401.507 467.349C396.468 467.349 392.724 465.909 389.989 463.03C364.937 435.962 332.974 422.14 294.676 422.14C283.014 422.14 270.632 423.436 257.674 425.884C252.059 427.036 246.012 427.899 239.533 428.907C223.12 431.499 204.547 434.378 191.013 440.569C188.133 441.865 183.526 446.328 178.343 451.368C170.712 458.854 162.073 467.349 156.746 467.349C156.314 467.349 155.882 467.349 155.45 467.205C153.147 466.341 151.707 465.189 151.131 463.462C149.691 459.142 154.155 452.519 157.61 447.192C159.77 444.025 161.497 441.289 161.929 439.418C162.937 436.826 161.641 434.09 160.202 431.643Z" fill="#C4C4C4"/>
<path d="M270.92 380.531C271.496 380.819 272.216 380.963 272.792 380.963C275.383 380.963 277.831 378.515 280.135 376.212C281.43 374.916 282.582 373.764 283.59 373.188C284.886 372.612 286.038 372.324 287.333 372.324C289.637 372.324 291.509 373.476 293.812 374.628C294.676 375.06 295.396 375.492 296.404 375.924C298.564 376.931 300.723 377.507 302.883 377.507C305.043 377.507 307.058 377.075 309.218 376.5C311.378 375.924 313.681 375.348 316.417 375.348H316.705C322.176 375.348 327.215 378.227 331.966 380.963C336.717 383.698 341.757 386.578 347.228 386.578C349.819 386.578 352.267 386.002 354.859 384.706C356.874 383.698 358.458 382.403 359.754 381.251C362.057 379.379 363.929 377.795 367.241 377.795C368.248 377.795 369.256 377.939 370.408 378.227C379.623 380.387 383.654 388.882 387.685 397.088C389.557 400.976 391.429 404.863 393.876 408.031C398.627 414.366 404.962 417.965 411.441 417.965H411.729C418.208 417.821 424.399 414.222 429.295 407.887C435.774 399.248 447.724 371.028 442.828 357.063C441.389 352.887 438.509 350.296 434.478 349.288C433.038 348.856 431.742 348.712 430.446 348.712C426.271 348.712 423.104 350.584 419.504 352.743C418.64 353.175 417.776 353.751 416.913 354.183C409.57 358.358 402.227 359.222 394.452 360.086C391.429 360.374 388.261 360.806 385.094 361.382C381.494 362.102 378.327 363.254 375.303 364.406C371.272 365.989 367.385 367.429 363.209 367.429C360.33 367.429 357.594 366.709 354.715 365.269C348.812 362.39 342.333 359.654 335.134 359.654C332.83 359.654 330.382 359.942 328.079 360.518C326.927 360.806 325.919 361.094 324.911 361.382C320.736 362.39 316.849 363.398 312.961 363.398C309.794 363.398 306.77 362.678 303.747 361.382L302.451 360.806C296.98 358.358 291.365 355.623 285.606 355.623C282.438 355.623 279.559 356.343 276.679 357.927C273.08 359.942 268.184 368.293 268.328 374.196C267.897 377.363 268.904 379.379 270.92 380.531ZM276.679 358.934C279.415 357.351 282.294 356.631 285.318 356.631C290.933 356.631 296.404 359.222 301.875 361.67L303.171 362.246C306.194 363.686 309.362 364.406 312.673 364.406C316.705 364.406 320.736 363.398 324.911 362.39C325.919 362.102 327.071 361.814 328.079 361.526C330.382 360.95 332.686 360.662 334.99 360.662C342.045 360.662 348.38 363.398 354.283 366.133C357.306 367.573 360.186 368.293 363.065 368.293C367.385 368.293 371.272 366.853 375.447 365.125C378.471 363.974 381.638 362.678 385.094 362.102C388.261 361.526 391.429 361.094 394.452 360.806C402.227 359.942 409.714 359.078 417.201 354.759C418.064 354.183 418.928 353.751 419.792 353.319C423.392 351.16 426.415 349.432 430.446 349.432C431.742 349.432 432.894 349.576 434.334 350.008C438.221 351.016 440.813 353.463 442.109 357.351C447.004 371.172 435.198 398.96 428.719 407.599C423.967 413.79 417.92 417.245 411.729 417.389H411.441C405.25 417.389 399.203 413.934 394.452 407.743C392.149 404.575 390.277 400.832 388.405 396.8C384.374 388.45 380.198 379.811 370.696 377.507C369.544 377.219 368.392 377.075 367.385 377.075C363.929 377.075 361.913 378.803 359.466 380.675C358.026 381.827 356.586 382.979 354.715 383.986C352.267 385.282 349.819 385.858 347.372 385.858C342.189 385.858 337.437 383.266 332.542 380.387C327.647 377.651 322.464 374.772 316.849 374.772H316.561C313.825 374.772 311.378 375.348 309.218 375.924C307.058 376.5 305.186 376.932 303.027 376.932C300.867 376.932 298.995 376.5 296.98 375.492C296.116 375.06 295.252 374.628 294.532 374.196C292.229 372.9 290.213 371.748 287.765 371.748C286.47 371.748 285.174 372.036 283.734 372.756C282.582 373.332 281.43 374.484 279.991 375.924C277.831 378.083 275.527 380.387 273.224 380.387C272.648 380.387 272.216 380.243 271.64 379.955C269.912 378.947 268.904 377.219 268.904 374.628C268.616 368.725 273.512 360.662 276.679 358.934Z" fill="#C4C4C4"/>
<path d="M178.055 431.499C178.919 431.787 180.646 431.931 182.662 431.931C186.981 431.931 203.251 431.211 228.591 422.86C249.755 415.805 274.519 412.062 298.419 412.062C337.581 412.062 363.641 417.965 397.188 450.072C399.635 452.375 402.803 453.527 406.69 453.527C421.232 453.527 443.26 437.69 456.938 417.389C467.592 401.552 482.998 369.301 467.016 330.571C460.105 314.014 451.611 311.71 443.26 311.71C433.038 311.71 420.224 315.885 405.394 320.637C385.381 327.115 362.777 334.314 337.725 334.314C317.712 334.314 299.427 329.707 281.574 320.205C225.423 290.257 224.703 234.394 229.023 195.089C230.318 182.851 228.447 173.204 223.695 167.877C220.816 164.71 216.929 162.982 212.321 162.982C201.667 162.982 188.277 171.764 183.094 188.322C178.487 203.439 191.445 219.709 206.562 238.714C225.711 262.902 249.611 293.137 245.004 333.594C243.708 345.113 240.541 356.199 235.79 366.277C228.159 382.403 218.224 396.08 205.986 407.023C197.924 414.222 189.861 419.261 183.958 422.86C178.631 426.172 175.319 428.187 175.607 429.771C175.751 430.491 176.471 431.067 178.055 431.499ZM184.246 423.292C190.149 419.693 198.212 414.653 206.274 407.455C218.512 396.512 228.591 382.835 236.221 366.565C240.973 356.343 244.14 345.257 245.436 333.738C250.043 293.137 226.143 262.902 206.85 238.57C191.877 219.709 179.063 203.439 183.526 188.61C188.565 172.196 201.811 163.558 212.321 163.558C216.929 163.558 220.672 165.141 223.407 168.309C228.159 173.492 229.886 182.995 228.591 195.089C224.271 234.538 224.991 290.545 281.43 320.637C299.283 330.139 317.712 334.746 337.725 334.746C362.921 334.746 385.525 327.403 405.538 320.924C420.368 316.173 433.038 311.998 443.26 311.998C451.323 311.998 459.818 314.302 466.584 330.715C482.422 369.157 467.016 401.264 456.506 417.101C443.26 436.97 420.944 453.095 406.69 453.095C402.947 453.095 399.779 451.943 397.476 449.784C381.206 434.234 366.089 424.3 349.819 418.685C335.853 413.79 320.448 411.774 298.419 411.774C274.519 411.774 249.755 415.661 228.447 422.716C203.107 431.067 186.981 431.787 182.662 431.787C180.646 431.787 178.919 431.643 178.055 431.499C176.759 431.211 176.039 430.779 175.895 430.203C175.895 428.475 179.351 426.316 184.246 423.292Z" fill="#C4C4C4"/>
<path d="M212.321 172.916C204.547 172.916 196.052 180.691 193.317 187.746C191.445 192.353 192.885 200.272 197.06 209.054C200.947 217.261 206.274 223.452 210.162 224.604C210.738 224.748 211.314 224.892 211.89 224.892C212.609 224.892 213.185 224.748 213.761 224.604C218.8 222.876 218.656 219.853 218.368 213.086C218.224 208.91 217.937 203.295 218.8 195.52C219.952 185.01 218.368 177.091 216.065 174.644C215.633 173.636 214.625 172.916 212.321 172.916ZM218.368 195.232C217.505 203.151 217.649 208.766 217.937 212.942C218.224 219.709 218.225 222.156 213.761 223.74C212.753 224.172 211.602 224.172 210.45 223.74C206.706 222.588 201.667 216.541 197.78 208.478C193.604 199.984 192.309 192.209 194.036 187.746C196.772 180.979 204.979 173.348 212.321 173.348C214.337 173.348 215.201 173.924 215.777 174.644C217.937 177.235 219.376 185.01 218.368 195.232Z" fill="#C4C4C4"/>
<path d="M254.363 396.656C255.658 396.656 257.386 396.513 259.402 396.369C260.266 396.225 281.142 393.921 303.603 393.921C312.385 393.921 320.16 394.353 326.783 394.929C359.898 398.528 388.549 414.222 402.227 428.331C404.818 430.923 407.698 432.219 411.153 432.219C418.784 432.219 428.287 425.596 437.069 413.934C452.475 393.489 457.226 354.471 449.451 339.21C447.436 335.178 444.556 333.019 441.244 333.019C440.957 333.019 440.669 333.019 440.381 333.019C434.334 333.595 425.983 336.042 415.329 339.21C395.46 345.113 368.104 353.031 338.589 353.463C313.393 353.895 284.454 343.817 274.663 339.066C271.496 337.482 269.336 336.762 267.896 336.762C265.017 336.762 264.873 339.498 264.585 344.105C264.441 347.704 264.153 352.743 262.425 358.503C259.114 368.869 255.514 376.788 252.779 382.547C249.755 388.882 248.028 392.769 249.323 394.785C250.043 396.225 251.627 396.656 254.363 396.656ZM253.211 382.979C255.946 377.22 259.546 369.301 262.857 358.791C264.729 353.031 264.873 347.992 265.017 344.249C265.161 339.786 265.305 337.194 267.896 337.194C269.192 337.194 271.352 337.914 274.375 339.354C284.022 344.105 312.097 353.751 337.005 353.751C337.437 353.751 338.013 353.751 338.445 353.751C368.104 353.319 395.316 345.257 415.329 339.354C425.983 336.186 434.334 333.739 440.381 333.163C443.98 332.731 446.86 334.746 449.019 339.066C456.65 354.327 451.899 393.057 436.637 413.358C427.855 424.876 418.64 431.499 411.009 431.499C407.698 431.499 404.818 430.203 402.371 427.755C388.549 413.646 359.898 397.808 326.639 394.209C320.016 393.489 312.241 393.201 303.459 393.201C280.998 393.201 260.122 395.505 259.258 395.649C257.242 395.937 255.658 395.937 254.363 395.937C251.771 395.937 250.331 395.505 249.611 394.497C248.459 393.057 250.331 389.314 253.211 382.979Z" fill="#C4C4C4"/>
<path d="M222.112 413.213C223.408 413.213 225.135 412.925 227.007 412.206C247.164 405.151 270.488 401.839 298.42 401.839C333.262 401.839 367.673 405.007 406.834 443.593C407.986 444.744 409.426 445.32 411.298 445.32C422.24 445.32 442.541 424.3 448.444 411.63C449.02 410.478 449.595 409.326 450.171 408.03C457.802 392.337 470.616 366.133 457.514 334.458C452.331 321.788 447.436 321.788 443.116 321.788C434.478 321.788 422.384 325.676 408.418 330.139C387.685 336.762 364.361 344.392 337.725 344.392C314.977 344.392 296.404 340.217 277.831 330.859C274.951 329.419 272.216 327.835 269.768 326.395C264.873 323.516 260.986 321.356 258.538 321.356C256.666 321.356 255.659 322.652 255.659 325.532C255.659 325.963 255.659 326.683 255.803 327.691C258.394 355.047 247.884 380.531 224.416 403.567C220.24 407.598 218.512 410.478 219.232 412.206C219.52 412.782 220.528 413.213 222.112 413.213ZM224.703 403.567C239.821 388.737 249.755 372.756 254.219 355.911C257.818 342.377 256.81 331.867 256.378 327.403C256.234 326.395 256.234 325.676 256.234 325.244C256.234 321.932 257.674 321.5 258.682 321.5C260.986 321.5 265.017 323.804 269.768 326.539C272.216 327.979 274.951 329.563 277.831 331.003C296.548 340.505 314.977 344.68 337.869 344.68C364.649 344.68 388.117 337.05 408.706 330.427C422.672 325.963 434.766 322.076 443.26 322.076C447.436 322.076 452.187 322.076 457.226 334.458C470.184 365.989 457.514 392.193 449.883 407.742C449.307 409.038 448.588 410.19 448.156 411.342C442.253 423.868 422.096 444.744 411.298 444.744C409.57 444.744 408.274 444.168 407.266 443.161C389.125 425.308 370.264 413.501 349.675 407.31C331.39 401.839 314.401 401.263 298.564 401.263C270.632 401.263 247.164 404.719 227.007 411.63C225.279 412.206 223.552 412.638 222.256 412.638C221.248 412.638 220.096 412.494 219.664 411.486C219.232 410.766 219.376 408.606 224.703 403.567Z" fill="#C4C4C4"/>
<path d="M131.838 265.637C130.83 264.774 129.966 264.342 129.247 264.342C127.231 264.342 125.791 266.933 123.631 270.821C121.472 274.852 118.448 280.323 113.121 285.938L111.537 287.522C105.49 293.857 102.755 296.736 103.475 298.32C103.763 299.04 104.771 299.328 106.498 299.328C107.938 299.328 110.242 299.04 113.985 298.608C115.569 298.464 117.009 298.32 118.592 298.32C131.118 298.32 141.485 305.375 149.115 310.414C153.579 313.438 157.034 315.741 159.626 315.741C160.634 315.741 161.497 315.31 162.217 314.446C170.136 304.367 142.204 275.14 131.838 265.637ZM161.641 314.158C161.065 314.878 160.49 315.166 159.626 315.166C157.322 315.166 153.867 312.862 149.547 309.982C141.917 304.799 131.406 297.744 118.592 297.744C117.009 297.744 115.425 297.888 113.841 298.032C110.242 298.608 107.938 298.752 106.498 298.752C105.058 298.752 104.339 298.608 104.195 298.176C103.763 297.024 107.074 293.569 112.113 288.098L113.697 286.514C119.024 280.899 122.048 275.284 124.351 271.253C126.367 267.653 127.663 265.206 129.247 265.206C129.822 265.206 130.542 265.637 131.406 266.357C144.22 277.875 168.696 305.087 161.641 314.158Z" fill="#C4C4C4"/>
<path d="M132.126 277.731C127.087 277.731 120.608 285.65 120.608 289.394C120.608 290.977 121.616 291.841 123.2 291.841C130.687 291.985 138.461 296.736 144.22 300.048C147.676 302.064 150.123 303.503 151.563 303.503C151.995 303.503 152.427 303.359 152.715 303.071C153.003 302.783 153.147 302.207 153.147 301.344C152.571 294.433 139.469 280.611 134.142 277.875C133.422 277.875 132.702 277.731 132.126 277.731ZM151.995 301.632C151.995 302.207 151.995 302.495 151.851 302.495C151.851 302.495 151.707 302.639 151.563 302.639C150.411 302.639 147.82 301.056 144.796 299.328C139.037 295.873 130.974 290.977 123.344 290.977C122.192 290.977 121.76 290.545 121.76 289.538C121.76 286.226 127.807 278.883 132.27 278.883C132.846 278.883 133.278 279.027 133.71 279.171C139.181 281.907 151.419 295.441 151.995 301.632Z" fill="#C4C4C4"/>
<path d="M114.273 147.144C115.569 147.144 116.433 145.417 117.441 141.529C121.04 126.844 132.99 107.407 151.563 97.0403C170.28 86.53 182.806 83.7944 189.573 82.3547C192.884 81.6348 194.612 81.2028 195.044 80.339C195.188 80.051 195.188 79.6191 194.9 79.1872C193.604 76.8835 170.424 63.7816 136.877 61.1901L135.438 61.0461C132.414 60.7581 129.823 60.6141 127.375 60.6141C118.592 60.6141 111.681 63.0617 95.2681 76.8835C92.6765 79.0432 90.0849 81.0589 87.4933 83.0745C79.5746 89.1216 72.6637 94.4487 73.0956 100.352C73.3836 104.959 77.9908 109.422 87.3493 114.605C97.7157 120.365 104.051 131.739 108.226 139.226C110.818 143.977 112.545 147.144 114.273 147.144ZM87.4933 114.174C78.4228 109.134 73.8155 104.527 73.3836 100.208C72.9517 94.4487 79.7186 89.2656 87.4933 83.2185C90.0849 81.2028 92.6765 79.1872 95.2681 77.0275C111.537 63.2057 118.592 60.7581 127.087 60.7581C129.535 60.7581 132.126 60.9021 135.15 61.1901L136.589 61.334C169.272 63.9256 193.028 76.8835 194.18 79.1872C194.468 79.6191 194.324 79.907 194.324 80.051C194.036 80.7709 192.165 81.0589 189.285 81.7788C182.518 83.2185 169.992 85.9541 151.131 96.4644C132.414 106.831 120.464 126.412 116.865 141.241C116.001 144.841 115.137 146.568 114.129 146.568C112.689 146.568 110.818 143.113 108.37 138.938C104.339 131.451 98.0036 119.933 87.4933 114.174Z" fill="#C4C4C4"/>
<path d="M117.009 171.908C118.305 171.908 119.168 170.469 119.744 167.157C123.488 147.288 131.55 119.213 158.618 104.239C166.969 99.6319 176.471 95.8885 187.558 93.009C189.717 92.4331 192.165 90.8494 194.468 89.2656C197.492 87.2499 200.515 85.2343 203.395 85.2343C203.683 85.2343 204.115 85.2343 204.403 85.3782C205.987 85.6662 207.138 86.5301 208.29 87.5379C209.586 88.5457 210.882 89.5536 212.465 89.5536C213.041 89.5536 213.761 89.4096 214.481 89.1216C215.633 88.6897 216.353 87.6819 216.929 86.818C217.793 85.5222 218.656 84.3704 221.104 84.5144C223.552 84.6584 224.848 86.5301 226.287 88.5457C227.295 89.9855 228.303 91.2813 229.743 92.1452C230.751 92.7211 232.622 93.297 234.35 93.297C235.502 93.297 236.366 93.009 236.798 92.4331C237.23 91.8572 237.374 90.9933 237.086 89.9855C236.078 86.5301 228.879 83.3626 223.984 81.3469C222.544 80.771 221.392 80.1951 220.528 79.7631C213.329 76.0197 206.274 72.7083 200.083 70.1167C174.6 58.8865 151.275 52.1196 128.959 49.24C126.511 48.9521 124.208 48.8081 122.336 48.8081C111.394 48.8081 102.755 53.5593 85.9098 69.3968C81.7345 73.2842 77.4152 76.5956 73.3838 79.7631C64.1693 86.962 56.8265 92.7211 56.9705 99.7759C57.1144 105.391 62.0097 111.438 72.376 118.781C89.0773 130.443 100.164 148.296 107.506 160.102C111.826 167.013 114.849 171.908 117.009 171.908ZM72.376 118.205C62.1536 111.006 57.2584 105.103 57.1144 99.6319C56.9705 92.7211 64.1693 87.106 73.3838 79.9071C77.5592 76.7396 81.8785 73.2842 86.0538 69.5408C102.899 53.8473 111.394 49.0961 122.192 49.0961C124.208 49.0961 126.367 49.24 128.815 49.528C151.131 52.4075 174.312 59.1745 199.796 70.2607C205.843 72.8523 213.041 76.1637 220.096 79.9071C220.96 80.3391 222.112 80.9149 223.552 81.4909C228.303 83.5065 235.502 86.674 236.366 89.8415C236.654 90.7054 236.51 91.4253 236.222 91.8572C235.79 92.4331 234.782 92.5771 234.206 92.5771C232.766 92.5771 230.895 92.0012 229.887 91.4253C228.591 90.7054 227.583 89.2656 226.575 87.9698C225.135 85.9541 223.696 83.9385 221.104 83.7945C218.369 83.5065 217.505 84.9463 216.641 86.2421C216.065 87.106 215.489 87.9698 214.337 88.4017C213.617 88.6897 213.041 88.8337 212.465 88.8337C210.882 88.8337 209.73 87.9698 208.578 86.962C207.426 86.0981 206.131 85.0903 204.403 84.8023C204.115 84.8023 203.683 84.6584 203.395 84.6584C200.371 84.6584 197.204 86.818 194.18 88.8337C191.733 90.4174 189.573 92.0012 187.414 92.5771C176.327 95.4566 166.825 99.2 158.474 103.807C131.263 118.925 123.056 147.144 119.312 167.013C118.737 169.893 118.017 171.332 117.009 171.332C115.137 171.332 111.97 166.437 107.65 159.526C100.308 147.72 89.0773 130.011 72.376 118.205Z" fill="#C4C4C4"/>
<path d="M170.136 352.455C179.927 351.304 189.285 344.537 193.748 335.178C197.924 326.683 200.083 312.142 187.269 291.697C181.798 282.914 175.751 273.988 169.992 265.349C153.435 240.729 137.741 217.549 131.406 194.225C124.063 167.877 129.967 146.136 149.835 125.836C167.113 108.271 189.861 98.1922 212.321 98.1922C229.167 98.1922 244.284 104.095 254.794 114.893C266.313 126.7 272.072 144.121 271.352 164.997C271.208 169.893 270.92 174.932 270.776 180.259C269.912 199.12 268.904 220.572 271.928 238.426C275.383 258.87 283.734 271.54 297.412 277.155C304.754 280.179 311.665 281.619 318 281.619C329.519 281.619 339.309 276.579 346.364 267.077C358.314 250.952 361.193 223.164 353.563 198.112C337.005 144.265 297.412 112.158 238.669 77.7475C194.036 51.6876 156.458 43.4809 122.336 38.7297C119.744 38.4418 117.441 38.1538 115.137 38.1538C100.883 38.1538 94.1163 45.3526 85.6217 54.5672C82.3102 58.0226 78.9987 61.766 74.6794 65.5094C69.7842 69.8287 65.6089 72.4203 61.8655 74.7239C55.8184 78.4673 50.6353 81.6348 45.0202 90.1294C33.646 107.119 48.9075 117.485 64.889 128.427C73.3836 134.186 82.1662 140.233 86.7735 147.288C116.289 191.921 104.339 239.577 83.462 269.381C77.415 277.875 68.7764 285.938 59.4179 294.433C48.0437 304.799 36.3816 315.597 29.6147 327.547C26.7351 332.73 25.8712 336.186 27.167 338.202C28.0309 339.641 30.0466 340.361 33.0701 340.361C38.5412 340.361 47.3238 338.058 57.5462 335.466C71.7999 331.723 89.509 327.115 105.203 327.115C113.553 327.115 120.608 328.411 126.367 331.003C132.126 333.594 136.877 337.338 141.629 340.937C149.259 346.984 156.602 352.599 166.825 352.599C167.976 352.743 168.984 352.599 170.136 352.455ZM126.511 330.715C120.608 327.979 113.697 326.684 105.203 326.684C89.509 326.684 71.6559 331.291 57.4022 335.034C47.3238 337.626 38.5412 339.929 33.0701 339.929C30.1906 339.929 28.3189 339.209 27.455 337.914C26.3032 336.042 27.167 332.587 29.9026 327.691C36.5255 315.741 48.3316 305.087 59.5618 294.721C68.7764 286.226 77.5589 278.163 83.606 269.669C95.844 252.247 103.187 232.379 104.627 212.222C106.21 189.186 100.307 167.301 87.0614 147.144C82.3102 139.945 73.5276 133.898 65.033 128.139C49.1955 117.341 34.2219 106.975 45.3081 90.4174C50.9232 81.9228 56.1064 78.7553 62.0094 75.1559C65.7528 72.8522 70.0721 70.2607 74.9674 65.9414C79.1427 62.198 82.5981 58.5985 85.9096 54.9991C94.4043 45.9286 101.171 38.7297 115.137 38.7297C117.297 38.7297 119.744 38.8737 122.192 39.3056C156.17 44.0569 193.748 52.1196 238.381 78.3233C296.98 112.734 336.573 144.697 353.131 198.4C360.762 223.308 357.882 250.952 346.076 267.077C339.165 276.436 329.375 281.475 318 281.475C311.665 281.475 304.898 280.035 297.556 277.011C284.022 271.54 275.815 259.014 272.36 238.57C269.336 220.716 270.344 199.408 271.208 180.403C271.496 175.076 271.64 170.037 271.784 165.141C272.36 144.121 266.601 126.556 255.082 114.606C244.572 103.663 229.311 97.7602 212.321 97.7602C189.717 97.7602 166.825 107.839 149.547 125.548C139.037 136.346 132.414 147.432 129.535 159.526C126.943 170.325 127.375 181.699 130.974 194.225C137.453 217.549 153.147 240.873 169.704 265.493C175.463 274.132 181.51 282.915 186.981 291.841C199.651 312.142 197.492 326.539 193.46 334.89C188.997 344.105 179.927 350.728 170.136 351.879C168.984 352.023 167.976 352.023 166.825 352.023C156.746 352.023 149.547 346.408 141.917 340.505C137.165 337.05 132.27 333.306 126.511 330.715Z" fill="#C4C4C4"/>
<path d="M179.639 334.602C183.382 331.867 185.686 327.979 186.262 323.228C187.989 309.118 175.463 288.386 164.089 274.996C149.979 258.295 136.014 240.441 129.247 223.164C128.959 222.3 128.383 219.853 127.807 216.829C125.647 206.607 121.904 189.474 116.577 189.474C116.145 189.474 115.569 189.618 115.137 189.906C112.977 191.201 112.257 193.793 113.121 197.824C113.841 201.136 115.425 204.879 116.865 208.191C118.449 211.646 119.744 214.814 119.744 216.541C119.744 221.005 117.585 222.876 115.569 224.892C113.985 226.332 112.401 227.915 111.826 230.507C111.106 233.962 112.545 236.554 113.841 239.002C115.137 241.305 116.433 243.609 116.001 246.776C115.281 252.392 97.4279 272.692 81.7344 290.545C68.7765 305.375 57.5463 318.189 57.6903 320.637C57.6903 320.781 57.8342 320.924 57.8342 321.068C58.8421 321.932 60.8578 322.364 63.8813 322.364C68.4885 322.364 74.9675 321.356 82.4543 320.061C91.5248 318.621 101.891 316.893 110.818 316.893C117.729 316.893 123.056 317.901 126.799 319.917C128.815 321.068 131.118 322.364 133.566 323.804C144.364 329.995 157.61 337.77 168.984 337.77C173.016 337.914 176.615 336.762 179.639 334.602ZM126.799 319.629C122.912 317.613 117.729 316.605 110.674 316.605C101.747 316.605 91.3809 318.189 82.3103 319.773C74.8235 320.925 68.3446 322.076 63.7373 322.076C60.8578 322.076 58.9861 321.644 57.9782 320.781C57.9782 320.781 57.9782 320.781 57.9782 320.637C57.8342 318.333 69.4964 305.087 81.8784 290.833C97.5719 272.836 115.569 252.536 116.289 246.776C116.721 243.609 115.425 241.161 114.129 238.714C112.689 236.122 111.394 233.819 112.114 230.507C112.689 227.915 114.129 226.62 115.713 225.036C117.729 223.02 119.888 221.005 120.032 216.397C120.032 214.526 118.736 211.502 117.153 207.903C115.713 204.591 114.129 200.848 113.409 197.68C112.545 193.937 113.121 191.489 115.137 190.194C115.569 189.906 116.001 189.762 116.433 189.762C121.472 189.762 125.215 207.327 127.231 216.829C127.951 219.997 128.383 222.3 128.815 223.164C135.726 240.441 149.691 258.295 163.801 274.996C175.031 288.242 187.557 308.83 185.83 322.796C185.254 327.547 183.094 331.291 179.495 333.882C176.615 336.042 173.016 337.05 168.84 337.05C157.61 337.05 144.364 329.275 133.71 323.084C131.118 322.076 128.815 320.781 126.799 319.629Z" fill="#C4C4C4"/>
<path d="M174.599 316.605C175.895 304.799 163.225 286.082 156.89 279.027C145.948 266.645 138.317 256.135 133.278 249.224C128.239 242.313 125.503 238.57 123.776 238.57C122.48 238.57 121.904 240.153 121.472 244.041C118.304 273.412 99.2996 289.25 88.0694 298.752C83.1741 302.927 79.8627 305.663 79.7187 307.967C79.7187 308.686 79.8627 309.262 80.4386 309.694C81.4464 310.846 83.1741 311.278 85.6218 311.278C88.3573 311.278 91.9567 310.558 95.9881 309.838C101.315 308.83 107.362 307.823 113.409 307.823C121.76 307.823 128.527 309.982 134.142 314.158C141.917 320.205 153.435 326.684 162.505 326.684C165.817 326.684 168.552 325.82 170.856 324.236C172.872 322.364 174.312 319.773 174.599 316.605ZM162.217 326.108C153.291 326.108 141.917 319.629 134.142 313.726C128.527 309.406 121.616 307.247 113.265 307.247C107.074 307.247 101.027 308.398 95.7001 309.262C91.6688 309.982 88.0694 310.702 85.3338 310.702C83.0302 310.702 81.4464 310.27 80.4386 309.262C80.0066 308.83 79.8627 308.398 79.8627 307.823C80.0067 305.807 83.3181 302.927 88.0694 298.896C99.4435 289.394 118.448 273.412 121.616 243.897C122.048 240.441 122.624 238.858 123.488 238.858C125.071 238.858 127.951 242.889 132.702 249.368C137.741 256.279 145.372 266.933 156.314 279.171C162.649 286.226 175.319 304.799 174.024 316.461C173.736 319.629 172.296 322.076 170.136 323.66C168.121 325.244 165.385 326.108 162.217 326.108Z" fill="#C4C4C4"/>
<path d="M297.7 198.112C296.26 220.573 302.739 236.122 309.218 243.177C312.241 246.344 315.553 248.072 318.432 248.072C322.608 248.072 325.775 244.761 327.359 238.858C337.149 200.272 303.747 159.67 299.571 156.215C298.419 155.207 297.556 155.063 296.98 155.639C295.972 156.647 296.26 160.102 296.836 166.437C297.556 173.78 298.563 185.01 297.7 198.112ZM297.556 156.215C297.7 156.071 297.7 156.071 297.844 156.071C297.988 156.071 298.42 156.215 299.139 156.791C303.171 160.102 336.429 200.416 326.639 238.57C325.199 244.185 322.32 247.352 318.432 247.352C315.697 247.352 312.529 245.625 309.65 242.601C303.171 235.69 296.836 220.429 298.276 198.112C299.139 184.866 298.132 173.78 297.556 166.293C297.124 160.966 296.836 156.935 297.556 156.215Z" fill="#C4C4C4"/>
<path d="M286.614 196.816C284.886 218.701 289.205 236.41 298.708 246.632C303.747 251.959 309.794 254.983 315.841 254.983C324.623 254.983 331.534 248.936 333.55 239.577C339.597 212.222 330.239 187.458 321.312 171.62C310.802 153.047 297.412 139.801 290.933 135.482C288.629 133.898 286.901 132.891 285.894 132.891C285.462 132.891 285.174 133.034 285.03 133.322C284.166 134.33 284.598 136.922 285.174 142.249C286.47 151.464 288.629 169.029 286.614 196.816ZM285.318 133.466C285.462 133.322 285.606 133.178 285.894 133.178C286.757 133.178 288.485 134.186 290.645 135.626C305.187 145.416 344.06 189.761 333.118 239.289C331.102 248.504 324.335 254.407 315.697 254.407C309.65 254.407 303.747 251.527 298.852 246.2C289.493 235.978 285.174 218.413 286.757 196.816C288.917 169.029 286.614 151.464 285.462 142.105C285.03 137.21 284.742 134.33 285.318 133.466Z" fill="#C4C4C4"/>
<path d="M278.263 198.256C276.535 225.468 281.862 246.92 292.948 258.726C298.707 264.773 305.618 268.085 313.105 268.085C327.359 268.085 339.453 256.567 343.196 239.433C348.667 214.094 343.916 189.186 329.23 165.429C314.257 141.241 293.524 125.692 282.438 118.493C276.823 114.893 274.375 113.31 273.511 114.462C272.791 115.325 273.223 118.061 274.231 123.244C276.247 134.33 280.71 157.799 278.263 198.256ZM273.799 114.606C273.943 114.462 274.087 114.462 274.375 114.462C275.527 114.462 278.119 116.045 282.294 118.781C319.008 142.681 354.282 186.882 342.908 239.29C339.165 256.279 327.359 267.653 313.249 267.653C305.906 267.653 298.995 264.485 293.38 258.438C282.294 246.776 277.255 225.324 278.839 198.256C281.286 157.799 276.823 134.33 274.663 122.956C273.655 118.205 273.079 115.325 273.799 114.606Z" fill="#C4C4C4"/>
<path d="M112.545 107.839C116.577 107.839 119.6 103.951 122.624 98.0483C128.095 87.682 139.469 82.7868 145.66 80.0512C148.827 78.7554 149.979 78.1795 149.835 77.3157C149.691 76.5958 148.971 76.3078 144.652 76.0199C131.838 75.156 103.331 87.2501 100.019 96.4646C99.2994 98.6242 99.8753 100.496 101.603 102.08C106.498 106.111 109.81 107.839 112.545 107.839ZM100.883 96.8965C103.907 88.5459 130.542 77.0277 143.212 77.0277C143.644 77.0277 144.076 77.0277 144.508 77.0277C146.956 77.1717 148.108 77.3157 148.54 77.4596C147.964 77.8916 146.524 78.4675 145.228 79.0434C139.037 81.7789 127.375 86.8181 121.76 97.4724C118.16 104.095 115.569 106.831 112.545 106.831C109.954 106.831 106.93 105.103 102.179 101.216C100.739 100.064 100.307 98.6242 100.883 96.8965Z" fill="#C4C4C4"/>
<path d="M125.071 107.407C134.862 89.5535 152.859 83.3625 167.257 79.9071C168.696 79.6191 168.84 78.8992 168.696 78.4673C168.408 75.5878 154.731 69.9727 134.43 69.9727C132.126 69.9727 129.823 69.9727 127.519 70.1166C118.304 70.6925 96.42 83.6505 88.5013 93.153C86.4856 95.6006 85.4778 97.7602 85.7657 99.344C86.3416 103.375 89.7971 105.103 93.9724 107.119C98.2917 109.278 103.187 111.726 105.635 117.485C107.074 120.797 108.802 122.524 111.106 122.524C114.993 122.38 119.6 117.341 125.071 107.407ZM106.354 117.197C103.907 111.294 98.8676 108.702 94.4043 106.543C90.5169 104.527 87.0615 102.943 86.6296 99.344C86.4856 98.0482 87.3495 96.0325 89.2212 93.7288C96.9959 84.2264 118.592 71.5564 127.663 70.9805C129.967 70.8365 132.27 70.8365 134.574 70.8365C154.443 70.8365 167.833 76.3076 168.121 78.6113C168.121 79.0432 167.545 79.1872 167.257 79.3312C152.571 82.7866 134.43 89.1216 124.496 107.263C116.145 122.092 109.954 125.692 106.354 117.197Z" fill="#C4C4C4"/>
<path d="M314.545 230.795C315.265 230.795 315.985 230.219 316.561 229.211C319.296 223.884 319.296 205.743 311.809 194.657C310.801 193.217 309.506 193.361 308.354 195.232C305.618 199.984 304.323 215.389 311.953 228.635C312.817 230.075 313.681 230.795 314.545 230.795ZM309.218 195.808C309.65 195.232 309.938 194.801 310.226 194.801C310.513 194.801 310.801 195.088 310.801 195.376C317.856 206.031 318.144 223.884 315.409 228.923C315.121 229.643 314.689 229.931 314.257 229.931C313.825 229.931 313.249 229.355 312.673 228.347C305.618 215.389 306.626 200.272 309.218 195.808Z" fill="#C4C4C4"/>
<path d="M167.401 386.434C188.853 383.986 214.337 358.502 221.248 339.066C233.198 305.231 212.033 278.019 191.589 251.672C171.864 226.332 153.291 202.288 162.361 173.06C170.28 147.576 195.764 133.899 215.777 133.899C226.575 133.899 235.79 137.786 241.981 144.697C249.323 152.903 252.203 165.429 250.331 180.835C243.852 233.818 241.981 291.841 301.155 308.974C307.922 310.99 314.689 311.998 321.024 311.998C345.932 311.998 361.769 297.744 370.696 285.794C387.829 262.902 393.732 228.491 385.526 200.416C378.471 176.516 364.649 153.479 343.196 129.723C311.377 94.4488 268.04 64.0697 210.594 37.0021L208.146 35.8502C183.958 24.4761 159.05 12.67 132.846 6.191C131.262 5.75907 129.535 5.32714 127.663 4.89521C119.6 2.73555 109.378 0 100.739 0C97.2838 0 94.2603 0.431922 91.8127 1.29578C88.0693 2.59158 85.9096 5.18316 83.8939 7.63077C82.3102 9.50247 80.8704 11.3742 78.5668 12.8139C77.127 13.6778 74.2475 14.8296 71.224 15.9814C66.3288 17.8531 61.2896 19.8688 59.7058 21.5965C56.6823 25.196 57.5462 27.3556 58.266 29.5153C58.8419 30.955 59.4178 32.3948 58.698 34.5545L58.1221 36.2822C53.8027 49.0961 53.8027 49.0961 43.7244 51.9756C41.8527 52.5516 39.4051 53.2714 36.5255 54.1353C28.1749 56.7269 24.8634 60.9022 21.5519 64.7896C18.9603 67.8131 16.6567 70.6926 12.1934 72.9963C12.0495 72.9963 11.9055 72.9963 11.7615 72.9963C6.57833 72.9963 -32.7274 75.5879 -35.7509 85.2343C-36.6147 87.8259 -34.743 90.7054 -30.5677 93.585C-25.2406 97.3284 -21.0652 97.7603 -18.4737 97.7603C-17.1779 97.7603 -16.026 97.6163 -15.0182 97.4724C-14.0104 97.3284 -13.1465 97.3284 -12.2826 97.3284C-9.11515 97.3284 -5.94766 98.1922 -1.48438 108.991C-0.476536 111.582 0.387318 113.886 1.1072 115.613C4.56265 124.54 4.56265 124.684 13.2013 128.283C15.3609 129.147 17.9525 130.299 21.4079 131.883C32.4942 137.066 34.7978 142.825 37.6773 150.168C39.2611 154.055 40.9888 158.519 44.1563 163.414C47.6117 168.741 51.7871 173.06 55.6745 177.092C62.7293 184.434 69.3523 191.345 71.5119 202.863C75.1113 222.876 64.3131 242.025 52.075 259.734C46.172 268.373 33.9339 278.307 20.832 288.818C-1.19642 306.815 -26.1044 327.116 -26.2484 345.976C-26.2484 356.775 -23.5128 364.981 -18.0417 370.453C-11.9947 376.5 -2.92415 379.379 9.74582 379.379C28.1749 379.379 50.9232 373.188 70.936 367.717C86.7735 363.398 100.307 359.654 109.09 359.654C111.106 359.654 112.689 359.798 113.985 360.23C122.336 362.678 129.103 368.005 135.438 373.188C143.932 379.955 151.995 386.434 163.657 386.434C164.953 386.722 166.249 386.578 167.401 386.434ZM114.417 359.366C112.977 358.934 111.25 358.79 109.234 358.79C100.451 358.79 86.7735 362.534 70.936 366.853C50.9232 372.324 28.3188 378.515 10.0338 378.515C-2.49221 378.515 -11.2748 375.636 -17.0339 369.877C-22.361 364.55 -24.9526 356.487 -24.9526 346.12C-24.8086 327.691 -0.0446053 307.535 21.6959 289.826C34.6538 279.171 47.0358 269.237 53.0829 260.454C65.4649 242.601 76.4071 223.308 72.8077 202.863C70.648 191.057 63.8811 184.002 56.6823 176.516C52.7949 172.484 48.6196 168.165 45.1641 162.982C41.9966 158.087 40.2689 153.767 38.6852 149.88C35.6617 142.249 33.358 136.346 21.8399 131.019C18.3844 129.435 15.7929 128.283 13.6332 127.42C5.28254 123.82 5.28253 123.82 1.97106 115.325C1.25117 113.454 0.387321 111.294 -0.620518 108.703C-4.79585 98.3362 -8.10731 96.3205 -12.2826 96.3205C-13.1465 96.3205 -14.1543 96.4645 -15.0182 96.4645C-16.17 96.6085 -17.1779 96.6085 -18.4737 96.6085C-21.2092 96.6085 -24.8086 96.1766 -29.9918 92.5771C-33.8792 89.8416 -35.4629 87.394 -34.887 85.2343C-32.2954 76.8837 4.41868 73.7162 11.6175 73.7162C11.7615 73.7162 11.9055 73.7162 11.9055 73.7162L12.0494 73.2842L12.3374 73.7162C17.0886 71.2686 19.6802 68.245 22.2718 65.2215C25.5833 61.1902 28.7508 57.4468 36.8135 54.8552C39.693 53.9913 42.1406 53.2714 44.0123 52.6955C54.5226 49.672 54.6666 49.528 59.1299 36.2822L59.7058 34.5545C60.5697 32.1068 59.8498 30.3791 59.2739 28.7954C58.554 26.7797 57.8341 25.052 60.5697 22.0285C62.0094 20.3007 67.1926 18.429 71.6559 16.7013C74.6794 15.5495 77.5589 14.3977 79.1427 13.5338C81.5903 12.0941 83.174 10.0784 84.7578 8.20668C86.7735 5.75907 88.7891 3.45545 92.2446 2.15965C94.5482 1.29579 97.4277 0.863859 100.883 0.863859C109.378 0.863859 119.456 3.59941 127.519 5.61509C129.391 6.04702 131.118 6.62293 132.702 6.91088C158.906 13.3898 183.814 25.1959 207.858 36.5701L210.306 37.7219C267.608 64.7896 310.802 95.0247 342.476 130.155C363.785 153.767 377.607 176.804 384.518 200.416C392.724 228.203 386.821 262.182 369.832 284.93C361.049 296.736 345.356 310.702 320.88 310.702C314.545 310.702 307.922 309.694 301.299 307.823C242.988 290.977 244.86 233.387 251.195 180.835C253.067 165.141 250.187 152.328 242.7 143.833C236.365 136.634 226.719 132.747 215.777 132.747C195.476 132.747 169.56 146.712 161.497 172.628C152.283 202.288 172.008 227.627 191.013 252.104C211.313 278.163 232.19 305.231 220.528 338.49C213.761 357.639 188.709 382.835 167.545 385.138C166.393 385.282 165.241 385.282 164.089 385.282C152.859 385.282 144.94 378.947 136.589 372.18C129.823 367.429 123.056 361.958 114.417 359.366Z" fill="#C4C4C4"/>
</g>
</svg>
