<svg width="979" height="642" viewBox="0 0 979 642" fill="none" xmlns="http://www.w3.org/2000/svg">
<path d="M47.1047 387.39C46.619 391.497 48.5615 391.497 49.0471 395.603C48.0759 396.972 47.1047 396.972 46.619 398.341C44.191 394.235 43.2197 387.39 42.2485 380.546C41.7629 381.915 40.7917 384.652 39.8204 387.39C38.8492 380.546 38.8492 376.439 38.3636 369.595C35.9355 369.595 33.5074 369.595 31.565 369.595C30.5937 372.333 29.1369 376.439 27.68 380.546C27.1944 377.808 27.1944 376.439 26.7088 373.701C25.7376 369.595 24.7664 366.857 23.7951 362.751C22.8239 366.857 22.3383 370.964 21.8527 375.07C20.8814 375.07 20.3958 375.07 19.4246 375.07C18.939 372.333 18.4534 368.226 17.9678 364.119C16.5109 364.119 15.0541 364.119 14.0828 362.751C11.1691 355.906 8.74106 349.062 6.31299 343.586C6.31299 340.849 6.31299 339.48 6.31299 336.742C9.22668 334.004 12.1404 335.373 15.0541 335.373C15.5397 336.742 16.5109 339.48 17.4821 342.217C17.9677 336.742 17.9677 331.267 18.4534 325.791C19.9102 321.684 21.8527 324.422 23.3095 324.422C24.2807 323.053 24.7664 320.316 25.252 318.947C26.2232 320.316 26.7088 321.684 27.68 324.422C28.1657 317.578 28.1657 312.102 28.6513 307.996C32.0506 310.733 33.0218 323.053 36.4211 324.422C37.878 328.529 37.878 328.529 40.306 328.529C40.306 327.16 40.7917 327.16 40.7917 325.791C40.7917 316.209 40.7917 306.627 40.7917 298.414C39.8204 295.676 39.3348 294.307 38.8492 291.569C38.8492 287.463 38.8492 283.356 40.7917 283.356C42.7341 283.356 45.1622 292.938 47.5903 305.258C48.5615 305.258 49.5327 306.627 50.504 307.996C50.9896 307.996 50.9896 309.365 50.9896 309.365C50.9896 312.102 50.9896 313.471 50.9896 314.84C51.9608 317.578 52.932 320.316 53.9033 323.053C56.3313 320.316 56.817 312.102 58.2738 306.627C59.7306 299.783 62.6443 299.783 64.5868 297.045C65.0724 298.414 65.558 299.783 66.0436 301.151C67.9861 299.783 67.5005 295.676 67.0149 292.938C66.0436 288.832 64.5868 286.094 65.558 280.618C67.5005 276.512 69.9286 279.249 72.3566 279.249C73.3279 277.881 73.8135 275.143 74.2991 273.774C76.2416 271.036 77.2128 277.881 78.6696 279.249C79.6409 277.881 80.1265 275.143 81.0977 273.774C82.0689 275.143 83.0402 277.881 84.497 279.249C84.9826 277.881 85.9539 275.143 86.9251 272.405C86.9251 271.036 86.4395 269.667 86.4395 268.298C83.5258 261.454 79.6409 257.348 75.7559 255.979C74.2991 250.503 75.2703 243.659 74.7847 236.814C73.3279 235.446 71.871 232.708 70.8998 231.339C70.8998 228.601 70.8998 227.232 70.8998 225.864C73.8135 214.913 79.1553 214.913 82.5546 205.33C86.4395 205.33 90.81 205.33 94.6949 205.33C95.1805 203.962 95.6662 202.593 96.6374 199.855C101.494 199.855 106.35 199.855 111.206 199.855C112.177 197.117 112.663 195.748 113.148 194.38C116.062 191.642 119.947 195.748 122.861 190.273C119.461 186.166 116.548 188.904 113.634 187.535C110.72 187.535 107.321 187.535 104.407 187.535C101.494 187.535 98.0942 187.535 95.1805 187.535C92.2669 187.535 89.3532 187.535 86.4395 187.535C85.4682 184.797 84.9826 183.429 84.497 182.06C72.3566 182.06 59.7306 182.06 47.5903 182.06C46.619 180.691 46.1334 177.953 45.1622 176.584C39.8204 176.584 34.4787 176.584 28.6513 176.584C28.1657 175.215 27.68 173.846 26.7088 171.109C24.7664 171.109 22.3383 171.109 20.3958 171.109C19.4246 168.371 18.939 167.002 18.4534 165.633C16.9965 165.633 15.5397 164.264 13.5972 164.264C13.5972 161.527 13.1116 158.789 12.626 154.682C11.6548 153.313 10.1979 149.207 8.74106 146.469C9.22668 135.518 12.626 132.78 14.0828 125.936C15.5397 125.936 16.9965 125.936 17.9678 125.936C20.3958 123.198 20.8814 121.829 21.3671 120.461C23.7951 120.461 25.7376 120.461 27.68 120.461C28.6513 123.198 29.1369 124.567 30.1081 125.936C30.5937 121.829 30.5937 119.092 30.5937 116.354C32.5362 110.878 34.9643 114.985 37.3924 113.616C38.3636 116.354 38.8492 117.723 39.8204 120.461C40.7917 116.354 41.7629 110.878 42.7341 105.403C40.7917 99.9275 38.8492 94.452 36.9067 88.9765C38.8492 82.1322 41.2773 76.6567 43.2197 71.1812C45.1622 68.4435 47.5903 69.8124 50.0183 68.4435C50.504 67.0746 51.4752 65.7057 52.4464 62.968C54.8745 62.968 57.7882 62.968 60.2163 62.968C61.1875 60.2303 61.6731 58.8614 62.1587 57.4925C67.9861 57.4925 74.7847 57.4925 80.6121 57.4925C82.0689 54.7548 82.5546 54.7548 83.0402 52.0171C89.8388 52.0171 96.6374 52.0171 103.436 52.0171C104.407 50.6482 104.893 47.9104 105.864 46.5416C115.576 46.5416 124.803 46.5416 134.515 46.5416C135.001 45.1727 135.972 42.435 136.458 41.0661C137.429 42.435 137.915 45.1727 138.886 47.9104C139.857 46.5416 140.828 45.1727 142.771 42.435C143.256 42.435 143.742 43.8038 144.713 46.5416C145.199 45.1727 145.685 42.435 146.656 41.0661C147.141 42.435 148.113 43.8038 148.598 46.5416C149.084 45.1727 149.569 43.8038 150.055 42.435C150.541 42.435 150.541 41.0661 151.026 41.0661C164.624 41.0661 178.221 41.0661 191.818 41.0661C192.304 39.6972 192.789 38.3284 193.275 36.9595C193.76 36.9595 193.76 35.5906 194.246 35.5906C213.185 35.5906 232.61 35.5906 251.549 35.5906C252.034 34.2217 252.52 32.8529 253.491 30.1151C263.689 30.1151 274.372 30.1151 284.57 30.1151C285.056 27.3774 285.056 26.0085 285.542 24.6397C290.883 24.6397 296.225 23.2708 301.567 23.2708L302.053 21.9019C294.283 19.1642 291.369 19.1642 285.542 26.0085C284.57 26.0085 283.599 26.0085 282.628 26.0085C281.657 24.6397 281.171 21.9019 280.685 20.533C278.257 17.7953 277.772 24.6397 275.829 26.0085C274.858 24.6397 273.887 23.2708 271.944 20.533C265.146 20.533 257.376 20.533 249.606 20.533C249.121 21.9019 248.635 23.2708 247.664 26.0085C230.182 26.0085 211.728 26.0085 194.246 26.0085C193.275 28.7463 192.789 30.1151 192.304 31.484C189.875 31.484 187.447 32.8529 185.019 30.1151C185.019 27.3774 185.019 24.6397 185.019 23.2708C185.505 21.9019 185.505 20.533 185.991 20.533C197.16 20.533 207.843 20.533 218.527 20.533C219.498 19.1642 219.984 16.4264 220.955 15.0576C221.44 16.4264 222.412 19.1642 222.897 20.533C223.383 16.4264 223.869 15.0576 224.354 13.6887C224.84 15.0576 225.811 16.4264 226.782 17.7953C228.239 17.7953 230.667 17.7953 233.095 17.7953C234.066 17.7953 234.552 10.951 236.98 12.3198C237.466 13.6887 238.437 15.0576 238.923 17.7953C239.408 16.4264 240.379 13.6887 240.865 12.3198C264.66 12.3198 288.941 12.3198 312.736 12.3198C313.707 10.951 314.193 8.21322 314.679 6.84435C315.164 8.21322 315.65 9.58209 316.621 12.3198C317.107 10.951 318.078 9.58209 319.049 8.21322C321.477 8.21322 324.391 8.21322 327.305 8.21322C327.79 9.58209 328.276 10.951 329.247 12.3198C329.733 10.951 330.704 9.58209 331.189 6.84435C331.675 8.21322 332.646 9.58209 333.132 12.3198C333.618 10.951 334.103 9.58209 334.589 8.21322C335.074 8.21322 335.56 6.84435 336.531 6.84435C359.355 6.84435 382.179 6.84435 405.003 6.84435C405.974 5.47548 406.46 2.73774 406.945 1.36887C407.917 2.73774 408.402 5.47548 408.888 6.84435C411.316 9.58209 411.802 2.73774 414.23 1.36887C414.715 2.73774 416.172 4.10661 417.143 6.84435C417.629 5.47548 418.115 4.10661 419.086 2.73774C492.414 2.73774 566.227 2.73774 639.069 2.73774C639.555 4.10661 640.041 5.47548 641.012 8.21322C641.497 6.84435 642.469 4.10661 642.954 2.73774C644.897 2.73774 646.839 2.73774 649.267 2.73774C650.239 4.10661 650.724 6.84435 651.21 8.21322C652.667 8.21322 654.123 8.21322 655.095 8.21322C656.066 6.84435 656.552 4.10661 657.037 2.73774C661.893 2.73774 666.749 2.73774 671.606 2.73774C672.091 4.10661 672.577 5.47548 673.062 6.84435C674.034 5.47548 675.005 4.10661 676.462 1.36887C677.433 2.73774 678.404 5.47548 679.375 6.84435C679.861 5.47548 680.832 4.10661 681.318 1.36887C682.775 1.36887 683.746 1.36887 685.203 1.36887C685.688 2.73774 686.66 5.47548 687.145 6.84435C688.117 5.47548 688.602 2.73774 689.573 0C690.545 1.36887 691.516 2.73774 693.458 5.47548C693.944 4.10661 694.915 2.73774 696.372 0C697.343 1.36887 698.314 4.10661 699.286 5.47548C700.257 4.10661 701.228 1.36887 702.199 0C703.171 2.73774 704.142 4.10661 705.113 6.84435C706.084 5.47548 706.57 2.73774 707.541 0C708.512 1.36887 709.484 2.73774 711.912 6.84435C719.196 6.84435 727.451 6.84435 735.707 6.84435C736.192 9.58209 736.192 10.951 736.678 12.3198C734.736 12.3198 733.279 12.3198 731.822 12.3198C730.851 13.6887 730.365 16.4264 729.879 17.7953C729.394 16.4264 728.908 15.0576 728.423 13.6887C713.369 10.951 689.088 10.951 681.803 15.0576L682.289 16.4264C682.775 16.4264 683.746 17.7953 684.232 17.7953C696.372 17.7953 708.027 17.7953 719.681 17.7953C720.167 19.1642 720.653 20.533 721.624 23.2708C728.423 23.2708 735.221 23.2708 742.02 23.2708C742.991 26.0085 743.477 27.3774 743.962 28.7463C752.703 28.7463 761.93 28.7463 770.671 28.7463C771.642 31.484 772.128 32.8529 772.614 34.2217C782.811 34.2217 793.495 34.2217 803.207 34.2217C804.178 36.9595 804.664 38.3284 805.15 39.6972C809.035 39.6972 813.405 39.6972 817.29 39.6972C818.261 41.0661 818.747 43.8038 819.718 45.1727C822.632 45.1727 825.06 45.1727 827.974 45.1727C828.945 46.5416 829.43 49.2793 830.402 50.6482C835.258 50.6482 840.114 50.6482 844.485 50.6482C844.97 52.0171 845.456 53.3859 846.427 56.1237C849.826 57.4925 853.226 56.1237 857.111 57.4925C857.596 58.8614 858.082 60.2303 859.053 62.968C863.909 62.968 868.765 62.968 873.621 62.968C874.593 65.7057 875.078 67.0746 875.564 68.4435C876.05 67.0746 877.021 65.7057 877.506 62.968C877.992 64.3369 878.963 65.7058 879.449 68.4435C882.848 68.4435 886.247 68.4435 889.647 68.4435C890.618 71.1812 891.104 73.919 892.075 76.6567C892.075 76.6567 891.589 79.3945 891.104 79.3945C887.219 79.3945 882.848 79.3945 878.963 79.3945C878.478 79.3945 878.478 80.7633 878.478 80.7633C878.963 84.8699 880.42 83.5011 881.391 84.8699C882.363 87.6077 883.819 91.7143 885.276 95.8209C885.762 94.452 886.733 93.0832 887.704 90.3454C891.104 90.3454 894.503 90.3454 897.902 90.3454C898.388 91.7143 899.359 94.452 899.845 95.8209C901.787 95.8209 903.73 95.8209 905.672 95.8209C906.643 97.1898 907.129 99.9275 908.1 101.296C909.557 101.296 911.014 101.296 911.985 101.296C912.956 102.665 913.442 105.403 914.413 106.772C916.356 106.772 918.298 106.772 920.241 106.772C921.212 112.247 922.183 116.354 923.154 121.829C922.669 123.198 922.183 124.567 921.212 127.305C922.669 131.412 924.611 128.674 926.068 130.043C927.525 125.936 928.982 121.829 930.438 119.092C931.895 119.092 933.352 119.092 934.323 119.092C936.751 124.567 934.809 128.674 933.352 134.149C935.78 138.256 938.694 136.887 940.636 135.518C941.608 134.149 942.093 132.78 943.064 130.043C943.064 134.149 943.55 136.887 943.55 139.625C942.093 140.994 941.122 142.362 939.665 143.731C940.151 146.469 940.636 149.207 941.122 151.945C939.665 156.051 937.723 151.945 936.266 154.682C935.295 151.945 934.809 150.576 933.838 147.838C933.352 150.576 933.352 153.313 932.867 156.051C935.295 160.158 937.723 161.527 939.18 168.371C937.723 169.74 936.751 169.74 935.78 172.478C934.809 175.215 933.838 177.953 932.381 176.584C929.953 172.478 931.895 167.002 930.924 161.527C929.953 158.789 928.496 160.158 927.039 160.158C927.039 156.051 927.039 150.576 927.039 145.1C926.068 143.731 925.582 143.731 924.611 142.362C922.183 145.1 921.697 153.313 918.784 153.313C916.356 154.682 915.384 158.789 914.413 162.896C914.413 172.478 918.298 172.478 918.298 180.691C917.327 180.691 916.356 180.691 914.899 180.691C914.413 183.429 914.413 186.166 913.927 187.535C913.442 190.273 912.956 193.011 911.985 195.748C912.956 198.486 913.927 201.224 914.899 202.593C915.87 199.855 916.841 197.117 917.812 194.38C917.812 188.904 917.812 184.797 917.812 180.691C918.298 180.691 918.784 182.06 919.755 183.429C919.755 188.904 919.755 194.38 919.755 201.224C919.755 203.962 916.841 205.33 918.298 213.544C918.298 213.544 919.269 216.281 920.241 219.019C922.183 217.65 922.669 210.806 925.582 209.437C925.582 209.437 927.039 209.437 928.496 209.437C929.467 208.068 929.953 205.33 930.924 203.962C931.895 208.068 932.867 210.806 933.838 214.913C934.809 220.388 935.295 225.864 936.751 231.339C937.723 235.446 939.665 239.552 941.122 243.659C943.064 243.659 945.007 243.659 947.435 243.659C948.406 247.765 949.863 251.872 950.834 254.61C952.291 254.61 952.777 254.61 953.748 254.61C954.234 257.348 954.234 258.716 954.719 262.823C953.262 265.561 951.32 269.667 950.349 272.405C950.349 277.881 950.349 281.987 950.349 286.094C949.863 288.832 948.892 290.2 948.406 291.569C948.892 294.307 949.863 295.676 950.349 297.045C950.834 302.52 949.863 306.627 951.32 310.733C951.805 306.627 952.777 302.52 953.262 298.414C954.234 303.889 955.205 307.996 956.176 313.471C955.69 314.84 955.205 316.209 954.719 318.947C955.205 320.316 956.176 323.053 956.662 324.422C956.662 328.529 956.662 332.635 956.662 335.373C956.176 336.742 955.69 338.111 955.205 338.111C946.949 338.111 938.694 338.111 931.41 338.111C930.438 340.849 929.953 342.217 928.982 343.586C926.554 343.586 923.154 343.586 920.241 343.586C920.726 350.431 922.669 351.8 923.64 357.275C923.154 358.644 923.154 360.013 922.669 360.013C917.327 360.013 911.985 360.013 906.158 360.013C905.672 364.119 904.701 368.226 903.73 372.333C900.816 368.226 898.388 365.488 895.96 361.382C893.532 365.488 890.618 368.226 887.704 372.333C886.733 366.857 886.247 362.751 885.762 360.013C884.791 360.013 884.305 360.013 883.819 360.013C881.877 364.119 883.334 368.226 882.848 373.701C882.363 376.439 881.391 379.177 880.42 381.915C878.963 381.915 877.506 383.284 875.564 383.284C875.078 384.652 874.593 384.652 874.593 386.021C874.593 392.866 874.593 401.079 874.593 407.923C874.107 410.661 873.136 412.03 872.65 413.399C873.621 416.136 874.593 418.874 875.564 421.612C876.05 420.243 877.021 417.505 877.506 416.136C878.963 416.136 880.906 416.136 882.363 416.136C882.848 418.874 883.334 421.612 884.305 421.612C885.762 421.612 887.704 422.981 888.676 418.874C887.219 413.399 884.791 416.136 882.363 416.136C883.334 412.03 884.305 406.554 885.276 401.079C885.762 401.079 887.219 399.71 888.19 398.341C888.19 394.235 888.676 390.128 888.676 384.652C890.132 380.546 892.075 383.284 893.532 381.915C894.503 383.284 894.989 386.021 895.96 387.39C897.417 387.39 898.873 387.39 900.33 387.39C900.816 390.128 900.816 391.497 901.302 395.603C898.873 401.079 896.445 406.554 894.989 410.661C894.989 414.768 894.989 417.505 894.989 418.874C896.445 422.981 898.388 421.612 899.845 421.612C901.302 421.612 902.758 421.612 903.73 421.612C905.186 421.612 907.129 421.612 908.586 421.612C909.071 413.399 907.129 417.505 905.186 410.661C905.672 413.399 905.186 409.292 904.701 406.554C904.701 405.185 903.73 405.185 903.244 403.817C903.244 396.972 903.244 390.128 903.244 384.652C902.758 383.284 901.787 380.546 900.816 377.808C902.273 376.439 903.244 376.439 904.701 376.439C905.186 380.546 905.186 383.284 905.186 386.021C906.643 390.128 908.586 394.235 910.043 399.71C911.014 399.71 911.985 401.079 913.442 401.079C913.442 407.923 913.442 414.768 913.442 418.874C914.899 422.981 915.87 425.719 916.356 428.456C917.812 428.456 919.269 428.456 920.726 428.456C923.154 422.981 920.726 414.768 922.183 407.923C922.669 407.923 923.154 406.554 924.125 406.554C924.125 410.661 924.125 416.136 924.125 420.243C924.611 421.612 925.582 424.35 926.068 427.087C924.611 431.194 923.154 433.932 921.212 438.038C921.697 440.776 922.669 443.514 923.154 447.62C923.64 450.358 924.125 454.465 924.611 457.203C926.553 458.571 927.039 458.571 928.01 453.096C928.496 453.096 929.467 451.727 929.467 451.727C929.953 448.989 928.982 447.62 928.01 447.62C928.01 442.145 930.438 440.776 930.924 435.301C932.381 439.407 933.838 443.514 935.295 447.62C936.751 447.62 938.208 447.62 939.665 447.62C939.665 450.358 940.151 454.465 940.151 457.203C934.323 459.94 929.953 465.416 926.554 476.367C924.125 473.629 922.669 470.891 921.212 469.522C917.812 476.367 921.697 487.318 918.784 492.793C917.812 490.055 916.841 487.318 915.87 484.58C916.841 480.473 918.784 479.104 917.327 470.891C914.899 468.154 911.985 470.891 908.586 469.522C907.615 472.26 906.643 474.998 905.672 476.367C905.186 487.318 908.586 488.687 909.071 495.531C908.586 496.9 907.615 499.638 907.129 502.375C903.244 509.22 900.33 494.162 895.474 499.638C895.474 499.638 894.503 501.006 893.046 503.744C892.075 501.006 891.104 499.637 889.647 496.9C887.704 496.9 885.762 496.9 883.819 496.9C882.848 499.637 881.877 501.006 881.391 502.375C878.478 502.375 877.992 492.793 875.078 498.269C875.078 499.638 874.593 502.375 874.593 505.113C875.564 507.851 876.535 510.588 877.992 513.326C880.906 517.433 882.848 509.22 885.762 507.851C886.733 510.588 887.219 511.957 888.19 513.326C888.676 511.957 889.647 509.22 890.132 507.851C893.046 506.482 894.503 518.802 898.873 511.957C898.388 511.957 899.359 510.588 900.33 509.22C901.302 510.588 902.273 511.957 903.73 514.695C904.701 513.326 905.672 510.588 907.129 507.851C907.615 510.588 908.586 513.326 909.557 516.064C908.586 517.433 907.615 518.802 906.158 520.171C906.643 524.277 908.1 522.908 909.071 524.277C910.043 525.646 910.528 527.015 911.014 528.384C911.499 527.015 911.985 525.646 912.956 522.908C913.442 524.277 914.413 525.646 915.384 528.384C917.812 528.384 920.726 528.384 925.097 528.384C923.64 529.753 916.356 535.228 915.87 535.228C917.327 537.966 918.784 539.335 920.241 540.704C918.784 547.548 915.87 540.704 913.927 547.548C917.327 550.286 920.726 548.917 924.125 548.917C927.039 548.917 929.953 547.548 933.838 551.655C929.467 555.761 926.554 553.023 923.64 554.392C922.183 557.13 921.212 559.868 919.755 562.605C923.64 569.45 927.039 562.606 930.438 568.081C929.953 570.819 929.467 572.188 928.496 574.925C929.953 576.294 931.41 579.032 932.381 580.401C932.381 583.139 932.381 584.507 932.381 585.876C930.924 588.614 928.982 589.983 926.554 594.09C925.582 594.09 923.154 594.09 921.212 594.09C920.24 595.458 919.755 598.196 918.784 599.565C911.985 599.565 905.186 599.565 898.388 599.565C897.417 600.934 896.931 603.672 895.96 605.04C881.391 605.04 867.309 605.04 852.74 605.04C852.254 606.409 851.769 607.778 850.798 610.516C844.97 611.885 838.657 610.516 831.859 610.516C831.373 611.885 830.887 613.254 829.916 615.991C815.833 615.991 801.265 615.991 786.696 615.991C785.725 618.729 785.24 620.098 784.754 621.467C759.988 621.467 735.221 621.467 710.94 621.467C709.969 624.205 709.484 625.574 708.998 626.942C634.699 626.942 559.429 626.942 485.129 626.942C484.158 629.68 483.673 631.049 483.187 632.418C461.334 632.418 439.482 632.418 417.629 632.418C417.143 631.049 416.172 629.68 415.686 626.942C414.715 628.311 413.744 631.049 412.773 633.787C411.316 631.049 410.345 629.68 409.374 626.942C343.815 626.942 278.257 626.942 212.214 626.942C211.728 625.574 211.243 624.205 210.271 621.467C199.588 621.467 188.419 621.467 177.249 621.467C176.278 618.729 175.793 617.36 175.307 615.991C171.422 615.991 167.052 615.991 163.167 615.991C162.195 613.254 161.71 611.885 161.224 610.516C156.368 610.516 151.998 610.516 146.656 610.516C145.199 605.04 143.256 598.196 141.314 592.721C137.915 592.721 135.001 592.721 132.087 592.721C129.659 585.876 131.602 583.139 133.059 579.032C133.059 574.925 133.059 572.188 133.059 568.081C135.487 562.606 136.943 551.655 140.828 553.023C140.343 547.548 138.886 543.441 137.915 542.072C135.972 540.704 135.001 539.335 135.001 533.859C135.001 529.753 133.059 527.015 132.087 524.277C128.202 522.908 129.659 531.122 127.717 535.228C127.231 533.859 126.26 532.49 125.289 529.753C123.346 529.753 121.404 529.753 119.461 529.753C118.49 531.122 118.004 536.597 116.062 535.228C116.062 533.859 115.576 531.122 115.576 531.122C114.12 529.753 114.12 532.49 114.12 535.228C112.663 535.228 112.177 536.597 112.177 539.335C112.177 543.441 112.177 546.179 114.12 546.179C114.12 547.548 114.605 550.286 114.605 550.286C117.519 550.286 119.461 561.237 123.832 555.761C123.832 555.761 125.289 551.655 126.26 548.917C125.289 546.179 124.803 543.441 123.832 540.704C125.289 539.335 126.26 539.335 126.746 539.335C129.174 544.81 126.746 551.655 127.717 558.499C128.202 561.237 129.174 563.974 129.659 568.081C127.717 568.081 125.774 568.081 124.803 568.081C120.918 577.663 126.746 580.401 125.289 588.614C122.861 592.721 122.861 592.721 120.433 587.245C119.461 588.614 118.49 589.983 117.033 592.721C116.062 591.352 114.605 588.614 112.663 585.876C111.691 587.245 110.72 589.983 109.263 591.352C108.778 589.983 108.292 587.245 108.292 585.876C108.778 580.401 110.235 576.294 112.177 574.925C112.663 579.032 112.177 583.139 114.12 579.032C113.634 577.663 113.148 576.294 112.177 574.925C113.148 566.712 110.235 561.237 109.263 553.023C108.778 550.286 108.292 546.179 107.321 542.072C106.835 542.072 105.378 540.704 104.407 539.335C103.436 536.597 102.465 535.228 101.008 535.228C99.0655 529.753 97.123 524.277 95.1805 518.802C94.6949 520.171 93.7237 521.539 93.2381 522.908C91.2956 524.277 88.8676 525.646 86.9251 518.802C84.9826 518.802 83.0402 518.802 80.6121 518.802C80.1265 520.171 79.1553 521.539 78.184 524.277C77.2128 521.539 76.7272 518.802 75.2703 514.695C75.2703 513.326 75.2703 509.22 75.2703 503.744C73.8135 501.006 72.3566 498.269 70.8998 495.531C70.8998 490.055 70.8998 485.949 70.8998 480.473C68.9573 476.367 66.5293 470.891 64.5868 465.416C65.0724 461.309 65.558 458.571 65.558 455.834C66.5293 458.571 67.0149 459.94 67.9861 461.309C68.4717 459.94 69.4429 457.203 69.9286 455.834C70.8998 458.571 71.871 461.309 72.8423 464.047C72.8423 465.416 72.8423 468.153 72.8423 469.522C74.2991 473.629 76.2416 479.104 77.6984 483.211C78.6696 481.842 79.1553 476.367 80.6121 477.736C80.6121 483.211 82.5546 484.58 83.5258 488.687C84.0114 490.055 85.4683 488.687 85.9539 488.687C87.4107 480.473 85.9539 474.998 84.9826 468.154C86.4395 464.047 88.3819 466.785 89.8388 466.785C91.2956 459.94 91.7812 450.358 96.1518 447.62C93.7237 444.883 92.7525 444.883 91.2956 443.514C90.81 440.776 90.3244 436.669 89.8388 433.932C89.3532 435.301 88.3819 436.669 88.3819 436.669C88.3819 440.776 88.3819 443.514 88.3819 447.62C86.9251 453.096 84.9826 448.989 83.5258 450.358C83.0402 448.989 82.0689 446.252 81.0977 444.883C78.184 444.883 75.7559 444.883 72.8423 444.883C71.871 443.514 71.3854 440.776 70.8998 439.407C69.9286 440.776 69.4429 443.514 68.9573 444.883C67.5005 440.776 66.5293 435.301 65.0724 435.301C70.8998 443.514 69.9286 438.038 67.9861 438.038C67.0149 438.038 66.0436 438.038 64.5868 438.038C64.1012 439.407 63.13 442.145 62.1587 443.514C61.6731 443.514 60.7019 443.514 60.2163 443.514C59.7306 443.514 58.7594 443.514 58.2738 443.514C57.7882 443.514 57.7882 444.883 57.3026 444.883C55.3601 447.62 53.4177 450.358 51.4752 454.465C50.9896 453.096 50.504 451.727 50.0183 450.358C48.0759 450.358 46.1334 450.358 44.6766 450.358C42.2485 446.252 40.306 443.514 38.3636 440.776C40.306 435.301 43.2197 431.194 44.191 424.35C45.1622 417.505 46.1334 413.399 48.0759 409.292C50.504 407.923 50.9896 412.03 50.9896 417.505C51.9608 420.243 52.932 422.981 53.9033 425.719C55.8457 425.719 58.2738 425.719 60.7019 425.719C61.1875 421.612 61.6731 418.874 62.1587 414.768C63.13 417.505 63.6156 418.874 64.5868 420.243C66.5293 420.243 68.4717 420.243 70.8998 420.243C71.871 417.505 72.8422 414.768 73.8135 412.03C72.3566 410.661 71.3854 407.923 69.9286 406.554C70.4142 402.448 72.3566 402.448 71.871 396.972C75.2703 398.341 77.2128 391.497 79.6409 390.128C79.1552 386.021 78.184 380.546 77.6984 376.439C77.6984 375.07 76.7272 375.07 76.2416 375.07C75.7559 370.964 76.2416 366.857 74.2991 370.964C74.7847 372.333 75.2703 373.701 76.2416 375.07C76.2416 376.439 76.2416 379.177 76.2416 383.284C74.7847 386.021 73.3279 390.128 72.3566 394.235C72.3566 394.235 72.3566 395.603 72.3566 396.972C70.8998 396.972 68.9573 396.972 67.0149 396.972C66.5293 399.71 66.0436 403.817 66.0436 406.554C64.1012 409.292 62.1587 409.292 60.2163 406.554C60.7019 405.185 61.1875 402.448 62.1587 401.079C61.6731 396.972 59.7306 395.603 60.2163 390.128C60.7019 388.759 61.6731 386.021 62.1587 384.652C62.1587 380.546 62.1587 375.07 62.1587 370.964C62.6443 370.964 63.6156 370.964 64.1012 369.595C64.5868 373.701 64.1012 377.808 66.0436 373.701C65.558 372.333 65.0724 370.964 64.1012 369.595C65.0724 366.857 65.558 364.119 66.0436 361.382C63.6156 354.537 61.1875 349.062 58.7594 340.849C57.3026 347.693 58.2738 355.906 57.3026 361.382C56.817 364.119 55.8457 366.857 55.8457 370.964C55.8457 373.701 56.3313 376.439 57.7882 375.07C57.3026 380.546 58.2738 386.021 56.817 391.497C56.3313 390.128 55.3601 388.759 54.3889 386.021C53.9033 387.39 52.932 388.759 52.4464 391.497C51.9608 387.39 50.9896 384.652 50.504 380.546C49.0471 383.284 48.0759 384.652 47.1047 387.39C46.619 383.284 47.1047 379.177 45.1622 383.284C45.6478 384.652 46.1334 386.021 47.1047 387.39ZM868.28 414.768C869.737 413.399 871.679 413.399 870.222 409.292C869.737 410.661 869.251 412.03 869.737 413.399C868.28 414.768 866.337 414.768 867.794 418.874C867.794 418.874 868.28 417.505 868.28 414.768ZM100.037 288.832C100.522 292.938 100.522 297.045 101.979 294.307C101.494 292.938 101.008 291.569 100.522 292.938C100.037 288.832 100.037 284.725 98.5798 287.463C99.0655 287.463 99.5511 288.832 100.037 288.832ZM880.906 187.535C882.362 186.166 884.305 190.273 884.791 184.797C882.363 182.06 882.362 182.06 880.906 187.535C881.391 188.904 880.906 187.535 880.906 187.535C879.934 188.904 879.449 188.904 878.963 190.273L879.449 191.642C880.42 191.642 880.906 190.273 880.906 187.535ZM86.4395 297.045C85.9539 292.938 85.9539 288.832 84.497 291.569C84.9826 292.938 85.4682 294.307 86.4395 294.307C86.4395 298.414 86.4395 303.889 86.4395 307.996C88.3819 310.733 90.3244 313.471 92.2669 316.209C92.2669 310.733 92.2669 306.627 92.2669 301.151C91.2956 298.414 90.3244 295.676 89.3532 292.938C87.8963 295.676 86.9251 295.676 86.4395 297.045ZM102.465 494.162C105.864 492.793 103.436 503.744 105.864 505.113C107.321 503.744 109.263 506.482 110.72 502.375C110.72 501.006 110.72 498.269 111.206 496.9C109.749 488.687 106.35 487.318 103.436 481.842C102.465 487.318 102.465 490.055 102.465 494.162C100.522 496.9 100.522 496.9 101.494 505.113C103.436 502.375 101.979 498.269 102.465 494.162ZM124.317 273.774C126.26 271.036 128.202 266.93 129.659 268.298C132.087 268.298 133.059 264.192 134.515 262.823C135.001 264.192 135.487 265.561 135.972 266.93C143.742 266.93 151.512 266.93 159.282 266.93C160.253 264.192 161.224 261.454 162.195 258.716C161.71 255.979 161.71 253.241 161.224 251.872C160.253 251.872 159.767 251.872 158.796 251.872C158.311 253.241 157.339 255.979 156.368 257.348C146.17 257.348 135.972 257.348 125.774 257.348C124.803 261.454 122.861 262.823 122.375 268.298C123.346 269.667 123.832 271.036 124.317 273.774ZM107.807 279.249C110.235 268.298 113.634 275.143 116.548 271.036C118.004 268.298 119.947 266.93 121.404 264.192C120.918 261.454 120.918 258.716 120.433 255.979C118.976 258.716 117.519 260.085 116.548 262.823C115.576 260.085 114.605 258.716 114.12 255.979C112.177 255.979 110.235 255.979 108.292 255.979C107.321 257.348 106.835 260.085 106.35 261.454C105.378 260.085 104.893 258.716 104.407 257.348C102.95 260.085 101.979 261.454 101.008 262.823C100.037 260.085 99.0655 258.716 98.5798 257.348C97.6086 258.716 96.6374 261.454 95.6662 261.454C94.2093 262.823 93.2381 262.823 91.7812 262.823C91.7812 262.823 91.7812 264.192 91.2956 264.192C92.2669 266.93 93.2381 269.667 94.2093 272.405C95.6662 272.405 97.123 272.405 98.0942 272.405C99.0655 273.774 99.5511 276.512 100.037 277.881C101.008 276.512 101.494 273.774 102.465 272.405C103.922 273.774 105.864 271.036 107.807 279.249ZM126.746 461.309C124.803 464.047 123.832 465.416 122.375 466.785C120.433 469.522 118.976 462.678 117.033 461.309C117.033 464.047 116.548 466.785 116.548 468.154C118.004 472.26 119.461 474.998 120.433 479.104C120.918 481.842 121.404 485.949 121.889 490.055C123.832 490.055 125.289 490.055 126.746 490.055C127.231 494.162 127.717 496.9 127.717 499.638C129.174 496.9 130.63 495.531 131.602 492.793C131.602 485.949 131.602 483.211 131.116 480.473C129.174 473.629 126.746 469.522 126.746 461.309ZM894.503 239.552C893.046 240.921 891.104 238.183 889.161 242.29C890.132 246.397 888.19 251.872 890.132 255.979C892.075 255.979 894.017 255.979 895.96 255.979C896.931 254.61 897.417 251.872 897.902 250.503C898.873 251.872 899.359 254.61 900.33 255.979C901.787 255.979 903.244 255.979 904.215 254.61C904.701 254.61 904.701 253.241 905.186 251.872C902.758 246.397 901.787 238.183 898.388 236.814C897.417 239.552 896.931 240.921 895.96 242.29C895.96 242.29 894.989 240.921 894.503 239.552ZM136.458 483.211C138.886 481.842 141.314 484.58 143.256 481.842C142.771 479.104 141.8 476.367 141.314 473.629C140.828 469.522 141.8 464.047 140.343 461.309C137.915 462.678 135.972 459.94 133.544 462.678C133.544 466.785 133.544 470.891 133.544 474.998C134.515 477.736 135.487 480.473 136.458 483.211ZM874.593 390.128C874.593 381.915 871.679 390.128 871.193 384.652C870.708 381.915 870.222 377.808 870.222 375.07C868.28 376.439 866.823 373.701 864.88 377.808C864.88 381.915 864.88 386.021 865.366 390.128C865.366 391.497 865.852 391.497 865.852 391.497C868.765 391.497 871.193 391.497 874.107 391.497C874.107 391.497 874.107 391.497 874.593 390.128ZM936.751 276.512C937.237 279.249 935.78 283.356 936.266 283.356C939.665 277.881 941.608 273.774 943.55 271.036C943.064 265.561 944.036 260.085 942.093 255.979C940.636 257.348 938.694 254.61 937.237 258.716C936.266 264.192 937.723 266.93 939.18 271.036C937.723 272.405 937.237 273.774 936.751 276.512ZM876.049 149.207C877.021 146.469 878.478 143.731 878.963 139.625C877.506 138.256 877.021 131.411 875.078 132.78C870.222 142.362 870.222 145.1 872.165 149.207C873.136 149.207 874.593 149.207 876.049 149.207ZM911.014 255.979C912.471 255.979 913.928 255.979 915.384 255.979C915.87 254.61 916.356 251.872 917.327 250.503C918.298 249.134 919.755 251.872 920.241 245.028C916.841 245.028 912.956 245.028 909.557 245.028C909.071 245.028 909.071 247.765 908.586 247.765C909.071 250.503 910.043 253.241 911.014 255.979ZM853.226 391.497C854.682 390.128 856.625 392.866 858.082 390.128C858.082 384.652 856.139 387.39 855.168 386.021C853.226 380.546 851.283 375.07 849.341 369.595H848.855C848.37 377.808 848.37 377.808 853.226 391.497ZM926.554 253.241C926.554 250.503 926.068 247.765 925.582 240.921C924.125 246.397 923.154 249.134 922.183 251.872C922.669 253.241 929.953 265.561 930.438 265.561C930.924 265.561 931.41 264.192 932.381 262.823C931.41 257.348 928.01 257.348 926.554 253.241ZM95.6662 414.768C90.3244 414.768 90.3244 414.768 87.8963 418.874C89.3532 418.874 90.3244 420.243 90.81 420.243C93.2381 420.243 95.6662 421.612 97.6086 418.874C98.0942 413.399 98.5798 407.923 96.6374 402.448C96.6374 406.554 96.6374 409.292 95.6662 414.768ZM75.7559 412.03C76.7272 414.768 77.6984 418.874 79.6409 420.243C79.6409 413.399 79.6409 407.923 79.6409 401.079C79.6409 399.71 78.6696 399.71 78.184 398.341C77.6984 402.448 75.7559 403.817 75.7559 412.03ZM883.334 372.333C882.362 369.595 881.391 366.857 880.42 364.119C878.478 364.119 876.535 361.382 875.078 366.857C876.535 368.226 877.506 368.226 878.478 369.595C879.449 370.964 880.42 375.07 881.877 373.701C881.877 373.701 882.848 373.701 883.334 372.333ZM891.589 150.576C892.56 153.313 893.046 157.42 894.989 158.789C895.96 156.051 896.931 153.313 897.417 151.945C896.445 149.207 895.474 146.469 894.503 143.731C893.532 145.1 892.56 147.838 891.589 150.576ZM111.206 470.891C110.72 465.416 110.72 464.047 110.235 459.94C108.778 461.309 107.807 461.309 106.35 461.309C106.835 465.416 106.835 468.154 106.835 470.891C108.292 470.891 109.263 470.891 111.206 470.891ZM303.024 21.9019C307.88 24.6397 307.88 24.6397 309.337 20.533C307.88 17.7953 305.938 17.7953 303.024 21.9019ZM904.215 183.429C905.186 179.322 907.129 176.584 907.129 172.478C906.158 169.74 904.701 169.74 903.244 173.846C903.73 176.584 904.215 179.322 904.215 183.429ZM872.65 362.751C868.28 357.275 868.28 358.644 866.823 362.751C867.794 362.751 868.765 364.119 869.737 364.119C870.708 364.119 871.679 362.751 872.65 362.751ZM887.219 491.424C885.276 487.318 882.848 487.318 880.906 491.424C883.334 495.531 885.276 495.531 887.219 491.424ZM123.832 517.433C125.289 513.326 125.289 509.22 124.317 505.113C123.346 505.113 122.375 506.482 121.889 506.482C122.375 509.22 123.346 513.326 123.832 517.433ZM844.485 136.887C844.97 136.887 845.456 136.887 845.941 136.887C845.941 134.149 846.427 131.411 846.427 128.674L845.941 127.305C845.456 127.305 844.485 128.674 844.485 128.674C843.999 131.411 844.485 134.149 844.485 136.887ZM854.682 134.149C852.74 130.043 851.283 128.674 850.798 135.518C851.769 138.256 852.74 138.256 854.682 134.149ZM910.043 161.527C910.043 162.896 910.043 164.264 910.043 165.633C911.014 165.633 911.985 167.002 912.956 167.002L913.442 165.633C913.442 164.264 912.956 161.527 912.471 161.527C911.985 160.158 911.014 160.158 910.043 161.527ZM915.87 179.322C914.413 175.215 912.956 175.215 911.985 179.322C913.442 183.429 914.413 183.429 915.87 179.322ZM922.669 268.298C922.669 269.667 922.669 271.036 922.669 272.405C923.64 272.405 924.611 273.774 925.582 273.774L926.068 272.405C926.068 271.036 925.582 268.298 925.097 268.298C924.125 266.93 923.154 268.298 922.669 268.298ZM124.317 584.507C125.774 579.032 126.26 576.294 123.832 573.557C122.861 577.663 122.861 580.401 124.317 584.507ZM152.969 470.891C151.512 474.998 151.512 479.104 152.969 481.842C154.426 479.104 154.426 474.998 152.969 470.891ZM868.765 349.062C870.222 353.168 871.679 353.168 872.65 349.062C871.679 344.955 870.222 344.955 868.765 349.062ZM918.298 342.217C918.298 343.586 918.298 344.955 918.298 346.324C919.269 346.324 920.24 347.693 921.212 347.693L921.697 346.324C921.697 344.955 921.212 342.217 920.726 342.217C920.241 340.849 919.269 342.217 918.298 342.217ZM838.172 130.043C838.657 131.412 838.657 131.412 839.143 131.412C839.143 130.043 839.628 128.674 839.628 127.305L839.143 125.936C838.657 127.305 838.657 128.674 838.172 130.043ZM921.212 127.305C920.726 127.305 920.24 128.674 919.755 128.674L920.241 130.043C920.726 130.043 921.212 128.674 921.697 128.674C922.183 128.674 921.697 127.305 921.212 127.305ZM868.28 142.362C868.765 140.994 868.765 140.994 869.251 140.994C868.765 140.994 868.28 139.625 867.794 139.625L867.309 140.994C867.309 140.994 867.794 140.994 868.28 142.362ZM480.273 146.469C480.273 145.1 479.788 143.731 479.302 142.362L478.816 143.731C478.816 145.1 479.302 146.469 479.302 147.838C479.788 147.838 479.788 147.838 480.273 146.469ZM888.19 147.838C888.676 147.838 889.161 146.469 889.647 146.469L889.161 145.1C888.676 145.1 888.19 146.469 887.704 146.469C887.704 146.469 887.704 146.469 888.19 147.838ZM889.161 186.166C889.161 184.797 888.676 183.429 888.19 182.06L887.704 183.429C887.704 184.797 888.19 186.166 888.19 187.535C888.676 187.535 888.676 187.535 889.161 186.166ZM264.66 220.388C264.66 219.019 264.175 217.65 263.689 216.281L263.203 217.65C263.203 219.019 263.689 220.388 263.689 221.757C264.175 221.757 264.175 220.388 264.66 220.388ZM224.84 234.077C224.354 234.077 223.869 235.446 223.383 235.446L223.869 236.814C224.354 236.814 224.84 235.446 225.325 235.446C225.325 235.446 225.325 235.446 224.84 234.077ZM179.192 255.979C179.678 255.979 180.163 254.61 180.649 254.61L180.163 253.241C179.678 253.241 179.192 254.61 178.706 254.61C178.706 254.61 179.192 254.61 179.192 255.979ZM73.3279 294.307C73.3279 292.938 72.8422 291.569 72.3566 290.2L71.871 291.569C71.871 292.938 72.3566 294.307 72.3566 295.676C72.8422 295.676 73.3279 294.307 73.3279 294.307ZM134.515 295.676L134.03 297.045C134.03 298.414 134.515 299.783 134.515 301.151L135.001 299.783C135.001 298.414 134.515 297.045 134.515 295.676ZM105.378 302.52C104.893 303.889 104.893 303.889 104.407 303.889C104.893 303.889 105.378 305.258 105.864 305.258L106.35 303.889C106.35 303.889 105.864 302.52 105.378 302.52ZM76.2416 321.684C76.7272 323.053 76.7272 323.053 77.2128 323.053C77.2128 321.684 77.6984 320.316 77.6984 318.947L77.2128 317.578C76.7272 320.316 76.2416 320.316 76.2416 321.684ZM67.9861 334.004C68.4717 335.373 68.4717 335.373 68.9573 335.373C68.9573 334.004 69.4429 332.635 69.4429 331.267L68.9573 329.898C68.4717 331.267 67.9861 332.635 67.9861 334.004ZM864.395 344.955C864.395 343.586 863.909 342.217 863.424 340.849L862.938 342.217C862.938 343.586 863.424 344.955 863.424 346.324C863.909 346.324 863.909 344.955 864.395 344.955ZM858.567 377.808C858.567 379.177 859.053 380.546 859.539 381.915L860.024 380.546C860.024 379.177 859.539 377.808 859.539 376.439C859.539 376.439 859.053 376.439 858.567 377.808ZM101.008 405.185C101.008 406.554 101.494 407.923 101.979 409.292L102.465 407.923C102.465 406.554 101.979 405.185 101.979 403.817C101.494 403.817 101.008 405.185 101.008 405.185ZM893.532 413.399C894.017 414.768 894.017 414.768 894.503 414.768C894.503 413.399 894.989 412.03 894.989 410.661L894.503 409.292C894.017 410.661 894.017 412.03 893.532 413.399ZM149.569 462.678C149.084 461.309 149.084 461.309 148.598 461.309C148.598 462.678 148.113 464.047 148.113 465.416L148.598 466.785C149.084 464.047 149.084 462.678 149.569 462.678ZM114.12 470.891C114.605 469.522 114.605 469.522 115.091 469.522C114.605 469.522 114.12 468.154 113.634 468.154L113.148 469.522C113.148 469.522 113.634 469.522 114.12 470.891ZM899.359 473.629C898.873 472.26 898.873 472.26 898.388 472.26C898.388 473.629 897.902 474.998 897.902 476.367L898.388 477.736C898.873 476.367 898.873 474.998 899.359 473.629ZM110.72 480.473L110.235 479.104C109.749 479.104 109.263 480.473 108.778 480.473L109.263 481.842C109.749 481.842 110.235 480.473 110.72 480.473ZM137.915 514.695C138.4 516.064 138.4 516.064 138.886 516.064C138.886 514.695 139.372 513.326 139.372 511.957L138.886 510.588C138.4 511.957 137.915 513.326 137.915 514.695Z" fill="#0077FF" fill-opacity="0.29"/>
<path d="M971.23 176.584C971.23 173.846 971.23 171.109 971.23 168.371C972.201 167.002 972.687 167.002 974.144 165.633C975.601 171.109 977.057 175.215 978.514 182.06C978.514 182.06 978.029 183.429 977.543 186.166C977.543 190.273 977.057 194.379 977.057 199.855C976.086 199.855 974.629 201.224 974.144 199.855C971.716 194.379 969.773 188.904 967.345 182.06C965.888 184.797 964.917 186.166 963.46 188.904C962.489 184.797 961.518 180.691 960.547 177.953C959.09 177.953 958.118 177.953 957.147 177.953C957.147 175.215 956.662 172.478 956.662 168.371C958.118 167.002 959.575 165.633 960.547 164.264C959.575 160.158 959.09 157.42 958.118 153.313C959.09 151.944 960.061 150.576 961.518 147.838C962.489 151.945 962.975 156.051 963.946 160.158C963.946 160.158 963.46 161.527 962.489 164.264C963.946 167.002 965.403 168.371 966.86 169.74C968.802 171.109 969.773 176.584 971.23 176.584C971.716 179.322 971.23 184.797 973.172 180.691C972.687 179.322 972.201 177.953 971.23 176.584Z" fill="#0077FF" fill-opacity="0.29"/>
<path d="M156.854 30.1151C155.883 31.484 155.397 34.2217 154.911 35.5906C154.426 34.2217 153.94 32.8529 152.969 30.1151C149.084 30.1151 144.713 30.1151 140.343 30.1151C139.857 31.484 139.372 32.8529 138.886 34.2217C137.915 32.8529 136.944 31.484 135.487 28.7462C134.515 30.1151 133.544 32.8529 132.087 35.5906C131.116 35.5906 129.659 35.5906 128.202 35.5906C126.746 31.484 126.746 28.7462 128.202 24.6396C128.688 26.0085 129.659 28.7462 130.145 30.1151C130.631 27.3774 131.116 26.0085 132.087 24.6396C145.199 24.6396 158.311 24.6396 170.937 24.6396C172.393 21.9019 172.879 20.533 173.85 17.7953C175.307 20.533 176.764 21.9019 178.221 24.6396C179.192 23.2708 180.163 20.533 181.135 19.1642C182.591 20.533 182.106 24.6396 181.62 27.3774C181.135 28.7462 181.135 30.1151 180.649 30.1151C173.365 30.1151 165.109 30.1151 156.854 30.1151Z" fill="#0077FF" fill-opacity="0.29"/>
<path d="M106.835 35.5906C106.835 36.9595 106.35 38.3283 105.864 41.0661C97.6085 41.0661 89.353 41.0661 81.0976 41.0661C80.6119 42.4349 80.1263 43.8038 79.1551 46.5416C76.727 49.2793 74.2989 46.5415 71.3853 47.9104C71.3853 46.5415 71.8709 43.8038 72.3565 43.8038C73.8133 42.4349 75.2702 41.0661 77.6982 36.9595C79.6407 36.9595 83.04 36.9595 86.4393 36.9595C87.4105 34.2217 88.8674 32.8529 89.8386 30.1151C91.2955 32.8529 92.7523 34.2217 94.2092 36.9595C95.1804 35.5906 96.1516 32.8529 97.1229 31.484C97.6085 32.8529 98.5797 34.2217 99.0653 36.9595C101.979 35.5906 104.407 35.5906 106.835 35.5906Z" fill="#0077FF" fill-opacity="0.29"/>
<path d="M955.69 157.42C953.748 161.527 952.291 164.264 950.349 168.371C951.32 173.846 952.291 176.584 953.262 182.06C953.262 184.797 953.262 188.904 953.262 191.642C951.32 195.748 949.863 201.224 948.406 205.33C947.435 201.224 945.007 199.855 945.492 191.642C946.464 190.273 947.921 187.535 949.377 186.166C950.349 179.322 947.921 176.584 946.949 173.846C949.863 161.527 951.32 156.051 953.748 154.682C953.748 154.682 954.234 156.051 955.69 157.42Z" fill="#0077FF" fill-opacity="0.29"/>
<path d="M753.675 17.7953C754.646 17.7953 755.617 17.7953 756.589 17.7953C757.56 16.4264 758.045 13.6887 758.531 12.3198C759.017 13.6887 759.502 15.0576 760.473 17.7953C767.272 17.7953 774.071 17.7953 780.869 17.7953C782.326 21.9019 782.326 24.6397 781.355 28.7463C779.898 28.7463 778.441 28.7463 776.499 28.7463C776.013 27.3774 775.527 26.0085 774.556 23.2708C767.758 23.2708 760.959 23.2708 753.675 23.2708C754.16 21.9019 754.16 20.533 753.675 17.7953Z" fill="#0077FF" fill-opacity="0.29"/>
<path d="M963.46 279.25C965.888 279.25 968.316 279.25 970.745 279.25C971.716 281.987 972.201 284.725 973.658 288.832C972.201 291.569 970.745 294.307 970.259 295.676C969.288 302.52 970.259 306.627 968.316 307.996C967.831 305.258 967.345 301.151 966.86 298.414C965.403 298.414 963.946 297.045 962.004 297.045C961.032 294.307 961.032 294.307 963.46 288.832C963.46 284.725 963.46 281.987 963.46 279.25Z" fill="#0077FF" fill-opacity="0.29"/>
<path d="M796.894 27.3773C796.894 24.6396 797.38 20.533 797.38 16.4264C798.351 19.1641 799.322 21.9019 799.808 23.2707C800.294 21.9019 801.265 19.1641 801.75 17.7953C802.236 19.1641 802.722 20.533 803.693 23.2707C807.092 26.0085 810.977 21.9019 815.348 26.0085C811.948 30.1151 810.492 31.484 796.894 27.3773Z" fill="#0077FF" fill-opacity="0.29"/>
<path d="M739.592 12.3198C743.962 12.3198 748.333 12.3198 752.218 12.3198C753.189 12.3198 754.16 15.0576 753.675 17.7953C752.703 17.7953 751.732 17.7953 750.761 17.7953C750.275 19.1642 749.304 21.9019 748.818 23.2708C748.333 21.9019 747.362 20.533 746.39 17.7953C744.448 17.7953 742.505 17.7953 740.077 17.7953C739.592 15.0576 739.592 13.6887 739.592 12.3198Z" fill="#0077FF" fill-opacity="0.29"/>
<path d="M29.6224 299.782C27.1943 301.151 26.7087 301.151 25.2519 302.52C24.7662 305.258 24.2806 309.365 23.3094 313.471C22.3382 313.471 21.8526 313.471 21.3669 313.471C19.4245 307.996 22.3382 307.996 22.3382 303.889C22.3382 299.782 22.3382 297.045 22.3382 294.307C22.8238 292.938 23.3094 292.938 23.3094 291.569C24.2806 295.676 26.7087 295.676 29.6224 299.782Z" fill="#0077FF" fill-opacity="0.29"/>
<path d="M125.289 31.484C124.318 34.2217 123.832 34.2217 123.832 34.2217C120.433 34.2217 117.033 34.2217 113.634 34.2217L113.148 32.8528C115.577 28.7462 115.577 28.7462 125.289 31.484Z" fill="#0077FF" fill-opacity="0.29"/>
<path d="M50.9896 52.0171C49.0471 57.4926 45.6478 62.9681 43.2197 61.5992C43.2197 56.1237 45.1622 54.7548 45.6478 52.0171C47.5903 52.0171 49.5327 52.0171 50.9896 52.0171Z" fill="#0077FF" fill-opacity="0.29"/>
<path d="M67.5006 216.281C67.5006 221.757 67.5006 224.495 67.5006 227.232C66.5294 227.232 65.5582 228.601 64.1013 228.601C64.1013 224.495 63.6157 221.757 63.6157 217.65C64.587 217.65 65.5582 216.281 67.5006 216.281Z" fill="#0077FF" fill-opacity="0.29"/>
<path d="M903.73 73.9189C903.73 79.3944 903.73 82.1322 903.73 84.8699C902.758 84.8699 901.787 86.2388 900.33 86.2388C900.33 82.1322 899.845 79.3944 899.845 75.2878C900.816 75.2878 901.787 75.2878 903.73 73.9189Z" fill="#0077FF" fill-opacity="0.29"/>
<path d="M50.9897 50.6482C53.4178 43.8038 56.3315 46.5416 59.2452 47.9104C56.8171 54.7548 53.9034 50.6482 50.9897 50.6482Z" fill="#0077FF" fill-opacity="0.29"/>
<path d="M35.4501 291.569C37.3926 291.569 36.4213 297.045 36.9069 299.782C37.3926 302.52 38.3638 303.889 39.8206 306.627C37.8782 307.996 36.4213 307.996 35.4501 307.996C34.4789 301.151 34.4789 295.676 35.4501 291.569Z" fill="#0077FF" fill-opacity="0.29"/>
<path d="M950.349 130.043C952.777 131.411 953.748 131.411 955.205 132.78C953.748 136.887 952.777 140.994 950.834 140.994C951.32 139.625 950.834 136.887 950.349 130.043Z" fill="#0077FF" fill-opacity="0.29"/>
<path d="M930.438 160.158C930.438 162.895 930.438 167.002 929.953 169.74C927.525 171.109 927.525 164.264 926.068 164.264C927.039 157.42 928.982 161.527 930.438 160.158Z" fill="#0077FF" fill-opacity="0.29"/>
<path d="M930.438 199.855C930.924 194.38 930.924 191.642 930.924 187.535C931.895 190.273 932.867 191.642 933.352 194.38C933.838 195.748 933.838 197.117 934.323 198.486C933.838 198.486 933.352 199.855 932.867 199.855C932.381 199.855 931.895 199.855 930.438 199.855Z" fill="#0077FF" fill-opacity="0.29"/>
<path d="M12.1401 324.422C12.1401 321.684 12.1401 318.947 12.1401 316.209C13.1114 310.733 14.5682 313.471 16.5107 312.102C15.0538 318.947 14.0826 323.053 12.1401 324.422Z" fill="#0077FF" fill-opacity="0.29"/>
<path d="M110.72 589.983C109.749 589.983 108.778 589.983 107.807 589.983C105.864 587.245 106.35 583.139 107.321 579.032C108.778 581.77 110.235 584.507 110.72 589.983Z" fill="#0077FF" fill-opacity="0.29"/>
<path d="M786.211 20.533C787.668 16.4264 789.124 16.4264 790.096 19.1641C789.61 26.0085 788.153 24.6396 786.211 20.533Z" fill="#0077FF" fill-opacity="0.29"/>
<path d="M106.35 35.5906C107.806 28.7462 107.806 28.7462 110.235 31.484C109.749 38.3283 107.806 34.2217 106.35 35.5906Z" fill="#0077FF" fill-opacity="0.29"/>
<path d="M71.8712 46.5416C70.4144 52.0171 70.4144 52.0171 67.9863 49.2793C68.4719 43.8038 70.4144 47.9104 71.8712 46.5416Z" fill="#0077FF" fill-opacity="0.29"/>
<path d="M913.442 90.3454C912.471 90.3454 911.5 91.7142 910.528 91.7142C910.043 91.7142 910.043 88.9765 909.557 87.6076L910.043 86.2388C911.014 86.2388 911.985 86.2388 912.956 87.6076C913.442 88.9765 913.442 88.9765 913.442 90.3454Z" fill="#0077FF" fill-opacity="0.29"/>
<path d="M938.694 186.166C940.151 182.06 941.608 183.429 942.579 184.797C941.608 190.273 940.151 188.904 938.694 186.166Z" fill="#0077FF" fill-opacity="0.29"/>
<path d="M62.6444 239.552C64.1012 243.659 64.1012 247.765 62.6444 250.503C61.1875 246.397 61.1875 242.29 62.6444 239.552Z" fill="#0077FF" fill-opacity="0.29"/>
<path d="M56.3312 250.503C57.7881 254.61 57.7881 258.716 56.8168 261.454C54.3888 258.716 54.8744 254.61 56.3312 250.503Z" fill="#0077FF" fill-opacity="0.29"/>
<path d="M110.72 570.819C109.264 574.925 107.807 574.925 106.835 570.819C107.807 566.712 109.264 566.712 110.72 570.819Z" fill="#0077FF" fill-opacity="0.29"/>
<path d="M120.918 544.81C120.918 547.548 121.404 550.286 120.918 553.024C120.432 554.392 119.461 555.761 118.976 557.13C118.976 553.024 118.976 548.917 118.976 546.179C119.461 544.81 120.432 544.81 120.918 544.81Z" fill="#0077FF" fill-opacity="0.29"/>
<path d="M88.3818 488.687C88.3818 484.58 88.3818 480.473 88.3818 477.736C90.3243 477.736 90.3243 480.473 90.3243 484.58C89.8387 487.318 89.3531 488.687 88.3818 488.687Z" fill="#0077FF" fill-opacity="0.29"/>
<path d="M88.3821 477.736C86.4397 474.998 86.4397 474.998 87.4109 466.785C89.3534 468.154 87.8965 473.629 88.3821 477.736Z" fill="#0077FF" fill-opacity="0.29"/>
<path d="M35.9354 431.194C37.3923 435.301 37.3923 439.407 35.9354 442.145C34.4786 439.407 34.4786 435.301 35.9354 431.194Z" fill="#0077FF" fill-opacity="0.29"/>
<path d="M38.8493 422.981C37.3924 427.087 35.9356 427.087 34.9644 422.981C35.9356 418.874 37.3924 418.874 38.8493 422.981Z" fill="#0077FF" fill-opacity="0.29"/>
<path d="M57.3024 406.554C55.8456 410.661 54.3887 410.661 53.4175 406.554C54.3887 402.448 55.8456 402.448 57.3024 406.554Z" fill="#0077FF" fill-opacity="0.29"/>
<path d="M36.9067 324.422C37.3923 320.316 35.9355 316.209 37.8779 313.471C38.8492 320.316 38.8492 320.316 36.9067 324.422Z" fill="#0077FF" fill-opacity="0.29"/>
<path d="M793.981 19.1642C794.466 20.5331 794.466 20.5331 794.952 20.5331C794.466 20.5331 793.981 21.9019 793.495 21.9019L793.01 20.5331C793.01 20.5331 793.495 19.1642 793.981 19.1642Z" fill="#0077FF" fill-opacity="0.29"/>
<path d="M819.233 27.3774C818.747 28.7462 818.747 28.7462 818.262 28.7462C818.262 27.3774 817.776 26.0085 817.776 24.6396L818.262 23.2708C818.747 24.6396 818.747 26.0085 819.233 27.3774Z" fill="#0077FF" fill-opacity="0.29"/>
<path d="M63.1302 42.4349C63.1302 43.8038 62.6446 45.1727 62.159 46.5415L61.6733 45.1727C61.6733 43.8038 62.159 42.4349 62.159 41.066C62.6446 41.066 63.1302 42.4349 63.1302 42.4349Z" fill="#0077FF" fill-opacity="0.29"/>
<path d="M15.5396 114.985C16.5108 112.247 16.9964 110.879 17.482 109.51C18.9389 114.985 17.482 113.616 15.5396 114.985Z" fill="#0077FF" fill-opacity="0.29"/>
<path d="M16.9967 113.616C16.0255 116.354 15.5398 117.723 15.0542 119.092C13.5974 114.985 15.0542 114.985 16.9967 113.616Z" fill="#0077FF" fill-opacity="0.29"/>
<path d="M948.892 161.527C947.92 158.789 947.435 157.42 946.949 156.051C948.892 153.313 948.892 157.42 948.892 161.527Z" fill="#0077FF" fill-opacity="0.29"/>
<path d="M35.9354 227.232C35.4497 227.232 34.9641 225.864 34.4785 225.864L34.9641 224.495C35.4497 224.495 35.9354 225.864 36.421 225.864C36.421 225.864 36.421 225.864 35.9354 227.232Z" fill="#0077FF" fill-opacity="0.29"/>
<path d="M49.5328 251.872C48.5616 249.134 48.0759 247.765 47.5903 246.397C49.0472 243.659 49.0472 247.765 49.5328 251.872Z" fill="#0077FF" fill-opacity="0.29"/>
<path d="M50.9898 255.979C49.533 255.979 49.0474 254.61 49.0474 250.503C50.5042 250.503 50.9898 251.872 50.9898 255.979Z" fill="#0077FF" fill-opacity="0.29"/>
<path d="M50.9897 254.61C51.961 257.348 52.4466 258.716 52.9322 260.085C51.4754 262.823 51.4754 258.716 50.9897 254.61Z" fill="#0077FF" fill-opacity="0.29"/>
<path d="M962.004 261.454C961.518 260.085 961.518 260.085 961.032 260.085C961.518 260.085 962.004 258.716 962.489 258.716L962.975 260.085C962.975 260.085 962.489 260.085 962.004 261.454Z" fill="#0077FF" fill-opacity="0.29"/>
<path d="M963.46 280.618C962.489 277.881 962.003 276.512 961.518 275.143C962.975 271.036 962.975 276.512 963.46 280.618Z" fill="#0077FF" fill-opacity="0.29"/>
<path d="M49.5327 287.463C49.5327 286.094 50.0183 284.725 50.5039 283.356L50.9896 284.725C50.9896 286.094 50.5039 287.463 50.5039 288.832C50.0183 290.2 49.5327 288.832 49.5327 287.463Z" fill="#0077FF" fill-opacity="0.29"/>
<path d="M54.3889 306.627C54.3889 307.996 54.8745 309.365 54.8745 310.733L54.3889 312.102C54.3889 310.733 53.9033 309.365 53.9033 307.996C53.4177 307.996 53.9033 307.996 54.3889 306.627Z" fill="#0077FF" fill-opacity="0.29"/>
<path d="M1.94246 331.266C0.97123 328.529 0.485615 327.16 0 325.791C1.94246 323.053 1.45685 327.16 1.94246 331.266Z" fill="#0077FF" fill-opacity="0.29"/>
<path d="M12.6261 323.053C11.6548 325.791 11.1692 327.16 10.6836 328.529C9.71239 324.422 11.1692 324.422 12.6261 323.053Z" fill="#0077FF" fill-opacity="0.29"/>
<path d="M1.45703 328.529C2.42826 331.267 2.91388 332.635 3.39949 334.004C1.94265 336.742 1.94265 332.635 1.45703 328.529Z" fill="#0077FF" fill-opacity="0.29"/>
<path d="M61.6729 369.595C61.1873 369.595 60.2161 369.595 59.7305 369.595C59.7305 368.226 60.2161 365.488 60.2161 365.488C61.1873 364.12 61.6729 366.857 61.6729 369.595Z" fill="#0077FF" fill-opacity="0.29"/>
<path d="M59.2452 369.595C59.2452 373.701 58.7596 375.07 57.3027 375.07C57.3027 370.964 57.7883 369.595 59.2452 369.595Z" fill="#0077FF" fill-opacity="0.29"/>
<path d="M36.4212 384.652C35.9356 386.021 35.9356 386.021 35.45 386.021C35.45 384.652 34.9644 383.284 34.9644 381.915L35.45 380.546C35.9356 381.915 36.4212 383.284 36.4212 384.652Z" fill="#0077FF" fill-opacity="0.29"/>
<path d="M928.01 409.292C928.982 406.554 929.467 405.186 929.953 403.817C930.924 409.292 929.467 407.923 928.01 409.292Z" fill="#0077FF" fill-opacity="0.29"/>
<path d="M884.305 413.399C883.819 413.399 883.334 412.03 882.848 412.03L883.334 410.661C883.819 410.661 884.305 412.03 884.791 412.03C884.791 412.03 884.791 413.399 884.305 413.399Z" fill="#0077FF" fill-opacity="0.29"/>
<path d="M908.586 407.923C907.615 410.661 907.129 412.03 906.643 413.399C905.186 409.292 906.643 409.292 908.586 407.923Z" fill="#0077FF" fill-opacity="0.29"/>
<path d="M932.381 454.465C931.41 454.465 930.438 454.465 930.924 450.358C930.924 448.989 931.895 448.989 932.381 448.989C932.381 450.358 932.381 453.096 932.381 454.465Z" fill="#0077FF" fill-opacity="0.29"/>
<path d="M919.269 517.433C919.269 518.802 919.755 520.171 919.755 521.539L919.269 522.908C919.269 521.54 918.784 520.171 918.784 518.802C918.298 518.802 918.784 517.433 919.269 517.433Z" fill="#0077FF" fill-opacity="0.29"/>
<path d="M110.72 588.614C111.691 591.352 112.177 592.721 112.663 594.089C110.72 598.196 110.72 592.721 110.72 588.614Z" fill="#0077FF" fill-opacity="0.29"/>
<path d="M135.972 466.785C136.458 466.785 136.944 468.154 137.429 468.154L136.944 469.522C136.458 469.522 135.972 468.154 135.487 468.154L135.972 466.785Z" fill="#0077FF" fill-opacity="0.29"/>
</svg>
