<svg width="66" height="65" viewBox="0 0 66 65" fill="none" xmlns="http://www.w3.org/2000/svg">
<rect x="1.75" y="1.75" width="62" height="61" rx="14.5" stroke="white" stroke-width="3"/>
<path d="M51.47 23.2319C48.7807 23.2319 46.2016 22.1576 44.2999 20.2452C42.3983 18.3328 41.33 15.739 41.33 13.0344C41.33 12.8264 41.2478 12.6269 41.1015 12.4798C40.9553 12.3326 40.7569 12.25 40.55 12.25H32.75C32.5431 12.25 32.3447 12.3326 32.1985 12.4798C32.0522 12.6269 31.97 12.8264 31.97 13.0344V38.136C31.9692 38.978 31.7439 39.8043 31.3174 40.5289C30.891 41.2534 30.2791 41.8497 29.5456 42.2554C28.812 42.6612 27.9836 42.8617 27.1468 42.8359C26.31 42.8102 25.4954 42.5591 24.7879 42.109C24.0804 41.6588 23.5059 41.0261 23.1243 40.2767C22.7428 39.5272 22.5681 38.6886 22.6185 37.8482C22.6689 37.0077 22.9426 36.1963 23.411 35.4984C23.8794 34.8006 24.5253 34.2419 25.2815 33.8805C25.4136 33.8157 25.5253 33.7155 25.6044 33.5909C25.6835 33.4664 25.727 33.3223 25.73 33.1745V25.0165C25.7318 24.9009 25.7081 24.7862 25.6607 24.6809C25.6132 24.5755 25.5432 24.482 25.4556 24.407C25.368 24.3321 25.265 24.2775 25.154 24.2473C25.043 24.217 24.9267 24.2118 24.8135 24.2321C22.1847 24.7058 19.7448 25.9238 17.78 27.743C15.8153 29.5623 14.4073 31.9073 13.7212 34.503C13.0351 37.0987 13.0994 39.8374 13.9065 42.3976C14.7137 44.9578 16.2302 47.2335 18.2781 48.9574C20.326 50.6814 22.8203 51.7822 25.4684 52.1307C28.1166 52.4791 30.8086 52.0608 33.2286 50.9247C35.6486 49.7887 37.6962 47.9821 39.1312 45.7169C40.5662 43.4517 41.3289 40.8219 41.33 38.136V29.7819C44.3804 31.6639 47.8913 32.6553 51.47 32.645C51.6769 32.645 51.8753 32.5624 52.0215 32.4153C52.1678 32.2682 52.25 32.0687 52.25 31.8606V24.0164C52.25 23.8083 52.1678 23.6088 52.0215 23.4617C51.8753 23.3146 51.6769 23.2319 51.47 23.2319ZM50.69 31.0566C47.1983 30.9242 43.8247 29.75 40.9985 27.6836C40.883 27.6019 40.7476 27.5533 40.6068 27.5429C40.466 27.5326 40.3251 27.5609 40.199 27.6247C40.0692 27.6905 39.9602 27.7915 39.8844 27.9162C39.8086 28.041 39.769 28.1845 39.77 28.3307V38.136C39.7688 40.4832 39.1132 42.783 37.8776 44.7742C36.642 46.7654 34.876 48.3684 32.78 49.4009C30.684 50.4334 28.3422 50.8542 26.0204 50.6154C23.6986 50.3766 21.4899 49.4878 19.6451 48.05C17.8003 46.6122 16.3935 44.683 15.5842 42.4815C14.775 40.2799 14.5958 37.8943 15.0671 35.5955C15.5383 33.2967 16.6411 31.1768 18.2502 29.4767C19.8593 27.7765 21.9102 26.5642 24.17 25.9774V32.7039C23.2213 33.2547 22.4335 34.047 21.8858 35.0011C21.3382 35.9552 21.0499 37.0375 21.05 38.1392C21.0501 39.2408 21.3386 40.3231 21.8865 41.277C22.4343 42.231 23.2223 43.0232 24.1711 43.5738C25.1199 44.1245 26.1961 44.4142 27.2916 44.4139C28.387 44.4137 29.4631 44.1234 30.4116 43.5722C31.3601 43.0211 32.1477 42.2286 32.6951 41.2743C33.2425 40.3201 33.5304 39.2377 33.53 38.136V13.8188H39.7895C39.9851 16.6614 41.1964 19.3368 43.1998 21.3516C45.2032 23.3663 47.8635 24.5845 50.69 24.7812V31.0566Z" fill="white"/>
</svg>
