<svg width="264" height="397" viewBox="0 0 264 397" fill="none" xmlns="http://www.w3.org/2000/svg">
<path d="M-0.257279 336.944C2.60327 296.072 42.8553 266.214 75.1386 242.195L77.3862 240.47C81.064 237.949 89.85 231.048 89.0327 222.821C88.624 217.778 84.7419 213.266 77.5905 209.285C73.2997 206.896 69.4175 204.64 65.5353 202.65C48.7807 193.361 35.7039 185.929 15.2714 176.773C7.71139 173.455 0.355695 170.271 -6.79568 167.218V167.749C0.355695 170.669 7.50707 173.854 14.8628 177.171C35.2952 186.328 48.5764 193.759 65.1267 203.048C68.8045 205.171 72.891 207.427 77.1818 209.683C84.1289 213.531 88.0111 218.043 88.4197 222.953C89.0327 231.048 80.6554 237.816 76.7732 240.337L74.5256 242.062C42.2423 266.081 1.99029 295.939 -1.07458 337.077C-1.48323 341.456 -3.93513 344.11 -7 345.039V345.57C-3.52648 344.508 -0.665929 341.854 -0.257279 336.944Z" fill="#C4C4C4" fill-opacity="0.4"/>
<path d="M14.0455 337.342C16.7017 299.655 55.1148 271.124 85.9678 248.299L88.2154 246.574C94.7538 241.797 99.8619 237.55 103.744 233.968C108.444 229.456 117.434 221.228 96.3884 207.958C73.7084 193.759 49.1894 180.621 23.4444 169.076C13.0239 164.299 2.80762 160.053 -6.79565 156.337V156.868C2.80762 160.716 12.6152 164.83 23.0358 169.474C48.7807 181.02 73.2997 194.157 95.9798 208.356C116.617 221.361 108.035 229.456 103.335 233.835C99.4533 237.418 94.3452 241.664 87.8068 246.441L85.5592 248.167C54.5018 270.991 16.0887 299.522 13.4325 337.342C12.2066 354.859 7.30276 365.077 -1.68753 369.456C-3.52646 370.385 -5.16106 370.783 -6.79565 370.916V371.314C-5.16106 371.181 -3.32213 370.783 -1.27888 369.721C7.91574 365.342 12.8195 354.992 14.0455 337.342Z" fill="#C4C4C4" fill-opacity="0.4"/>
<path d="M263.322 67.8251C259.44 57.6071 227.361 54.953 190.173 51.7682C180.979 50.972 171.58 50.1758 162.385 49.2469C121.725 45.1331 84.5376 31.863 48.3721 18.9909C30.3915 12.4885 12.0022 5.98617 -6.79565 0.54541V1.60702C11.7979 6.91508 29.9828 13.4175 47.7591 19.7871C83.9246 32.6592 121.316 45.9293 162.181 50.1758C171.376 51.1047 180.979 51.9009 189.969 52.6971C225.113 55.6166 258.214 58.536 261.892 68.0905C264.752 75.5218 249.836 86.8014 216.123 102.726C168.924 124.887 129.285 135.237 91.2803 135.237C69.8262 135.237 48.3721 131.787 27.9396 124.887C15.2714 120.64 4.03356 115.465 -6.79565 110.157V111.351C3.82924 116.527 14.8628 121.569 27.3266 125.683C48.1677 132.583 69.6218 136.166 91.4846 136.166C129.693 136.166 169.537 125.816 217.144 103.522C251.88 87.0668 266.387 75.7872 263.322 67.8251Z" fill="#C4C4C4" fill-opacity="0.4"/>
<path d="M36.7255 113.74C52.2542 118.915 65.5353 121.304 78.2035 121.304C91.6889 121.304 103.54 118.65 117.23 115.598C124.994 113.872 133.984 111.882 143.996 110.29C149.104 109.493 153.599 109.361 156.46 109.361C158.503 109.361 160.342 109.361 162.181 109.493C163.816 109.493 165.45 109.626 167.085 109.626C175.462 109.626 182.001 108.299 189.152 102.062C194.056 97.8156 195.895 94.498 197.529 91.5786C199.981 87.1995 201.82 83.7492 212.445 78.8392C215.101 77.5122 218.983 76.5833 222.865 75.6544C228.995 74.062 234.103 72.735 234.308 70.479C234.512 68.6212 231.243 66.6307 223.887 63.9767C215.305 60.9245 202.842 60.5264 191.808 60.5264C186.904 60.5264 181.796 60.6591 176.892 60.6591C171.989 60.7918 166.676 60.7918 161.772 60.7918C150.739 60.7918 142.974 60.261 136.845 59.1994C101.292 53.0951 67.9872 41.152 38.5645 30.6685C23.2401 25.2278 8.12004 19.9197 -6.79568 15.2751V16.0714C7.91572 20.5832 22.8314 25.8913 38.1558 31.332C67.5786 41.8155 101.088 53.7586 136.64 59.9956C142.974 61.0572 150.739 61.588 161.977 61.588C166.88 61.588 172.193 61.4553 177.097 61.4553C182.001 61.3226 187.109 61.3226 192.012 61.3226C202.842 61.3226 215.101 61.7207 223.478 64.7729C230.221 67.1615 233.49 69.0193 233.286 70.6117C233.082 72.4696 227.974 73.7966 222.457 75.1236C218.575 76.0525 214.693 77.1141 211.832 78.4411C201.003 83.4838 198.959 87.1995 196.508 91.4459C194.873 94.3653 193.034 97.5502 188.335 101.797C181.388 107.901 175.053 109.095 167.085 109.095C165.45 109.095 163.816 109.095 162.181 108.963C160.342 108.963 158.503 108.83 156.46 108.83C153.599 108.83 148.9 108.963 143.792 109.759C133.78 111.351 124.79 113.342 117.025 115.067C103.335 118.119 91.4846 120.64 78.2035 120.64C65.5353 120.64 52.4585 118.252 37.1342 113.076C23.0358 108.432 10.3676 102.195 -1.89188 96.0905C-3.52648 95.2943 -5.3654 94.3653 -7 93.5691V94.3653C-5.56973 95.1616 -3.93513 95.8251 -2.50485 96.6213C9.95897 102.858 22.6271 109.095 36.7255 113.74Z" fill="#C4C4C4" fill-opacity="0.4"/>
<path d="M46.1245 101.797C61.2445 106.839 75.9559 109.228 91.4846 109.228C100.066 109.228 118.66 106.972 134.801 103.124C148.9 99.8061 165.859 94.2326 165.859 86.8013C165.859 78.043 139.705 73.133 124.177 70.2136C120.703 69.5501 117.843 69.0192 115.799 68.6211C87.8068 61.986 60.0186 53.7585 28.5525 42.4789C16.4974 38.2324 4.85086 33.9859 -6.79565 30.2703V30.6684C4.64654 34.384 16.4974 38.6305 28.3482 42.877C60.0186 54.0239 87.8068 62.3842 115.799 69.0193C117.843 69.5501 120.703 70.0809 124.177 70.6117C139.705 73.5311 165.45 78.3084 165.45 86.8013C165.45 99.6734 109.465 108.83 91.4846 108.83C76.1602 108.83 61.4489 106.441 46.5331 101.399C34.0693 97.2848 22.2185 91.3132 10.572 85.7397C5.05519 82.953 -0.665908 80.1662 -6.79565 77.3795V77.9103C-0.870233 80.5643 4.64654 83.3511 10.1633 86.0051C21.8098 91.7113 33.6607 97.6829 46.1245 101.797Z" fill="#C4C4C4" fill-opacity="0.4"/>
<path d="M52.6629 93.5691C65.7397 97.9482 78.4078 100.071 91.4846 100.071C102.722 100.071 117.638 97.9482 123.359 93.0383C125.811 90.9151 126.628 88.5264 125.402 85.7397C122.746 79.37 102.109 74.7254 86.9894 71.4079C82.0856 70.3463 77.7948 69.4174 75.3429 68.6212C57.771 63.3131 40.6077 57.2088 23.8531 51.2372L22.0141 50.5737C12.0022 47.1235 2.60327 43.8059 -6.79568 40.6211V41.0192C2.39894 44.0713 11.7979 47.5216 21.4012 50.8391L23.2401 51.5026C39.9947 57.6069 57.3623 63.7112 74.9343 69.0193C77.5905 69.8155 81.8813 70.7444 86.7851 71.806C100.884 74.8581 122.338 79.6354 124.79 85.8724C125.811 88.5264 125.198 90.7824 122.746 92.7729C117.23 97.4174 102.518 99.5407 91.2803 99.5407C78.4078 99.5407 65.7397 97.4174 52.8672 93.171C41.425 89.3226 29.9828 83.7492 18.9493 78.3084C10.9806 74.3273 2.39894 70.2136 -7 66.2325V66.7633C2.19462 70.7444 10.7763 74.8581 18.5406 78.7065C29.7785 84.1473 41.2207 89.7207 52.6629 93.5691Z" fill="#C4C4C4" fill-opacity="0.4"/>
<path d="M59.2013 85.3417C63.2878 86.6688 74.73 89.0574 83.1073 89.0574C86.1722 89.0574 88.4197 88.792 89.85 88.1285C93.1192 86.8015 94.5495 85.4744 94.1408 84.2801C93.5279 81.4934 84.1289 79.7683 76.5689 78.4413C73.504 77.9104 70.8478 77.3796 69.2132 76.9815C51.2326 71.5408 33.6607 65.3038 16.7017 59.3322L14.8628 58.6687C7.50709 56.0147 0.355716 53.3607 -6.79565 50.972V51.7683C0.151392 54.1569 7.30276 56.6782 14.4541 59.1995L16.2931 59.863C33.252 65.9673 50.824 72.2043 68.8045 77.5123C70.4391 78.0432 73.0954 78.4413 76.1602 79.1048C83.1073 80.2991 92.5062 82.0242 92.9149 84.4128C93.1192 85.3417 91.8933 86.536 89.0327 87.7304C87.8068 88.2612 85.5592 88.5266 82.903 88.5266C74.9343 88.5266 63.4921 86.1379 59.6099 84.8109C49.3937 81.3607 38.5645 76.0526 27.9396 70.8773C17.9277 65.9673 6.48546 60.2611 -6.79565 55.2185V56.0147C6.07681 61.0574 17.519 66.6308 27.3266 71.5408C37.9515 76.5834 48.7807 82.0242 59.2013 85.3417Z" fill="#C4C4C4" fill-opacity="0.4"/>
<path d="M28.5526 337.873C31.0044 303.503 67.5786 276.432 96.7971 254.536L99.0446 252.811C133.984 226.934 132.554 217.778 116.208 207.294C98.2273 195.749 70.0305 178.498 31.6174 161.247C18.5406 155.408 5.66816 149.967 -6.79565 145.19V145.986C5.46384 150.764 18.132 156.072 31.0045 161.778C69.2132 179.029 97.41 196.28 115.391 207.693C131.328 217.911 132.554 226.669 98.2273 252.28L95.9798 254.006C66.557 275.901 29.9828 303.105 27.5309 337.74C25.079 370.252 6.28114 379.807 -6.79565 382.461V383.124C6.68979 380.603 26.1007 370.916 28.5526 337.873Z" fill="#C4C4C4" fill-opacity="0.4"/>
<path d="M-6.79568 130.859C62.0618 156.205 136.436 196.413 149.921 216.451C158.094 228.527 138.275 242.859 113.347 261.039C84.9462 281.74 49.8023 307.484 47.5547 338.271C44.8985 375.958 16.0887 391.352 -7 395.996V396.925C16.4974 392.281 46.1245 376.622 48.7807 338.271C51.0283 307.75 85.9678 282.138 114.165 261.57C139.501 243.124 159.32 228.527 150.943 216.053C137.662 196.015 62.6748 155.276 -6.79568 129.93V130.859Z" fill="#C4C4C4" fill-opacity="0.4"/>
</svg>
